<?xml version="1.0" encoding="UTF-8" standalone="no"?>
<svg
   version="1.1"
   id="Layer_1"
   x="0px"
   y="0px"
   width="865.7027"
   viewBox="0 0 865.7027 683.44964"
   enable-background="new 0 0 1000 1148"
   xml:space="preserve"
   sodipodi:docname="logo-prova.svg"
   inkscape:version="1.1.2 (0a00cf5339, 2022-02-04)"
   height="683.44965"
   xmlns:inkscape="http://www.inkscape.org/namespaces/inkscape"
   xmlns:sodipodi="http://sodipodi.sourceforge.net/DTD/sodipodi-0.dtd"
   xmlns="http://www.w3.org/2000/svg"
   xmlns:svg="http://www.w3.org/2000/svg"><defs
   id="defs229" /><sodipodi:namedview
   id="namedview227"
   pagecolor="#ffffff"
   bordercolor="#666666"
   borderopacity="1.0"
   inkscape:pageshadow="2"
   inkscape:pageopacity="0.0"
   inkscape:pagecheckerboard="0"
   showgrid="false"
   inkscape:zoom="0.71515679"
   inkscape:cx="430.67479"
   inkscape:cy="446.75518"
   inkscape:window-width="1920"
   inkscape:window-height="1012"
   inkscape:window-x="1920"
   inkscape:window-y="0"
   inkscape:window-maximized="1"
   inkscape:current-layer="Layer_1"
   fit-margin-top="0"
   fit-margin-left="0"
   fit-margin-right="0"
   fit-margin-bottom="0" />



<path
   fill="#a0302c"
   opacity="1"
   stroke="none"
   d="m -68.866668,346.66588 c 0.646001,-0.96759 1.8236,-1.43567 1.854636,-1.97028 0.269234,-4.6376 0.02107,-9.32187 0.533611,-13.92471 0.686559,-6.16559 1.917401,-12.27042 2.909538,-18.40219 1.344475,-8.30924 2.488724,-16.65717 4.088827,-24.91681 1.244295,-6.42304 2.916532,-12.77414 4.644524,-19.08994 2.685374,-9.81506 5.199126,-19.70239 8.472418,-29.3255 5.24667,-15.42465 10.166249,-31.05978 16.856919,-45.86822 7.910755,-17.50885 16.943268,-34.59137 26.6258123,-51.19609 9.208321,-15.79151 19.5609517,-30.95264 30.0355837,-45.954453 5.921161,-8.48032 12.925541,-16.23548 19.757041,-24.04157 9.67142,-11.05116 19.26174,-22.21632 29.58803,-32.63788 8.44882,-8.52678 18.11911,-15.82799 26.901028,-24.04332 16.65583,-15.58124049 35.11437,-28.763788 54.24976,-40.991846 24.21849,-15.476295 49.42322,-29.233688 76.35513,-39.409656 21.34592,-8.065354 42.78064,-16.068768 64.63221,-22.564848 15.80111,-4.697382 32.31237,-7.082342 48.57946,-10.108845 10.76618,-2.003054 21.65473,-3.357452 32.50083,-4.916412 3.82046,-0.54913 7.67758,-0.84314 11.46631,-1.67986 25.63589,-0.42623 51.32345,-0.42623 77.4797,-0.42623 1.67829,0.67011 2.84778,1.8211 4.10456,1.92592 5.05169,0.42132 10.16479,0.22262 15.19085,0.8065 7.30011,0.84806 14.58338,1.97079 21.80438,3.341838 12.66285,2.404283 25.40149,4.583815 37.87433,7.772749 17.2959,4.422047 34.68799,8.817953 51.46491,14.827331 18.77606,6.725466 37.03973,14.950747 55.29333,23.048579 24.45954,10.850967 47.09919,25.038139 68.91999,40.351516 14.22564,9.9832435 27.50592,21.3572435 40.85162,32.535684 9.04126,7.57298 17.81915,15.53794 26.06024,23.96759 8.7215,8.92111 16.53577,18.72133 24.98108,27.92209 15.1319,16.4854 27.7691,34.819223 39.89368,53.517183 14.1336,21.79624 26.76233,44.45217 36.34472,68.64046 7.11304,17.95502 14.45539,35.90146 20.05652,54.3494 5.34076,17.59036 8.99371,35.73922 12.56208,53.80581 2.48803,12.5968 3.57452,25.47003 5.33001,38.21387 0.054,0.39191 0.58624,0.71796 1.31593,1.02408 0.4204,29.30362 0.4204,58.65787 0.4204,88.48077 -0.6392,1.34406 -1.76617,2.17664 -1.84735,3.10114 -3.41711,38.8966 -12.11829,76.63513 -25.1272,113.37964 -9.75293,27.54754 -22.12585,53.89379 -36.55823,79.34784 -12.89282,22.73889 -27.80444,44.04742 -43.97534,64.4652 -8.60382,10.86329 -17.95398,21.23963 -27.81134,30.98157 -14.54339,14.37299 -29.33532,28.58112 -44.94366,41.76789 -19.21546,16.23419 -39.67646,31.01287 -61.88001,42.9505 -20.42846,10.98321 -41.1477,21.51758 -62.24377,31.14306 -24.76721,11.30048 -50.7785,19.39576 -77.37488,25.14508 -18.94128,4.09443 -38.09839,7.3927 -57.30005,10.01453 -14.21576,1.94104 -28.65826,2.22168 -43.93475,3.18817 -11.98093,-0.018 -23.0268,0.018 -34.07266,0.0538 -21.72727,0.2038 -43.15512,-2.60742 -64.58072,-5.91619 -31.03223,-4.79218 -61.44303,-12.16126 -90.69022,-23.40107 C 236.681,837.45189 214.98947,827.6671 193.72699,817.20293 170.81003,805.92436 149.41446,791.91203 128.98948,776.51463 110.76527,762.77635 92.962002,748.53594 77.307602,731.83153 64.659422,718.3351 51.362492,705.35188 39.733202,691.02132 27.660198,676.14387 16.752544,660.24281 6.2598463,644.18526 -2.3458977,631.01558 -10.477669,617.37972 -17.2318,603.19447 c -9.350369,-19.638 -18.418694,-39.57654 -25.37661,-60.14129 -7.164354,-21.17493 -12.195975,-43.13324 -17.10843,-64.98542 -3.06167,-13.61926 -4.140698,-27.68176 -6.178208,-41.53527 -0.616957,-4.19483 -1.463685,-8.3559 -2.588393,-12.43384 -0.383224,-25.58899 -0.383224,-51.27655 -0.383227,-77.43277 m 81.187053,284.80911 c 19.352207,31.52033 41.672367,60.81317 68.135567,86.63178 C 197.85507,832.64632 338.5878,879.60097 500.77902,858.56313 612.64731,844.05269 708.74509,794.92415 786.44412,713.01497 889.30917,604.57619 932.97103,474.95052 915.54873,326.3604 903.05258,219.78417 857.62381,127.62527 781.35226,52.385877 663.01828,-64.346633 519.78262,-110.22912 355.66662,-87.131772 245.77951,-71.666487 151.86313,-22.146346 75.105632,58.106337 -5.6307557,142.51913 -50.027573,243.56331 -56.477713,360.34132 c -5.360533,97.05103 17.972012,187.33222 68.798098,271.13367 z"
   id="path8"
   style="display:none" />







<path
   fill="#ebd4d4"
   opacity="1"
   stroke="none"
   d="m 414.27304,875.65395 c 10.83691,-0.42279 21.88278,-0.45874 33.39508,-0.44239 -0.20691,0.37195 -0.88043,0.96991 -1.55377,0.96985 -10.54413,-10e-4 -21.08826,-0.0798 -31.84131,-0.52746 z"
   id="path24" />



<path
   fill="#dcb5b3"
   opacity="1"
   stroke="none"
   d="m 108.96344,904.80122 c -9.037748,0.363 -18.292708,0.344 -27.892578,0.04 8.99518,-0.3306 18.3353,-0.3765 27.892578,-0.04 z"
   id="path32" />
<path
   fill="#eaea4e"
   opacity="1"
   stroke="none"
   d="M 12.138676,631.16109 C -38.505701,547.67354 -61.838246,457.39235 -56.477713,360.34132 -50.027573,243.56331 -5.6307557,142.51913 75.105632,58.106337 151.86313,-22.146346 245.77951,-71.666487 355.66662,-87.131772 519.78262,-110.22912 663.01828,-64.346633 781.35226,52.385877 857.62381,127.62527 903.05258,219.78417 915.54873,326.3604 932.97103,474.95052 889.30917,604.57619 786.44412,713.01497 708.74509,794.92415 612.64731,844.05269 500.77902,858.56313 338.5878,879.60097 197.85507,832.64632 80.455952,718.10677 53.992752,692.28816 31.672592,662.99532 12.138676,631.16109 m 541.299284,36.84479 c 30.7359,-7.14277 59.90924,-18.16773 86.5719,-35.26295 31.19995,-20.00433 55.75433,-45.85632 69.76428,-80.70928 9.95782,-24.77228 12.60089,-50.56055 10.42303,-77.0412 -0.34491,-4.19342 0.97681,-8.52381 1.52796,-12.7909 0.60016,-0.0856 1.20038,-0.17126 1.80053,-0.25695 36.36335,36.77319 67.18726,77.45001 87.37366,126.12487 1.10278,-1.22192 1.89655,-2.02441 2.6037,-2.89703 6.98761,-8.62225 10.94165,-18.83698 13.40124,-29.3363 6.64216,-28.35364 13.49976,-56.71656 18.4502,-85.39032 5.26636,-30.50379 10.36499,-61.25928 12.11566,-92.09906 3.26844,-57.57651 -4.31177,-114.13331 -24.25134,-168.53998 C 800.587,120.76845 742.87155,53.921827 657.29813,11.660327 c -12.85462,-6.3483705 -23.77161,-6.2176005 -35.33381,2.19753 -17.10247,12.44751 -34.57769,24.3863 -52.02874,36.34542 -1.53302,1.05061 -4.43402,1.50558 -6.06745,0.79133 -15.31433,-6.69659 -31.18731,-8.03897 -47.48913,-5.41427 -3.401,0.54757 -6.88001,1.5874 -9.91993,3.17323 -4.60748,2.40355 -4.71606,6.966 -0.46063,9.96463 3.12622,2.20294 6.47284,4.09897 9.76288,6.06204 6.21674,3.70937 12.46338,7.36859 19.08008,11.27442 -1.39539,1.19996 -2.21875,1.98335 -3.11664,2.6692 -32.57239,24.882073 -65.15588,49.749563 -97.72534,74.635443 -4.71591,3.60333 -9.07178,7.7735 -14.09992,10.85678 -30.39114,18.63605 -60.90472,37.07297 -91.42575,55.49634 -26.3815,15.92459 -52.41952,32.47656 -79.34054,47.43536 -40.17908,22.32575 -81.17577,43.17676 -121.457,65.32379 -14.82338,8.15009 -29.437038,17.14475 -42.672318,27.61713 -22.76872,18.01572 -41.05639,40.34985 -56.273511,65.11517 -10.057015,16.36737 -17.077362,33.87702 -19.7095107,53.00836 -3.718735,27.02912 -0.226456,53.5365 6.2672647,79.72486 9.480538,38.23376 26.499287,71.94433 57.711057,97.57776 14.97012,12.29449 30.769548,16.25122 48.726708,9.11163 12.51365,-4.97534 24.56742,-11.09595 36.99291,-16.30847 7.48437,-3.13989 15.0918,-6.5188 22.98204,-8.0647 30.60432,-5.99646 61.36571,-5.26819 91.89525,0.55597 49.07754,9.36285 98.0563,19.24329 147.07745,28.90186 44.08844,8.68664 88.07392,8.46014 132.76441,-1.70526 z"
   id="path34"
   style="display:none" />



<path
   fill="#a0302a"
   opacity="1"
   stroke="none"
   d="m 553.02835,668.09035 c -44.28088,10.08093 -88.26636,10.30743 -132.3548,1.62079 -49.02115,-9.65857 -97.99991,-19.53901 -147.07745,-28.90186 -30.52954,-5.82416 -61.29093,-6.55243 -91.89525,-0.55597 -7.89024,1.5459 -15.49767,4.92481 -22.98204,8.0647 -12.42549,5.21252 -24.47926,11.33313 -36.99291,16.30847 -17.95716,7.13959 -33.756588,3.18286 -48.726708,-9.11163 C 41.787422,629.88142 24.768673,596.17085 15.288135,557.93709 8.7944143,531.74873 5.3021353,505.24135 9.0208703,478.21223 11.653019,459.08089 18.673366,441.57124 28.730381,425.20387 43.947502,400.43855 62.235172,378.10442 85.003892,360.0887 c 13.23528,-10.47238 27.848938,-19.46704 42.672318,-27.61713 40.28123,-22.14703 81.27792,-42.99804 121.457,-65.32379 26.92102,-14.9588 52.95904,-31.51077 79.34054,-47.43536 30.52103,-18.42337 61.03461,-36.86029 91.42575,-55.49634 5.02814,-3.08328 9.38401,-7.25345 14.09992,-10.85678 32.56946,-24.88588 65.15295,-49.75337 97.72534,-74.635443 0.89789,-0.68585 1.72125,-1.46924 3.11664,-2.6692 -6.6167,-3.90583 -12.86334,-7.56505 -19.08008,-11.27442 -3.29004,-1.96307 -6.63666,-3.8591 -9.76288,-6.06204 -4.25543,-2.99863 -4.14685,-7.56108 0.46063,-9.96463 3.03992,-1.58583 6.51893,-2.62566 9.91993,-3.17323 16.30182,-2.6247 32.1748,-1.28232 47.48913,5.41427 1.63343,0.71425 4.53443,0.25928 6.06745,-0.79133 17.45105,-11.95912 34.92627,-23.89791 52.02874,-36.34542 11.5622,-8.4151305 22.47919,-8.5459005 35.33381,-2.19753 85.57342,42.2615 143.28887,109.108123 175.92065,198.146453 19.93957,54.40667 27.51978,110.96347 24.25134,168.53998 -1.75067,30.83978 -6.8493,61.59527 -12.11566,92.09906 -4.95044,28.67376 -11.80804,57.03668 -18.4502,85.39032 -2.45959,10.49932 -6.41363,20.71405 -13.40124,29.3363 -0.70715,0.87262 -1.50092,1.67511 -2.6037,2.89703 -20.1864,-48.67486 -51.01031,-89.35168 -87.37366,-126.12487 -0.60015,0.0857 -1.20037,0.17132 -1.80053,0.25695 -0.55115,4.26709 -1.87287,8.59748 -1.52796,12.7909 2.17786,26.48065 -0.46521,52.26892 -10.42303,77.0412 -14.00995,34.85296 -38.56433,60.70495 -69.76428,80.70928 -26.66266,17.09522 -55.836,28.12018 -86.98151,35.34742 M 470.06216,137.34039 c 33.02814,-14.15446 66.05622,-28.30893 100.17761,-42.931913 -8.9682,-4.69876 -17.00469,-9.02451 -25.18499,-13.05863 -1.09992,-0.54242 -3.2945,-0.10281 -4.35968,0.70401 -24.01068,18.188423 -47.93433,36.491843 -72.3208,54.965323 -0.21283,0.23633 -0.42572,0.47264 -0.63855,0.70897 0.53247,-0.1019 1.06494,-0.20378 2.32641,-0.38776 m 367.96649,119.68703 c 0.10932,-0.34686 0.21857,-0.69372 0.3241,-1.84412 -4.39276,-14.83935 -8.06451,-29.93887 -13.30823,-44.47122 -18.68542,-51.78479 -47.82678,-96.88161 -87.88519,-134.822513 -2.90436,-2.75082 -5.83179,-3.88429 -9.78912,-3.60998 -12.13092,0.84092 -24.28845,1.29663 -36.4198,2.13307 -8.21784,0.56659 -16.40888,1.52222 -25.92499,2.42898 3.94482,3.42963 6.79401,5.932 9.66992,8.40317 40.33942,34.661783 72.07007,75.264213 87.22821,127.155503 1.7334,5.93406 4.93897,9.06965 10.5459,11.75791 21.91974,10.50961 43.47797,21.77313 65.5592,32.8692 m -175.78991,8.4386 c 1.67224,-9.07294 3.34442,-18.14585 5.31262,-27.79181 -0.46301,-1.51804 -0.92603,-3.03607 -1.87549,-5.14603 -4.60058,-1.55237 -5.71832,1.15201 -6.54706,4.93189 -3.13037,14.27713 -6.22424,28.57092 -9.83197,42.73102 -1.73321,6.80273 -4.58319,13.32095 -7.24066,20.85626 -1.36163,-2.33951 -2.13818,-3.59729 -2.8421,-4.8945 -13.08411,-24.1124 -30.82648,-44.50824 -50.59882,-63.26087 -4.16742,-3.95245 -7.02539,-3.03506 -8.22601,2.90039 0.59558,0.75675 1.1911,1.51349 2.1518,2.83612 0.96118,0.92237 1.93322,1.83374 2.88201,2.76865 19.31482,19.03174 36.84632,39.4046 49.06873,63.91629 2.29016,4.59299 2.30163,8.29691 0.0514,13.009 -18.4657,38.66809 -42.94592,73.18387 -71.50757,104.94937 -0.98724,1.09797 -1.59686,2.53547 -2.53766,4.06733 -1.1997,-1.58899 -1.57983,-1.92749 -1.75714,-2.35095 -9.75836,-23.30152 -24.81494,-43.2624 -39.85498,-63.2327 -1.77466,-2.35639 -3.81592,-4.8198 -6.97577,-2.48056 -3.36181,2.4888 -1.51916,5.14123 0.36518,7.73572 7.24273,9.97186 14.94793,19.66543 21.43597,30.11166 6.55884,10.56039 11.90167,21.8779 17.72974,32.88882 1.54193,2.91321 0.6228,5.18982 -1.67389,7.52112 -39.96692,40.56964 -84.42377,75.41248 -133.14957,104.86115 -2.58618,1.56298 -4.16132,1.48645 -6.38794,-0.62983 -10.62591,-10.09893 -21.43219,-20.00805 -32.1672,-29.99236 -2.26502,-2.10657 -4.75855,-4.53596 -7.68036,-1.56983 -3.25174,3.30109 -0.31595,5.67853 2.02664,7.86151 8.89685,8.29083 17.81763,16.55591 26.72339,24.83722 1.99423,1.85437 3.9638,3.73535 6.20758,5.85205 -2.10102,1.21796 -3.51761,2.07343 -4.96503,2.87323 -50.72424,28.02979 -103.75006,50.82459 -158.50879,69.67725 -1.73123,0.59607 -3.69263,0.90564 -5.09595,1.95282 -1.1531,0.86041 -2.45083,2.79223 -2.2084,3.93646 0.30112,1.42084 1.98059,3.40131 3.30963,3.61462 8.70221,1.39704 17.47058,2.3819 26.77667,3.79151 0.82956,0.0716 1.65915,0.14325 3.32477,0.46362 4.36624,0.42993 8.73249,0.85986 13.57248,1.54785 0.5307,0.017 1.06137,0.034 2.44763,0.32923 9.99906,0.86346 19.99814,1.72686 30.49463,2.84606 0.55057,-10e-4 1.10117,-0.003 2.53827,0.19495 3.01801,0.11731 6.03604,0.23456 9.52905,0.5968 0.52637,-0.0272 1.05274,-0.0543 2.47181,0.21704 5.32171,0.2392 10.6434,0.47834 16.64828,1.00977 1.4874,0.007 2.97479,0.0143 5.38614,0.19086 16.35696,0.13989 32.71396,0.27972 49.74448,0.56048 2.1203,-0.0955 4.2406,-0.19092 7.28396,-0.17407 4.67944,-0.18298 9.35889,-0.36603 14.77433,-0.40979 1.4634,-0.17792 2.92678,-0.35583 5.29821,-0.39007 4.3219,-0.34784 8.6438,-0.69568 13.48566,-0.91901 0.51208,-0.11719 1.02417,-0.23431 2.4292,-0.24536 5.68268,-0.56952 11.36536,-1.13898 17.58325,-1.61975 0.51367,-0.15039 1.02734,-0.30079 2.38294,-0.37232 2.9931,-0.26373 5.98614,-0.52746 10.49871,-0.92505 -2.87402,2.20301 -4.44507,3.65418 -6.23736,4.74024 -10.01618,6.06909 -20.08594,12.04998 -30.69471,18.28912 -0.37747,0.89099 -0.75494,1.78204 -1.2023,3.41321 1.4907,4.67511 4.63568,3.87689 7.97751,2.40662 15.85389,-6.97504 29.49689,-17.26056 42.72309,-28.23548 2.28784,-1.89825 5.32068,-3.45245 8.22253,-3.9693 23.14935,-4.12298 45.87683,-9.71551 67.58862,-18.88586 10.85755,-4.586 21.53943,-9.58789 32.34552,-14.19336 0,0 0.20832,0.0445 0.0902,0.76758 -12.833,19.51574 -26.67297,38.18499 -44.83282,53.20984 -2.31592,1.91619 -3.72168,4.18023 -1.47882,6.7987 2.25738,2.63538 4.77508,1.5213 6.98236,-0.42181 3.2442,-2.85584 6.5918,-5.61102 9.66028,-8.64667 17.02319,-16.84058 30.57275,-36.34814 43.44903,-56.40692 2.23279,-3.47833 5.55567,-6.44409 8.86866,-9.0091 12.87109,-9.96533 26.15386,-19.40838 38.84967,-29.58679 6.56457,-5.263 12.21905,-11.66119 18.24615,-17.60052 0,0 -0.0393,-0.0534 0.24237,0.73273 -0.52484,2.08734 -0.88,4.23528 -1.60083,6.25262 -7.08838,19.83893 -14.22644,39.66016 -21.38153,59.47522 -1.08264,2.99823 -2.8089,6.04162 2.17523,8.15271 1.21417,-0.52295 2.42835,-1.0459 4.20258,-1.9906 11.28509,-25.12647 19.97687,-51.17719 27.16803,-77.71851 2.33001,-8.59961 5.53027,-16.50097 10.40405,-24.03937 4.85315,-7.50671 8.92255,-15.64544 12.37909,-23.90722 12.24097,-29.25812 14.62427,-59.30005 5.42743,-89.86392 -1.27008,-4.22071 -1.25458,-7.83442 0.036,-11.89966 1.07959,-3.40033 1.37457,-7.04975 2.62433,-10.86002 0.0859,-0.42648 0.17181,-0.853 0.54181,-2.04605 0.70648,-5.37503 1.41296,-10.75009 2.40027,-16.7059 0.0136,-0.85172 0.0273,-1.70343 0.35894,-2.93479 0.27368,-0.0339 0.68824,-0.19195 0.79108,-0.0753 0.19971,0.22647 0.2511,0.60184 0.31744,0.92505 6.01191,29.25302 8.51459,58.75784 4.26795,88.41427 -1.08765,7.59552 0.47003,12.01593 6.07745,17.21643 19.24585,17.84931 35.34595,38.50568 50.47901,59.90577 0.98474,1.39257 1.99322,2.76843 3.62915,5.03766 0.29644,-2.30854 0.46844,-3.26166 0.53485,-4.22205 1.19494,-17.28375 2.44104,-34.56427 3.54791,-51.8537 1.99548,-31.16547 1.16284,-62.28311 -1.94489,-93.34155 -0.20025,-2.00086 -0.80816,-4.61164 -2.19903,-5.74482 -20.3407,-16.57171 -41.48779,-31.90185 -66.43335,-41.03329 -1.14667,-0.41974 -2.39722,-0.55582 -4.13226,-0.94284 1.8731,7.81058 3.59918,15.00821 5.41943,22.59872 -6.65637,-2.76074 -8.44257,-1.55316 -9.11999,5.16346 -0.48414,4.79965 -0.94202,9.62716 -1.8678,14.35287 -6.4679,33.01496 -22.67981,61.29773 -42.85639,87.62207 -0.2315,0.30206 -0.80468,0.34216 -1.2948,0.53442 0,-2.14868 0,-4.12982 0.27118,-6.58172 0.0169,-0.5329 0.0339,-1.06574 0.3031,-2.4986 -0.0851,-15.36279 -0.17022,-30.72564 -0.1286,-46.70706 -0.15826,-0.81653 -0.31647,-1.63303 -0.39129,-3.32385 -2.47486,-15.03403 -4.94971,-30.06809 -7.42212,-45.73187 -0.25263,-0.30481 -0.50525,-0.60962 -0.55549,-1.64985 -3.02978,-11.02316 -5.87579,-22.10202 -9.18835,-33.03952 -1.16962,-3.86206 -1.08881,-7.07629 0.29059,-10.93133 4.57147,-12.77591 8.58734,-25.75058 13.17322,-39.07996 0.0933,-0.54474 0.18664,-1.08944 0.59381,-2.36346 M 466.40188,410.9587 c 17.93213,-20.69684 34.73401,-42.24347 50.22736,-65.40571 -4.3612,-0.91525 -7.75598,-1.70285 -11.17944,-2.33502 -71.57444,-13.21741 -143.84949,-19.98816 -216.48667,-23.29834 -2.20352,-0.10037 -5.23114,1.20417 -6.64532,2.88678 -41.93326,49.89432 -82.8927,100.59808 -120.00832,154.19538 -17.61094,25.43127 -33.05411,52.36627 -49.32905,78.71295 -0.88532,1.4331 -1.25428,4.63421 -0.38364,5.46917 5.89323,5.65131 8.82269,12.7818 11.46201,20.22712 3.07338,8.66974 6.44726,17.46081 13.60669,23.56274 13.00862,11.08697 27.44918,19.59113 45.16499,20.27478 3.13124,0.12085 6.77516,-0.37195 9.40523,-1.91009 24.4407,-14.29395 48.99017,-28.43354 72.97927,-43.4621 74.6988,-46.79669 142.53382,-101.86322 201.18689,-168.91766 m 15.78211,-270.23113 c -14.69537,6.68846 -29.39075,13.37691 -44.97727,20.47096 1.89167,0.89649 2.47358,1.2168 3.08692,1.45654 26.85257,10.49695 53.3154,21.79169 77.67325,37.47556 1.27484,0.82092 3.12298,1.06946 4.69958,1.05557 20.30927,-0.17883 40.61737,-0.54303 60.92658,-0.61142 3.16076,-0.0106 4.42944,-1.0877 5.17901,-3.92813 1.86804,-7.07849 4.20172,-14.04077 5.89337,-21.1579 4.39917,-18.50842 8.13251,-37.12237 5.45624,-56.32203 -0.93249,-6.68933 -2.89215,-12.98262 -7.59772,-18.13315 -2.73223,-2.990633 -5.41223,-3.979283 -9.61529,-2.211113 -33.28662,14.003313 -66.68146,27.749363 -100.72467,41.905113 m 152.53033,-13.61699 c 0.78528,1.07573 1.58954,2.13812 2.35297,3.22916 13.88086,19.83816 25.20728,40.89926 28.6203,65.21148 0.81555,5.80939 3.03436,6.95224 8.16864,7.78199 25.77942,4.16617 51.47833,8.8305 77.20728,13.30951 1.21752,0.21194 2.4522,0.32556 3.67889,0.48495 0.47028,-0.35883 0.94055,-0.71768 1.41083,-1.07651 -7.64276,-16.94452 -14.15863,-34.51574 -23.1615,-50.70382 -19.07135,-34.29227 -47.09619,-60.93775 -77.22766,-85.441273 -1.47718,-1.20124 -4.44965,-1.56542 -6.38349,-1.04573 -16.21386,4.35719 -32.34912,9.00761 -48.49707,13.60788 -0.3764,0.1072 -0.62567,0.66046 -0.86352,0.92653 14.30621,8.175263 24.40197,20.536683 34.69433,33.715833 m 94.22882,92.78879 c -20.46814,-3.3443 -40.93634,-6.68857 -61.6939,-10.08017 -0.74628,4.77222 -1.43885,8.50879 -1.84357,12.2763 -0.10083,0.93903 0.54242,2.11411 1.15808,2.94883 4.23023,5.73526 9.05548,11.09805 12.73798,17.15872 12.76257,21.00442 22.23938,43.55502 29.80261,66.88351 1.84076,5.67768 4.21814,8.97922 10.50958,10.95249 22.52692,7.0654 41.81091,20.24597 60.45978,34.36297 1.67889,1.27094 3.38275,2.50901 5.98968,4.43985 -0.73455,-5.83841 -1.27868,-10.55658 -1.92779,-15.26025 -5.24121,-37.98322 -13.11182,-75.39676 -24.18317,-112.12738 -0.96234,-3.19284 -2.41443,-5.10797 -5.85907,-5.81891 -8.1427,-1.6806 -16.21619,-3.69684 -25.15021,-5.73596 m 118.14563,183.6897 c 0.96479,-8.43448 2.48658,-16.84849 2.79737,-25.30701 1.3125,-35.72327 -0.92224,-71.22916 -7.9306,-106.33792 -0.41535,-2.08087 -2.18848,-4.60846 -4.03742,-5.57578 -21.53082,-11.26391 -43.19421,-22.2745 -64.83667,-33.32446 -1.36023,-0.69449 -2.83801,-1.15878 -4.44214,-1.80283 0,0.96701 -0.0755,1.30713 0.0106,1.59964 12.5426,42.59119 20.96466,85.9986 25.94855,130.10129 0.20038,1.77271 1.33777,3.73294 2.61456,5.04566 14.49481,14.90289 29.10565,29.69299 43.67255,44.52584 1.24157,1.26429 2.39093,2.61908 4.37182,4.80024 0.67975,-5.03638 1.20594,-8.93439 1.83136,-13.72467 M 505.60599,210.12028 c -2.15418,0.19639 -4.34137,0.2175 -6.45765,0.61533 -33.66711,6.32892 -67.3356,12.65155 -100.97656,19.11722 -6.93558,1.33304 -13.76071,3.24072 -21.78204,5.15716 2.02911,1.11042 2.82614,1.63901 3.69159,2.00657 19.68158,8.35937 38.12036,18.94201 55.83642,30.87207 1.88773,1.27121 4.56357,1.80188 6.90686,1.90213 34.07697,1.4577 68.16645,2.63617 102.23725,4.2178 12.44409,0.57767 12.42712,0.98123 17.60419,-10.4664 1.02844,-2.27402 1.87615,-4.64819 3.09893,-6.81125 1.55524,-2.75095 1.21887,-4.69888 -1.25866,-6.84115 -12.96424,-11.20969 -25.96192,-22.39106 -38.60523,-33.95685 -5.72113,-5.23358 -11.74029,-7.78351 -20.2951,-5.81263 m -129.92661,70.12351 c -19.27499,1.34717 -38.55548,2.62466 -57.81619,4.15179 -1.8757,0.14872 -4.07315,1.43949 -5.36447,2.879 -6.33942,7.06699 -12.43674,14.35181 -18.57645,21.59619 -0.65491,0.77277 -1.02911,1.78342 -1.80106,3.16129 70.02665,3.45645 139.09907,9.73376 208.55704,22.34744 -1.39465,-1.77859 -1.99475,-2.72732 -2.76807,-3.50339 -18.13812,-18.20037 -37.23046,-35.31466 -58.16165,-50.2651 -2.22772,-1.59116 -5.4617,-2.59958 -8.19272,-2.52649 -18.31338,0.49011 -36.617,1.34634 -55.87643,2.15927 m 459.92679,201.91968 c 2.58893,-16.78388 5.25079,-33.55731 7.66388,-50.36646 0.26709,-1.86017 -0.26972,-4.48627 -1.47479,-5.80774 -13.68415,-15.00665 -27.5608,-29.83795 -41.42597,-44.67874 -1.00207,-1.0726 -2.31647,-1.85339 -3.99511,-3.16922 0,2.01959 -0.0848,3.02005 0.0122,4.00257 4.30725,43.62951 2.28577,87.23834 -1.88006,130.68389 -1.42395,14.85041 -0.96381,27.89655 8.34985,40.16004 4.03595,5.31415 6.38006,11.91321 9.96906,18.84918 11.66094,-29.26288 17.14648,-59.04218 22.78094,-89.67352 M 192.83252,331.38796 c 19.9162,-16.44401 39.83227,-32.88816 59.74899,-49.33149 0.89941,-0.74258 2.26785,-1.30896 2.61124,-2.25131 0.70733,-1.9411 0.86865,-4.08118 1.25464,-6.13937 -2.20804,-0.0787 -4.41837,-0.23951 -6.62241,-0.17694 -0.5347,0.0151 -1.06024,0.75213 -1.57025,1.18081 -29.33576,24.65662 -58.66809,49.31729 -88.00914,73.96769 -0.92899,0.78042 -1.9449,1.45745 -3.99336,2.98068 1.15034,-7.65546 1.99678,-14.05924 3.11604,-20.41495 0.56737,-3.22183 0.97346,-6.35196 -3.14056,-7.01791 -3.7605,-0.60877 -4.7123,2.29739 -5.11246,5.33877 -1.19454,9.07861 -2.21974,18.18454 -3.68239,27.2197 -0.41507,2.56393 -1.53294,5.46734 -3.28732,7.29446 -36.71468,38.23694 -69.889758,79.1662 -96.196788,125.38086 -0.21034,0.36951 -0.72698,0.5647 -1.80623,1.36359 -3.85823,-15.07074 -7.60875,-29.69782 -11.34361,-44.32886 -0.75923,-2.97412 -1.38706,-6.36511 -5.547031,-5.51343 -4.233887,0.86676 -3.547921,4.28192 -2.75499,7.23187 4.495084,16.72327 9.183811,33.39527 13.535911,50.15503 0.64502,2.48395 0.59631,5.65705 -0.39085,7.97492 -7.5993,17.84308 -13.833629,36.07031 -16.975925,55.27063 -0.496803,3.03558 -0.552826,6.03351 3.191429,6.6784 3.763527,0.64832 4.403019,-2.27227 5.230369,-5.22436 4.305307,-15.36194 8.796717,-30.67206 13.289147,-45.9809 0.39099,-1.33239 1.25978,-2.52459 1.59366,-3.17358 7.97546,8.05548 15.36729,16.453 23.74073,23.7193 8.52864,7.401 18.01628,13.6983 27.10408,20.45178 1.06504,0.7915 2.26464,1.99561 3.388778,1.98132 1.90294,-0.0242 4.40854,-0.33105 5.48035,-1.55371 0.73398,-0.83734 -0.12363,-3.68213 -1.03172,-5.16174 -0.79099,-1.28876 -2.65783,-1.90985 -4.03473,-2.84735 C 83.765462,538.9872 67.553952,526.8196 55.129612,510.28865 c -3.556,-4.73132 -5.08755,-9.04993 -1.10607,-14.30737 1.88741,-2.49225 2.94976,-5.59198 4.56832,-8.3078 23.65237,-39.68781 52.146508,-75.67304 83.650948,-109.35953 2.01607,-2.1557 3.72194,-4.6015 5.51424,-6.84009 4.33471,7.10187 7.1747,13.72843 11.73767,18.80689 8.65979,9.63803 18.28734,18.40884 27.55762,27.49429 2.13815,2.09552 4.72967,3.8938 7.31457,0.97766 2.75723,-3.1106 0.4357,-5.3631 -1.92633,-7.5274 -6.63229,-6.07718 -13.31593,-12.10865 -19.72319,-18.41825 -6.70221,-6.6 -12.16173,-14.09158 -15.41028,-23.08941 -1.28554,-3.56067 -1.02568,-6.05326 2.05757,-8.70987 11.10561,-9.56885 21.97116,-19.41629 33.46784,-29.61981 m -70.83698,265.40753 c -5.69311,-9.1709 -5.94928,-21.1637 -14.7991,-29.32337 -0.76592,1.14655 -1.33417,1.74994 -1.62332,2.46607 -7.531158,18.65246 -15.241978,37.2373 -22.384778,56.03784 -1.65854,4.36548 -1.98879,9.49145 -1.84824,14.23547 0.38474,12.98505 9.40691,22.2605 22.323758,21.92078 7.11274,-0.18707 14.59717,-1.83844 21.14118,-4.6369 11.75593,-5.02729 22.93394,-11.40766 34.34439,-17.2403 4.69833,-2.40167 9.37332,-4.84906 14.79768,-7.6582 -2.33871,-0.60108 -3.80521,-0.86737 -5.19563,-1.35199 -18.87869,-6.57923 -36.30181,-15.17328 -46.75594,-34.4494 M 456.90439,177.92043 c -7.88697,-3.141 -15.81827,-6.17688 -23.63834,-9.47641 -2.98965,-1.26142 -4.99686,-0.99155 -7.44095,1.41238 -17.45245,17.16541 -35.08896,34.14355 -52.63464,51.21442 -2.41568,2.35031 -4.65344,4.88348 -6.97354,7.332 45.96902,-10.12885 91.35458,-21.16831 139.29049,-26.4682 -16.06817,-9.74955 -31.91455,-16.87223 -48.60302,-24.01419 M 651.68368,66.328667 c 2.72992,2.97965 6.02387,3.37261 9.95362,2.96628 13.90985,-1.43831 27.85077,-2.59129 41.79095,-3.71545 6.41889,-0.51763 12.86328,-0.71782 20.84619,-1.14485 -4.11609,-3.30556 -7.03027,-5.69815 -9.99884,-8.02138 -19.888,-15.56459 -41.31708,-28.61325 -64.25482,-39.16784 -4.37414,-2.01274 -9.07257,-4.66323 -13.8017,-1.95313 -10.18603,5.83742 -20.08282,12.17978 -30.22119,18.39096 15.61347,11.15062 30.3501,21.675 45.68579,32.64541 M 494.99478,316.83556 c 5.75891,5.78372 11.53717,11.5484 17.27112,17.35681 5.1228,5.18933 8.94037,5.04571 12.47589,-1.0072 9.06811,-15.52512 17.9469,-31.16092 26.86413,-46.77375 0.61475,-1.07626 0.92188,-2.32818 1.52839,-3.905 -34.15509,-2.81945 -67.79499,-4.94393 -101.86359,-4.57647 14.85657,13.20144 29.03979,25.80453 43.72406,38.90561 M 418.2359,270.32869 c 1.57248,-0.10367 3.14493,-0.20734 5.44275,-0.35883 -1.00434,-0.95224 -1.38825,-1.45047 -1.88681,-1.76944 -17.84796,-11.41806 -36.56253,-21.13684 -56.44885,-28.50583 -4.99332,-1.85028 -9.56275,-0.57586 -13.12189,3.25779 -9.16739,9.87439 -18.18646,19.88665 -27.23233,29.87326 -0.67746,0.74789 -1.09732,1.72912 -1.60959,2.55768 31.55749,-1.67667 62.7728,-3.33515 94.85672,-5.05463 M 635.03073,63.789947 c -10.89441,-7.36066 -21.7569,-14.76967 -32.72443,-22.01972 -1.34485,-0.88899 -3.86859,-1.84317 -4.8023,-1.21525 -7.94629,5.34393 -15.651,11.04718 -22.7334,16.14291 6.54089,8.80446 12.89184,16.91251 18.69202,25.39711 2.06036,3.01396 3.6596,3.19722 6.86572,2.2078 13.82446,-4.26635 27.75757,-8.18064 41.64276,-12.25138 0.68597,-0.20109 1.29382,-0.66855 2.3927,-1.2543 -3.19916,-2.41005 -5.97455,-4.50084 -9.33307,-7.00717 M 544.72055,208.38759 c -4.39679,0.21057 -8.79358,0.42111 -14.07465,0.67401 13.78479,12.13248 26.8097,23.59622 40.46308,35.6131 4.61267,-11.99207 9.09698,-23.65021 13.95923,-36.29117 -13.89643,0 -26.63288,0 -40.34766,0.004 M 574.46853,69.372527 c -1.75146,-1.7726 -3.35009,-3.74944 -5.32318,-5.22595 -0.89801,-0.67203 -2.94226,-0.95206 -3.77215,-0.38808 -4.9195,3.34344 -9.63532,6.98656 -14.65509,10.70329 8.49579,4.9327 16.73321,9.23656 24.42706,14.35706 4.8299,3.21446 8.4386,2.02814 13.04974,-1.17482 -4.53485,-6.0734 -8.89337,-11.91062 -13.72638,-18.2715 m -35.38427,-16.71079 c -8.08203,-0.73738 -16.10718,-0.76112 -25.29395,1.79892 9.54285,5.51522 17.99219,10.44892 26.51807,15.24677 0.83819,0.47168 2.46411,0.56518 3.1842,0.0617 5.25629,-3.67561 10.37439,-7.5489 15.53614,-11.35975 -0.0779,-0.52085 -0.15589,-1.0417 -0.23383,-1.56255 -6.27338,-1.34651 -12.54669,-2.69304 -19.71063,-4.18506 M 305.73971,255.09599 c -2.50787,-2.43149 -4.7499,-5.27405 -7.62695,-7.13461 -1.63113,-1.05487 -4.30341,-0.49979 -6.5068,-0.6698 0.13842,2.07404 -0.55552,4.98743 0.55123,6.08496 6.84116,6.78406 14.03873,13.21399 21.22843,19.63791 2.20959,1.97427 5.26837,2.72769 6.77383,-0.28696 0.73661,-1.475 -0.30371,-4.76358 -1.64849,-6.17502 -3.7703,-3.95727 -8.11729,-7.36511 -12.77125,-11.45648 z"
   id="path42"
   style="stroke:#a0302a;stroke-width:15;stroke-miterlimit:4;stroke-dasharray:none;stroke-opacity:1" />
<path
   fill="#eaea4e"
   opacity="1"
   stroke="none"
   d="m 466.1716,411.22768 c -58.42279,66.78546 -126.25781,121.85199 -200.95661,168.64868 -23.9891,15.02856 -48.53857,29.16815 -72.97927,43.4621 -2.63007,1.53814 -6.27399,2.03094 -9.40523,1.91009 -17.71581,-0.68365 -32.15637,-9.18781 -45.16499,-20.27478 -7.15943,-6.10193 -10.53331,-14.893 -13.60669,-23.56274 -2.63932,-7.44532 -5.56878,-14.57581 -11.46201,-20.22712 -0.87064,-0.83496 -0.50168,-4.03607 0.38364,-5.46917 16.27494,-26.34668 31.71811,-53.28168 49.32905,-78.71295 37.11562,-53.5973 78.07506,-104.30106 120.00832,-154.19538 1.41418,-1.68261 4.4418,-2.98715 6.64532,-2.88678 72.63718,3.31018 144.91223,10.08093 216.48667,23.29834 3.42346,0.63217 6.81824,1.41977 11.17944,2.33502 -15.49335,23.16224 -32.29523,44.70887 -50.45764,65.67469 z"
   id="path44" />
<path
   fill="#eae94e"
   opacity="1"
   stroke="none"
   d="m 667.2554,238.24724 c -1.67224,9.07293 -3.34442,18.14584 -5.3678,27.68875 -0.4339,1.08813 -0.51672,1.7063 -0.59949,2.32443 -4.22906,12.89844 -8.24493,25.87311 -12.8164,38.64902 -1.3794,3.85504 -1.46021,7.06927 -0.29059,10.93133 3.31256,10.9375 6.15857,22.01636 9.20355,33.66846 0.18946,0.96948 0.36359,1.31009 0.53778,1.65067 2.47492,15.03402 4.94977,30.06808 7.23151,45.75332 0.0238,1.53122 0.24072,2.41126 0.45764,3.29126 0.0851,15.3628 0.17023,30.72565 -0.0372,46.66352 -0.28894,1.18145 -0.28534,1.7879 -0.28174,2.39428 6e-5,1.98114 6e-5,3.96228 6e-5,6.11096 0.49012,-0.19226 1.0633,-0.23236 1.2948,-0.53442 20.17658,-26.32434 36.38849,-54.60711 42.85639,-87.62207 0.92578,-4.72571 1.38366,-9.55322 1.8678,-14.35287 0.67742,-6.71662 2.46362,-7.9242 9.11999,-5.16346 -1.82025,-7.59051 -3.54633,-14.78814 -5.41943,-22.59872 1.73504,0.38702 2.98559,0.5231 4.13226,0.94284 24.94556,9.13144 46.09265,24.46158 66.43335,41.03329 1.39087,1.13318 1.99878,3.74396 2.19903,5.74482 3.10773,31.05844 3.94037,62.17608 1.94489,93.34155 -1.10687,17.28943 -2.35297,34.56995 -3.54791,51.8537 -0.0664,0.96039 -0.23841,1.91351 -0.53485,4.22205 -1.63593,-2.26923 -2.64441,-3.64509 -3.62915,-5.03766 -15.13306,-21.40009 -31.23316,-42.05646 -50.47901,-59.90577 -5.60742,-5.2005 -7.1651,-9.62091 -6.07745,-17.21643 4.24664,-29.65643 1.74396,-59.16125 -4.26795,-88.41427 -0.0663,-0.32321 -0.11773,-0.69858 -0.31744,-0.92505 -0.10284,-0.1167 -0.5174,0.0414 -1.16681,0.4238 -0.33856,1.28802 -0.30133,2.22751 -0.2641,3.16702 -0.70642,5.37503 -1.4129,10.75009 -2.41095,16.76407 -0.48022,0.98541 -0.66894,1.33181 -0.8576,1.67825 -0.6424,3.53912 -0.93738,7.18854 -2.01697,10.58887 -1.29059,4.06524 -1.30609,7.67895 -0.036,11.89966 9.19684,30.56387 6.81354,60.6058 -5.42743,89.86392 -3.45654,8.26178 -7.52594,16.40051 -12.37909,23.90722 -4.87378,7.5384 -8.07404,15.43976 -10.40405,24.03937 -7.19116,26.54132 -15.88294,52.59204 -27.81757,77.94617 -1.78534,0.62433 -2.92108,1.02106 -4.05688,1.41785 -4.48029,-1.766 -2.75403,-4.80939 -1.67139,-7.80762 7.15509,-19.81506 14.29315,-39.63629 21.38153,-59.47522 0.72083,-2.01734 1.07599,-4.16528 1.60919,-6.57312 -0.0651,-0.33313 -0.13867,-0.3457 -0.21215,-0.35828 -6.06568,5.88538 -11.72016,12.28357 -18.28473,17.54657 -12.69581,10.17841 -25.97858,19.62146 -38.84967,29.58679 -3.31299,2.56501 -6.63587,5.53077 -8.86866,9.0091 -12.87628,20.05878 -26.42584,39.56634 -43.44903,56.40692 -3.06848,3.03565 -6.41608,5.79083 -9.66028,8.64667 -2.20728,1.94311 -4.72498,3.05719 -6.98236,0.42181 -2.24286,-2.61847 -0.8371,-4.88251 1.47882,-6.7987 18.15985,-15.02485 31.99982,-33.6941 45.04614,-53.64045 0.36469,-0.68347 0.51599,-0.9364 0.6673,-1.18927 -0.3385,0.21466 -0.67706,0.42932 -1.01563,0.64399 -10.76129,4.81378 -21.44317,9.81567 -32.30072,14.40167 -21.71179,9.17035 -44.43927,14.76288 -67.58862,18.88586 -2.90185,0.51685 -5.93469,2.07105 -8.22253,3.9693 -13.2262,10.97492 -26.8692,21.26044 -42.72309,28.23548 -3.34183,1.47027 -6.48681,2.26849 -7.70221,-2.94092 0.67832,-1.39191 1.0813,-2.24951 1.48432,-3.10706 10.05145,-6.01099 20.12121,-11.99188 30.13739,-18.06097 1.79229,-1.08606 3.36334,-2.53723 6.23736,-4.74024 -4.51257,0.39759 -7.50561,0.66132 -11.09289,0.76654 -1.17078,0.0418 -1.74738,0.24195 -2.32398,0.44214 -5.68267,0.56946 -11.36535,1.13892 -17.65991,1.53748 -1.18701,-0.0167 -1.76215,0.13757 -2.33728,0.29181 -4.3219,0.34784 -8.6438,0.69568 -13.69751,0.77997 -2.25537,-0.004 -3.77887,0.25506 -5.3024,0.5144 -4.67944,0.18298 -9.35889,0.36603 -14.81058,0.31604 -2.90994,-0.0666 -5.0476,0.0997 -7.18527,0.26611 -16.35696,-0.13983 -32.71396,-0.27966 -49.73514,-0.75116 -2.24453,-0.2716 -3.82479,-0.21161 -5.40509,-0.15155 -5.32171,-0.23913 -10.6434,-0.47827 -16.54785,-1.0133 -1.17651,-0.25257 -1.77029,-0.20935 -2.36407,-0.16614 -3.01801,-0.11731 -6.03604,-0.23456 -9.62696,-0.62775 -1.20285,-0.24219 -1.83282,-0.20849 -2.46279,-0.17486 -9.99906,-0.86341 -19.99814,-1.72681 -30.55082,-2.89386 -1.15835,-0.29694 -1.76306,-0.29029 -2.36776,-0.28363 -4.36624,-0.43 -8.73249,-0.85993 -13.66629,-1.62842 -1.48389,-0.36408 -2.40021,-0.38971 -3.31653,-0.41528 -8.74677,-1.11939 -17.51514,-2.10425 -26.21735,-3.50129 -1.32904,-0.21331 -3.00851,-2.19378 -3.30963,-3.61462 -0.24243,-1.14423 1.0553,-3.07605 2.2084,-3.93646 1.40332,-1.04718 3.36472,-1.35675 5.09595,-1.95282 54.75873,-18.85266 107.78455,-41.64746 158.50879,-69.67725 1.44742,-0.7998 2.86401,-1.65527 4.96503,-2.87323 -2.24378,-2.1167 -4.21335,-3.99768 -6.20758,-5.85205 -8.90576,-8.28131 -17.82654,-16.54639 -26.72339,-24.83722 -2.34259,-2.18298 -5.27838,-4.56042 -2.02664,-7.86151 2.92181,-2.96613 5.41534,-0.53674 7.68036,1.56983 10.73501,9.98431 21.54129,19.89343 32.1672,29.99236 2.22662,2.11628 3.80176,2.19281 6.38794,0.62983 48.7258,-29.44867 93.18265,-64.29151 133.14957,-104.86115 2.29669,-2.3313 3.21582,-4.60791 1.67389,-7.52112 -5.82807,-11.01092 -11.1709,-22.32843 -17.72974,-32.88882 -6.48804,-10.44623 -14.19324,-20.1398 -21.43597,-30.11166 -1.88434,-2.59449 -3.72699,-5.24692 -0.36518,-7.73572 3.15985,-2.33924 5.20111,0.12417 6.97577,2.48056 15.04004,19.9703 30.09662,39.93118 39.85498,63.2327 0.17731,0.42346 0.55744,0.76196 1.75714,2.35095 0.9408,-1.53186 1.55042,-2.96936 2.53766,-4.06733 28.56165,-31.7655 53.04187,-66.28128 71.50757,-104.94937 2.25024,-4.71209 2.23877,-8.41601 -0.0514,-13.009 -12.22241,-24.51169 -29.75391,-44.88455 -49.06873,-63.91629 -0.94879,-0.93491 -1.92083,-1.84628 -3.11505,-3.34561 -0.79504,-1.33734 -1.35718,-2.09772 -1.91931,-2.85806 1.20117,-5.33655 4.05914,-6.25394 8.22656,-2.30149 19.77234,18.75263 37.51471,39.14847 50.59882,63.26087 0.70392,1.29721 1.48047,2.55499 2.8421,4.8945 2.65747,-7.53531 5.50745,-14.05353 7.24066,-20.85626 3.60773,-14.1601 6.7016,-28.45389 9.83197,-42.73102 0.82874,-3.77988 1.94648,-6.48426 6.79102,-4.24954 0.60791,2.13382 0.97174,3.58526 1.33557,5.03671 M 525.96475,582.2729 c -0.42438,0.0324 -0.84881,0.0648 -1.98596,0.28998 -6.11402,2.97425 -12.08081,6.31281 -18.36975,8.85413 -18.42096,7.44397 -36.97034,14.57049 -55.72376,21.77081 -0.27368,0.0138 -0.48761,0.13727 -1.2434,0.76575 -18.82392,4.44592 -37.6478,8.89184 -56.82532,13.11712 -0.5636,0.2298 -1.1272,0.4596 -2.50083,0.97516 -12.0328,1.43939 -24.06561,2.87879 -36.69061,3.97895 -2.02328,0.13787 -4.04657,0.27569 -6.06982,0.41357 0.0405,0.56726 0.0811,1.13458 0.12158,1.70184 2.20389,0 4.40777,0 7.5191,-0.15271 27.29639,-0.30365 54.59278,-0.60736 82.21518,-0.67279 0.57614,-0.14019 1.15225,-0.28039 2.6016,-0.7207 3.65243,-0.25793 7.3049,-0.51587 11.30319,-0.48663 0.60803,-0.1781 1.21612,-0.35621 2.69879,-0.74915 4.68493,-0.43927 9.36993,-0.87848 14.40344,-1.08008 0.57471,-0.20977 1.14941,-0.41949 2.57111,-0.88177 3.70367,-0.42829 7.40728,-0.85651 11.45868,-1.06305 0.565,-0.21234 1.13,-0.42468 2.41162,-0.91791 1.48767,-0.62671 3.30365,-0.90082 4.41308,-1.93378 13.7461,-12.7987 26.50202,-26.48651 37.50446,-42.32299 0.26837,-0.20008 0.53674,-0.40015 0.6012,-0.62549 0,0 0.0948,-0.2154 0.0948,-0.2154 0,0 0.0355,0.33118 -0.50836,-0.0449 m 173.3181,-159.77858 c 0.27233,-0.0959 0.54467,-0.19177 0.98712,-0.5882 -0.0817,-0.26587 -0.16327,-0.53168 -0.24494,-0.79754 -0.30633,0.3374 -0.61267,0.6748 -0.74218,1.38574 m -74.922,150.46618 c 0,0 0.15759,-0.41534 0.78784,-0.65905 10.87964,-8.9422 22.38068,-17.24115 32.47669,-26.99451 11.78625,-11.38617 24.89764,-22.30499 27.89666,-40.64062 0.1919,-0.3487 0.38379,-0.69733 0.22406,-1.75892 3.60633,-18.56756 7.21265,-37.13507 11.16907,-55.93811 0.027,-0.60748 0.054,-1.21502 0.0355,-2.67444 0.84186,-6.55828 1.68378,-13.11657 2.52564,-19.6748 -1.88489,0.84912 -2.56977,1.93646 -3.28473,3.00366 -8.14337,12.15522 -15.62122,24.836 -24.65515,36.28919 -6.94007,8.7987 -11.88782,17.89929 -14.95459,28.70837 -7.83942,27.63043 -19.90753,53.60303 -33.49799,79.51819 -0.17084,0.36413 -0.34167,0.72827 -0.81293,1.34643 0.0494,0.38447 0.0988,0.76899 0.14808,1.15345 0.58496,-0.42529 1.16992,-0.85059 1.94183,-1.67884 m 85.54879,-157.43164 c -0.25702,-0.17688 -0.49762,-0.14862 -0.69837,0.86835 -1.59704,11.01862 -3.03814,22.06274 -4.83044,33.0495 -2.2713,13.92371 -4.82807,27.80078 -7.48194,41.83264 0.0441,-0.0679 0.0883,-0.1358 0.82019,-0.35705 3.91938,-11.57306 7.83869,-23.14612 12.12397,-34.95746 0.0137,-0.62281 0.0275,-1.24555 0.028,-2.72156 0.072,-12.49817 0.14398,-24.9964 0.0386,-37.71442 M 359.41751,624.29024 c 0.57446,-0.19117 1.14892,-0.38233 2.3447,-0.93878 22.32107,-15.86274 36.2908,-37.35346 43.81826,-64.86475 -47.6221,26.14886 -96.031,47.50269 -146.07489,65.79834 -0.0458,0.36145 0.10742,0.61566 1.27478,0.62805 3.78254,0.27228 7.56504,0.54456 11.76578,1.26911 1.54752,-0.0438 3.095,-0.0875 5.56848,-0.23633 17.66071,0.0531 35.32141,0.10626 53.46973,0.48425 1.18432,-0.18774 2.36868,-0.37549 4.45325,-0.82428 7.6792,-0.5177 15.35842,-1.03534 23.37991,-1.31561 m 142.9585,-0.8114 c -0.0599,0.37066 -0.11982,0.74133 -0.17975,1.112 0.64331,-0.15039 1.28668,-0.30079 2.71801,-0.83716 33.69147,-6.43231 65.11139,-18.92884 95.06946,-35.41358 4.23194,-2.32861 7.33722,-5.2782 9.7453,-9.53222 15.63312,-27.61719 28.70606,-56.34815 38.36273,-86.6615 -0.12603,-0.1789 -0.25726,-0.3432 -0.95672,0.14367 -29.82843,30.62812 -63.55896,56.21228 -100.36225,77.86286 -2.3142,1.36139 -4.46795,3.48315 -5.91729,5.74945 -10.99573,17.19299 -23.67523,33.00189 -38.47949,47.57648 m -88.91254,-64.06922 c -0.0666,0.61182 -0.13318,1.22357 -0.22073,2.61981 -5.95472,22.66571 -17.08628,42.26484 -34.77756,58.33881 -0.16635,0.24323 -0.33267,0.48645 -0.49902,0.72968 0.37506,0.0716 0.75009,0.14331 1.86395,0.0745 0.7481,-0.0394 1.49621,-0.0789 2.69134,0.18426 0.87186,-0.29828 1.74372,-0.59661 3.41217,-1.14788 51.67426,-8.2815 100.00788,-26.09143 145.64685,-51.41156 3.388,-1.87964 6.52918,-5.1449 8.47229,-8.52149 7.48316,-13.0036 10.86542,-27.44726 13.86945,-42.30859 0.0209,-0.60846 0.0419,-1.21692 3.7e-4,-2.70117 0.53002,-5.35413 1.06005,-10.70832 2.08044,-16.46387 -0.0376,-1.56848 -0.0753,-3.13696 -0.27808,-5.61762 0.003,-6.66082 0.006,-13.32165 0.41101,-20.34784 -0.20501,-1.2149 -0.41003,-2.42987 -0.78692,-4.53772 -0.0913,-3.02667 -0.18262,-6.05334 -0.0455,-9.39892 -0.12244,-0.56958 -0.24488,-1.13922 -0.68171,-2.55975 -0.35699,-3.19648 -0.71404,-6.39295 -1.15301,-10.32276 -1.78168,1.63709 -2.89783,2.59693 -3.9408,3.63056 -38.6828,38.33422 -81.35626,71.54718 -128.10757,99.46905 -4.15405,2.48096 -7.0647,5.19592 -7.957,10.29254 m 149.95691,-64.01288 c 0.10486,0.60285 0.20965,1.20563 0.41284,2.64557 -1.02649,8.71601 -2.05298,17.43207 -3.43945,26.37384 -0.0487,0.60743 -0.0974,1.21491 -0.11585,2.62934 -2.56878,9.71032 -5.13757,19.42065 -7.77246,29.38067 1.04102,-0.49841 1.97376,-0.83807 2.79584,-1.35394 31.02948,-19.4707 59.55035,-42.03387 85.34967,-68.11359 8.41681,-8.5083 15.71832,-17.09704 16.28406,-29.99475 0.0151,-0.60815 0.0302,-1.21624 -0.0201,-2.71026 0.54156,-6.68341 1.08312,-13.36683 2.15386,-20.55335 -0.15112,-4.83655 -0.30224,-9.67303 -0.6712,-15.41925 -0.45795,-7.68017 -0.91589,-15.36029 -1.14258,-23.37729 -0.17633,-0.57147 -0.35266,-1.14294 -0.82977,-2.55005 -0.62231,-4.44561 -0.9458,-8.95782 -1.91913,-13.32519 -4.00964,-17.99094 -8.21661,-35.9379 -12.54364,-54.29666 -0.61157,0.14911 -1.2232,0.29824 -1.93249,1.16494 -0.92688,1.95041 -1.80866,3.92377 -2.7873,5.84787 -17.67852,34.7558 -40.05944,66.29032 -66.29443,95.02112 -6.51153,7.13104 -11.52087,13.8172 -8.64417,23.88623 0.0424,0.14869 -0.0255,0.32892 -0.28173,0.82123 0.14386,0.57672 0.28772,1.1535 0.7348,2.61115 0.27814,5.03527 0.55621,10.07061 0.44928,15.40509 0.1748,0.90527 0.34967,1.8106 0.70862,3.63635 -0.051,7.35486 -0.10193,14.70978 -0.49463,22.27093 z"
   id="path46" />
<path
   fill="#eae94e"
   opacity="1"
   stroke="none"
   d="m 837.64004,256.91466 c -21.69262,-10.98331 -43.25085,-22.24683 -65.17059,-32.75644 -5.60693,-2.68826 -8.8125,-5.82385 -10.5459,-11.75791 -15.15814,-51.89129 -46.88879,-92.49372 -87.22821,-127.155503 -2.87591,-2.47117 -5.7251,-4.97354 -9.66992,-8.40317 9.51611,-0.90676 17.70715,-1.86239 25.92499,-2.42898 12.13135,-0.83644 24.28888,-1.29215 36.4198,-2.13307 3.95733,-0.27431 6.88476,0.85916 9.78912,3.60998 40.05841,37.940903 69.19977,83.037723 87.88519,134.822513 5.24372,14.53235 8.91547,29.63187 13.12751,45.10227 -0.29785,0.78744 -0.41492,0.94388 -0.53199,1.10031 z"
   id="path48" />
<path
   fill="#eae94e"
   opacity="1"
   stroke="none"
   d="m 482.52481,140.56224 c 33.70239,-13.99042 67.09723,-27.73647 100.38385,-41.739783 4.20306,-1.76817 6.88306,-0.77952 9.61529,2.211113 4.70557,5.15053 6.66523,11.44382 7.59772,18.13315 2.67627,19.19966 -1.05707,37.81361 -5.45624,56.32203 -1.69165,7.11713 -4.02533,14.07941 -5.89337,21.1579 -0.74957,2.84043 -2.01825,3.91748 -5.17901,3.92813 -20.30921,0.0684 -40.61731,0.43259 -60.92658,0.61142 -1.5766,0.0139 -3.42474,-0.23465 -4.69958,-1.05557 -24.35785,-15.68387 -50.82068,-26.97861 -77.67325,-37.47556 -0.61334,-0.23974 -1.19525,-0.56005 -3.08692,-1.45654 15.58652,-7.09405 30.2819,-13.7825 45.31809,-20.63629 z"
   id="path50" />
<path
   fill="#eae94e"
   opacity="1"
   stroke="none"
   d="m 634.49563,126.82663 c -10.07367,-12.8952 -20.16943,-25.25662 -34.47564,-33.431883 0.23785,-0.26607 0.48712,-0.81933 0.86352,-0.92653 16.14795,-4.60027 32.28321,-9.25069 48.49707,-13.60788 1.93384,-0.51969 4.90631,-0.15551 6.38349,1.04573 30.13147,24.503523 58.15631,51.149003 77.22766,85.441273 9.00287,16.18808 15.51874,33.7593 23.1615,50.70382 -0.47028,0.35883 -0.94055,0.71768 -1.41083,1.07651 -1.22669,-0.15939 -2.46137,-0.27301 -3.67889,-0.48495 -25.72895,-4.47901 -51.42786,-9.14334 -77.20728,-13.30951 -5.13428,-0.82975 -7.35309,-1.9726 -8.16864,-7.78199 -3.41302,-24.31222 -14.73944,-45.37332 -28.6203,-65.21148 -0.76343,-1.09104 -1.56769,-2.15343 -2.57166,-3.51311 z"
   id="path52" />
<path
   fill="#eae94e"
   opacity="1"
   stroke="none"
   d="m 729.3594,219.97865 c 8.51776,1.95984 16.59125,3.97608 24.73395,5.65668 3.44464,0.71094 4.89673,2.62607 5.85907,5.81891 11.07135,36.73062 18.94196,74.14416 24.18317,112.12738 0.64911,4.70367 1.19324,9.42184 1.92779,15.26025 -2.60693,-1.93084 -4.31079,-3.16891 -5.98968,-4.43985 -18.64887,-14.117 -37.93286,-27.29757 -60.45978,-34.36297 -6.29144,-1.97327 -8.66882,-5.27481 -10.50958,-10.95249 -7.56323,-23.32849 -17.04004,-45.87909 -29.80261,-66.88351 -3.6825,-6.06067 -8.50775,-11.42346 -12.73798,-17.15872 -0.61566,-0.83472 -1.25891,-2.0098 -1.15808,-2.94883 0.40472,-3.76751 1.09729,-7.50408 1.84357,-12.2763 20.75756,3.3916 41.22576,6.73587 62.11016,10.15945 z"
   id="path54" />
<path
   fill="#eae94e"
   opacity="1"
   stroke="none"
   d="m 847.03909,404.0352 c -0.57574,4.34415 -1.10193,8.24216 -1.78168,13.27854 -1.98089,-2.18116 -3.13025,-3.53595 -4.37182,-4.80024 -14.5669,-14.83285 -29.17774,-29.62295 -43.67255,-44.52584 -1.27679,-1.31272 -2.41418,-3.27295 -2.61456,-5.04566 -4.98389,-44.10269 -13.40595,-87.5101 -25.94855,-130.10129 -0.0861,-0.29251 -0.0106,-0.63263 -0.0106,-1.59964 1.60413,0.64405 3.08191,1.10834 4.44214,1.80283 21.64246,11.04996 43.30585,22.06055 64.83667,33.32446 1.84894,0.96732 3.62207,3.49491 4.03742,5.57578 7.00836,35.10876 9.2431,70.61465 7.9306,106.33792 -0.31079,8.45852 -1.83258,16.87253 -2.84705,25.75314 z"
   id="path56" />
<path
   fill="#eae94e"
   opacity="1"
   stroke="none"
   d="m 506.06564,210.10002 c 8.09516,-1.95062 14.11432,0.59931 19.83545,5.83289 12.64331,11.56579 25.64099,22.74716 38.60523,33.95685 2.47753,2.14227 2.8139,4.0902 1.25866,6.84115 -1.22278,2.16306 -2.07049,4.53723 -3.09893,6.81125 -5.17707,11.44763 -5.1601,11.04407 -17.60419,10.4664 -34.0708,-1.58163 -68.16028,-2.7601 -102.23725,-4.2178 -2.34329,-0.10025 -5.01913,-0.63092 -6.90686,-1.90213 -17.71606,-11.93006 -36.15484,-22.5127 -55.83642,-30.87207 -0.86545,-0.36756 -1.66248,-0.89615 -3.69159,-2.00657 8.02133,-1.91644 14.84646,-3.82412 21.78204,-5.15716 33.64096,-6.46567 67.30945,-12.7883 100.97656,-19.11722 2.11628,-0.39783 4.30347,-0.41894 6.9173,-0.63559 z"
   id="path58" />
<path
   fill="#eae94e"
   opacity="1"
   stroke="none"
   d="m 376.15573,280.20607 c 18.78308,-0.77521 37.0867,-1.63144 55.40008,-2.12155 2.73102,-0.0731 5.965,0.93533 8.19272,2.52649 20.93119,14.95044 40.02353,32.06473 58.16165,50.2651 0.77332,0.77607 1.37342,1.7248 2.76807,3.50339 -69.45797,-12.61368 -138.53039,-18.89099 -208.55704,-22.34744 0.77195,-1.37787 1.14615,-2.38852 1.80106,-3.16129 6.13971,-7.24438 12.23703,-14.5292 18.57645,-21.59619 1.29132,-1.43951 3.48877,-2.73028 5.36447,-2.879 19.26071,-1.52713 38.5412,-2.80462 58.29254,-4.18951 z"
   id="path60" />
<path
   fill="#eae84e"
   opacity="1"
   stroke="none"
   d="m 835.51578,482.5854 c -5.54407,30.20941 -11.02961,59.98871 -22.69055,89.25159 -3.589,-6.93597 -5.93311,-13.53503 -9.96906,-18.84918 -9.31366,-12.26349 -9.7738,-25.30963 -8.34985,-40.16004 4.16583,-43.44555 6.18731,-87.05438 1.88006,-130.68389 -0.097,-0.98252 -0.0122,-1.98298 -0.0122,-4.00257 1.67864,1.31583 2.99304,2.09662 3.99511,3.16922 13.86517,14.84079 27.74182,29.67209 41.42597,44.67874 1.20507,1.32147 1.74188,3.94757 1.47479,5.80774 -2.41309,16.80915 -5.07495,33.58258 -7.75427,50.78839 z"
   id="path62" />
<path
   fill="#e9e54d"
   opacity="1"
   stroke="none"
   d="m 192.56228,331.61861 c -11.22644,9.97287 -22.09199,19.82031 -33.1976,29.38916 -3.08325,2.65661 -3.34311,5.1492 -2.05757,8.70987 3.24855,8.99783 8.70807,16.48941 15.41028,23.08941 6.40726,6.3096 13.0909,12.34107 19.72319,18.41825 2.36203,2.1643 4.68356,4.4168 1.92633,7.5274 -2.5849,2.91614 -5.17642,1.11786 -7.31457,-0.97766 -9.27028,-9.08545 -18.89783,-17.85626 -27.55762,-27.49429 -4.56297,-5.07846 -7.40296,-11.70502 -11.73767,-18.80689 -1.7923,2.23859 -3.49817,4.68439 -5.51424,6.84009 -31.50444,33.68649 -59.998578,69.67172 -83.650948,109.35953 -1.61856,2.71582 -2.68091,5.81555 -4.56832,8.3078 -3.98148,5.25744 -2.44993,9.57605 1.10607,14.30737 12.42434,16.53095 28.63585,28.69855 45.488508,40.17322 1.3769,0.9375 3.24374,1.55859 4.03473,2.84735 0.90809,1.47961 1.7657,4.3244 1.03172,5.16174 -1.07181,1.22266 -3.57741,1.52954 -5.48035,1.55371 -1.124138,0.0143 -2.323738,-1.18982 -3.388778,-1.98132 -9.0878,-6.75348 -18.57544,-13.05078 -27.10408,-20.45178 -8.37344,-7.2663 -15.76527,-15.66382 -23.74073,-23.7193 -0.33388,0.64899 -1.20267,1.84119 -1.59366,3.17358 -4.49243,15.30884 -8.98384,30.61896 -13.289147,45.9809 -0.82735,2.95209 -1.466842,5.87268 -5.230369,5.22436 -3.744255,-0.64489 -3.688232,-3.64282 -3.191429,-6.6784 3.142296,-19.20032 9.376625,-37.42755 16.975925,-55.27063 0.98716,-2.31787 1.03587,-5.49097 0.39085,-7.97492 -4.3521,-16.75976 -9.040827,-33.43176 -13.535911,-50.15503 -0.792931,-2.94995 -1.478897,-6.36511 2.75499,-7.23187 4.159971,-0.85168 4.787801,2.53931 5.547031,5.51343 3.73486,14.63104 7.48538,29.25812 11.34361,44.32886 1.07925,-0.79889 1.59589,-0.99408 1.80623,-1.36359 26.30703,-46.21466 59.482108,-87.14392 96.196788,-125.38086 1.75438,-1.82712 2.87225,-4.73053 3.28732,-7.29446 1.46265,-9.03516 2.48785,-18.14109 3.68239,-27.2197 0.40016,-3.04138 1.35196,-5.94754 5.11246,-5.33877 4.11402,0.66595 3.70793,3.79608 3.14056,7.01791 -1.11926,6.35571 -1.9657,12.75949 -3.11604,20.41495 2.04846,-1.52323 3.06437,-2.20026 3.99336,-2.98068 29.34105,-24.6504 58.67338,-49.31107 88.00914,-73.96769 0.51001,-0.42868 1.03555,-1.16568 1.57025,-1.18081 2.20404,-0.0626 4.41437,0.0982 6.62241,0.17694 -0.38599,2.05819 -0.54731,4.19827 -1.25464,6.13937 -0.34339,0.94235 -1.71183,1.50873 -2.61124,2.25131 -19.91672,16.44333 -39.83279,32.88748 -60.01923,49.56214 z"
   id="path64" />
<path
   fill="#eae94e"
   opacity="1"
   stroke="none"
   d="m 122.1604,597.12679 c 10.28927,18.94482 27.71239,27.53887 46.59108,34.1181 1.39042,0.48462 2.85692,0.75091 5.19563,1.35199 -5.42436,2.80914 -10.09935,5.25653 -14.79768,7.6582 -11.41045,5.83264 -22.58846,12.21301 -34.34439,17.2403 -6.54401,2.79846 -14.02844,4.44983 -21.14118,4.6369 -12.916848,0.33972 -21.939018,-8.93573 -22.323758,-21.92078 -0.14055,-4.74402 0.1897,-9.86999 1.84824,-14.23547 7.1428,-18.80054 14.85362,-37.38538 22.384778,-56.03784 0.28915,-0.71613 0.8574,-1.31952 1.62332,-2.46607 8.84982,8.15967 9.10599,20.15247 14.96396,29.65467 z"
   id="path66" />
<path
   fill="#eae84e"
   opacity="1"
   stroke="none"
   d="m 457.26175,178.05556 c 16.33111,7.00683 32.17749,14.12951 48.24566,23.87906 -47.93591,5.29989 -93.32147,16.33935 -139.29049,26.4682 2.3201,-2.44852 4.55786,-4.98169 6.97354,-7.332 17.54568,-17.07087 35.18219,-34.04901 52.63464,-51.21442 2.44409,-2.40393 4.4513,-2.6738 7.44095,-1.41238 7.82007,3.29953 15.75137,6.33541 23.9957,9.61154 z"
   id="path68" />
<path
   fill="#eae84e"
   opacity="1"
   stroke="none"
   d="m 651.38412,66.105647 c -15.03613,-10.74739 -29.77276,-21.27177 -45.38623,-32.42239 10.13837,-6.21118 20.03516,-12.55354 30.22119,-18.39096 4.72913,-2.7101 9.42756,-0.0596 13.8017,1.95313 22.93774,10.55459 44.36682,23.60325 64.25482,39.16784 2.96857,2.32323 5.88275,4.71582 9.99884,8.02138 -7.98291,0.42703 -14.4273,0.62722 -20.84619,1.14485 -13.94018,1.12416 -27.8811,2.27714 -41.79095,3.71545 -3.92975,0.40633 -7.2237,0.0134 -10.25318,-3.1893 z"
   id="path70" />
<path
   fill="#eae94e"
   opacity="1"
   stroke="none"
   d="m 494.74429,316.58656 c -14.43378,-12.85208 -28.617,-25.45517 -43.47357,-38.65661 34.0686,-0.36746 67.7085,1.75702 101.86359,4.57647 -0.60651,1.57682 -0.91364,2.82874 -1.52839,3.905 -8.91723,15.61283 -17.79602,31.24863 -26.86413,46.77375 -3.53552,6.05291 -7.35309,6.19653 -12.47589,1.0072 -5.73395,-5.80841 -11.51221,-11.57309 -17.52161,-17.60581 z"
   id="path72" />
<path
   fill="#eae84e"
   opacity="1"
   stroke="none"
   d="m 417.80157,270.35921 c -31.64959,1.68896 -62.8649,3.34744 -94.42239,5.02411 0.51227,-0.82856 0.93213,-1.80979 1.60959,-2.55768 9.04587,-9.98661 18.06494,-19.99887 27.23233,-29.87326 3.55914,-3.83365 8.12857,-5.10807 13.12189,-3.25779 19.88632,7.36899 38.60089,17.08777 56.44885,28.50583 0.49856,0.31897 0.88247,0.8172 1.88681,1.76944 -2.29782,0.15149 -3.87027,0.25516 -5.87708,0.38935 z"
   id="path74" />
<path
   fill="#eae84e"
   opacity="1"
   stroke="none"
   d="m 635.3223,63.997727 c 3.06695,2.29855 5.84234,4.38934 9.0415,6.79939 -1.09888,0.58575 -1.70673,1.05321 -2.3927,1.2543 -13.88519,4.07074 -27.8183,7.98503 -41.64276,12.25138 -3.20612,0.98942 -4.80536,0.80616 -6.86572,-2.2078 -5.80018,-8.4846 -12.15113,-16.59265 -18.69202,-25.39711 7.0824,-5.09573 14.78711,-10.79898 22.7334,-16.14291 0.93371,-0.62792 3.45745,0.32626 4.8023,1.21525 10.96753,7.25005 21.83002,14.65906 33.016,22.2275 z"
   id="path76" />
<path
   fill="#e9e64d"
   opacity="1"
   stroke="none"
   d="m 468.82077,136.82745 c 23.94,-18.28175 47.86365,-36.58517 71.87433,-54.773593 1.06518,-0.80682 3.25976,-1.24643 4.35968,-0.70401 8.1803,4.03412 16.21679,8.35987 25.18499,13.05863 -34.12139,14.622983 -67.14947,28.777453 -100.67028,42.824233 -0.49268,-0.10766 -0.74872,-0.40526 -0.74872,-0.40526 z"
   id="path78" />
<path
   fill="#e9e74e"
   opacity="1"
   stroke="none"
   d="m 545.20975,208.38557 c 13.22558,-0.002 25.96203,-0.002 39.85846,-0.002 -4.86225,12.64096 -9.34656,24.2991 -13.95923,36.29117 -13.65338,-12.01688 -26.67829,-23.48062 -40.46308,-35.6131 5.28107,-0.2529 9.67786,-0.46344 14.56385,-0.67603 z"
   id="path80" />
<path
   fill="#e9e64d"
   opacity="1"
   stroke="none"
   d="m 574.70578,69.634407 c 4.59576,6.09906 8.95428,11.93628 13.48913,18.00968 -4.61114,3.20296 -8.21984,4.38928 -13.04974,1.17482 -7.69385,-5.1205 -15.93127,-9.42436 -24.42706,-14.35706 5.01977,-3.71673 9.73559,-7.35985 14.65509,-10.70329 0.82989,-0.56398 2.87414,-0.28395 3.77215,0.38808 1.97309,1.47651 3.57172,3.45335 5.56043,5.48777 z"
   id="path82" />
<path
   fill="#e9e54d"
   opacity="1"
   stroke="none"
   d="m 539.52957,52.734557 c 6.71863,1.41926 12.99194,2.76579 19.26532,4.1123 0.0779,0.52085 0.15588,1.0417 0.23383,1.56255 -5.16175,3.81085 -10.27985,7.68414 -15.53614,11.35975 -0.72009,0.50351 -2.34601,0.41001 -3.1842,-0.0617 -8.52588,-4.79785 -16.97522,-9.73155 -26.51807,-15.24677 9.18677,-2.56004 17.21192,-2.5363 25.73926,-1.72616 z"
   id="path84" />
<path
   fill="#e9e54d"
   opacity="1"
   stroke="none"
   d="m 306.00693,255.32936 c 4.38674,3.858 8.73373,7.26584 12.50403,11.22311 1.34478,1.41144 2.3851,4.70002 1.64849,6.17502 -1.50546,3.01465 -4.56424,2.26123 -6.77383,0.28696 -7.1897,-6.42392 -14.38727,-12.85385 -21.22843,-19.63791 -1.10675,-1.09753 -0.41281,-4.01092 -0.5512,-6.08496 2.20336,0.17001 4.87564,-0.38507 6.50677,0.6698 2.87705,1.86056 5.11908,4.70312 7.89417,7.36798 z"
   id="path86" />
<path
   fill="#e9e54e"
   opacity="1"
   stroke="none"
   d="m 400.46847,642.48421 c 1.80091,-0.23682 3.93857,-0.40314 6.38697,-0.39264 -1.80957,0.27221 -3.92987,0.36767 -6.38697,0.39264 z"
   id="path88" />
<path
   fill="#e9e54e"
   opacity="1"
   stroke="none"
   d="m 422.49557,641.9012 c 1.15552,-0.32892 2.67902,-0.58826 4.48035,-0.65588 -1.18558,0.36969 -2.64896,0.5476 -4.48035,0.65588 z"
   id="path90" />
<path
   fill="#e9e54e"
   opacity="1"
   stroke="none"
   d="m 345.33307,641.65718 c 1.23871,-0.20618 2.81897,-0.26617 4.60153,-0.0792 -1.28516,0.23974 -2.77255,0.2326 -4.60153,0.0792 z"
   id="path92" />
<path
   fill="#e9e54e"
   opacity="1"
   stroke="none"
   d="m 667.40335,237.96071 c -0.51178,-1.16492 -0.87561,-2.61636 -1.2403,-4.45423 0.46228,1.13166 0.9253,2.64969 1.2403,4.45423 z"
   id="path94" />
<path
   fill="#e9e54e"
   opacity="1"
   stroke="none"
   d="m 654.2825,614.60951 c 0.88385,-0.56933 2.01959,-0.96606 3.5249,-1.37957 -0.84466,0.50622 -2.05884,1.02917 -3.5249,1.37957 z"
   id="path96" />
<path
   fill="#e9e54e"
   opacity="1"
   stroke="none"
   d="m 264.36807,634.45296 c 0.63666,-0.11957 1.55298,-0.0939 2.61884,0.14581 -0.68003,0.14252 -1.50962,0.0709 -2.61884,-0.14581 z"
   id="path98" />
<path
   fill="#e9e54e"
   opacity="1"
   stroke="none"
   d="m 665.67496,401.89516 c -0.28028,-0.57068 -0.4972,-1.45072 -0.56275,-2.5448 0.30969,0.60247 0.4679,1.41897 0.56275,2.5448 z"
   id="path100" />
<path
   fill="#e9e54e"
   opacity="1"
   stroke="none"
   d="m 719.57754,356.04121 c -0.17767,-0.64913 -0.2149,-1.58862 -0.0354,-2.68682 0.20313,0.69299 0.18946,1.5447 0.0354,2.68682 z"
   id="path102" />
<path
   fill="#e9e54e"
   opacity="1"
   stroke="none"
   d="m 580.38895,235.49293 c 0.56188,0.46088 1.12402,1.22126 1.73657,2.27564 -0.54517,-0.46271 -1.14069,-1.21945 -1.73657,-2.27564 z"
   id="path104" />
<path
   fill="#e9e54e"
   opacity="1"
   stroke="none"
   d="m 437.88809,660.41457 c -0.12433,0.74347 -0.52731,1.60107 -1.17065,2.62286 0.13708,-0.72675 0.51455,-1.6178 1.17065,-2.62286 z"
   id="path106" />
<path
   fill="#e9e54e"
   opacity="1"
   stroke="none"
   d="m 461.39224,638.75227 c 0.30902,-0.2445 0.88562,-0.4447 1.63544,-0.52588 -0.34046,0.26947 -0.85413,0.41987 -1.63544,0.52588 z"
   id="path108" />
<path
   fill="#e9e54e"
   opacity="1"
   stroke="none"
   d="m 281.3081,636.48054 c 0.36783,-0.13568 0.97254,-0.14233 1.7031,0.0155 -0.40485,0.14746 -0.93552,0.13043 -1.7031,-0.0155 z"
   id="path110" />
<path
   fill="#e9e54e"
   opacity="1"
   stroke="none"
   d="m 314.23852,639.65694 c 0.38126,-0.16156 1.01123,-0.19526 1.77085,-0.0525 -0.42096,0.17767 -0.97156,0.17901 -1.77085,0.0525 z"
   id="path112" />
<path
   fill="#e9e54e"
   opacity="1"
   stroke="none"
   d="m 326.31705,640.45406 c 0.35629,-0.16565 0.95007,-0.20887 1.68023,-0.10559 -0.38998,0.17376 -0.91635,0.20092 -1.68023,0.10559 z"
   id="path114" />
<path
   fill="#e9e54e"
   opacity="1"
   stroke="none"
   d="m 661.46652,268.04494 c -0.0956,-0.40265 -0.0128,-1.02082 0.2641,-1.7443 0.10095,0.4394 0.008,0.9841 -0.2641,1.7443 z"
   id="path116" />
<path
   fill="#e9e54e"
   opacity="1"
   stroke="none"
   d="m 441.38745,640.5995 c 0.31515,-0.21649 0.89029,-0.37072 1.63083,-0.4071 -0.34668,0.23505 -0.85877,0.35217 -1.63083,0.4071 z"
   id="path118" />
<path
   fill="#e9e54e"
   opacity="1"
   stroke="none"
   d="m 665.42825,451.02693 c -0.13922,-0.37103 -0.14282,-0.97748 0.02,-1.70898 0.14948,0.40783 0.13251,0.94067 -0.02,1.70898 z"
   id="path120" />
<path
   fill="#e9e64d"
   opacity="1"
   stroke="none"
   d="m 469.20498,137.27376 c -0.40429,0.25061 -0.93676,0.35249 -1.46923,0.45439 0.21283,-0.23633 0.42572,-0.47264 0.86181,-0.80483 0.22321,-0.0959 0.47925,0.20173 0.60742,0.35044 z"
   id="path122" />
<path
   fill="#e9e54e"
   opacity="1"
   stroke="none"
   d="m 657.92373,352.84502 c -0.17547,-0.0257 -0.3496,-0.36631 -0.64025,-0.96811 0.13623,0.0436 0.38885,0.34842 0.64025,0.96811 z"
   id="path124" />
<path
   fill="#e9e54e"
   opacity="1"
   stroke="none"
   d="m 716.4722,374.63832 c -0.11499,-0.21085 0.0737,-0.55725 0.41192,-1.15936 0.0636,0.1708 -0.0223,0.59732 -0.41192,1.15936 z"
   id="path126" />
<path
   fill="#eae94e"
   opacity="1"
   stroke="none"
   d="m 838.17386,256.21608 c 0.0734,0.11762 -0.0359,0.46448 -0.33948,0.75494 -0.0773,-0.21279 0.0398,-0.36923 0.33948,-0.75494 z"
   id="path128" />
<path
   fill="#9f2f2a"
   opacity="1"
   stroke="none"
   d="m 560.75369,524.19038 c 1.02655,-8.716 2.05304,-17.43206 3.1015,-26.89917 -0.0164,-1.20105 -0.0548,-1.65087 -0.0931,-2.10076 0.051,-7.35486 0.10193,-14.70978 0.13391,-22.90168 -0.11413,-1.59088 -0.20934,-2.34472 -0.30456,-3.09851 -0.27814,-5.03528 -0.55621,-10.07062 -0.90875,-15.80249 -0.18982,-1.21155 -0.30524,-1.72644 -0.4206,-2.24139 0.0164,-0.16547 0.0843,-0.3457 0.0419,-0.49439 -2.8767,-10.06903 2.13264,-16.75519 8.64417,-23.88623 26.23499,-28.7308 48.61591,-60.26532 66.29443,-95.02112 0.97864,-1.9241 1.86042,-3.89746 3.16742,-6.32672 0.83503,-0.41604 1.28998,-0.35327 1.74494,-0.29046 4.13446,17.96313 8.34143,35.91009 12.35107,53.90103 0.97333,4.36737 1.29682,8.87958 2.01141,14.00436 0.23023,1.18872 0.36823,1.69821 0.50623,2.20773 0.45795,7.68015 0.91589,15.36027 1.39453,23.95438 0.0543,5.61212 0.0879,10.31024 0.1214,15.00842 -0.54163,6.68341 -1.08319,13.36683 -1.73016,20.72663 -0.14374,1.20892 -0.18219,1.74151 -0.22058,2.27405 -0.21961,12.65753 -7.52112,21.24627 -15.93793,29.75457 -25.79932,26.07972 -54.32019,48.64289 -85.34967,68.11359 -0.82208,0.51587 -1.75482,0.85553 -2.79584,1.35394 2.63489,-9.96002 5.20368,-19.67035 7.90161,-30.01385 0.20166,-1.16278 0.27411,-1.69232 0.34662,-2.22193 z"
   id="path130" />
<path
   fill="#9f2f2a"
   opacity="1"
   stroke="none"
   d="m 555.0751,459.21889 c 0.0913,3.02667 0.18262,6.05334 0.30396,9.92804 0.13855,1.91705 0.24701,2.98608 0.35553,4.05505 -0.003,6.66083 -0.006,13.32166 -0.0757,20.77606 -0.0927,2.27088 -0.11938,3.74817 -0.14611,5.22547 -0.5301,5.35412 -1.06013,10.70831 -1.7013,16.73169 -0.1535,1.20282 -0.1958,1.73645 -0.23804,2.27002 -2.65521,14.62323 -6.03747,29.06689 -13.52063,42.07049 -1.94311,3.37659 -5.08429,6.64185 -8.47229,8.52149 -45.63897,25.32013 -93.97259,43.13006 -146.36242,51.49932 -1.52497,0.31098 -2.33429,0.53425 -3.14362,0.75751 -0.74811,0.0394 -1.49622,0.0789 -2.73773,-0.0771 -0.51248,-0.39001 -0.53159,-0.58459 -0.55069,-0.77917 17.37045,-15.90344 28.50201,-35.50257 34.63595,-58.77887 0.25806,-1.14923 0.33689,-1.68787 0.41568,-2.2265 0.51813,-4.87934 3.42878,-7.5943 7.58283,-10.07526 46.75131,-27.92187 89.42477,-61.13483 128.10757,-99.46905 1.04297,-1.03363 2.15912,-1.99347 3.9408,-3.63056 0.43897,3.92981 0.79602,7.12628 1.24853,11.0025 0.18293,1.1861 0.27033,1.69251 0.35773,2.19892 z"
   id="path132" />
<path
   fill="#a02f2a"
   opacity="1"
   stroke="none"
   d="m 648.173,492.23579 c -9.73791,30.22394 -22.81085,58.9549 -38.44397,86.57209 -2.40808,4.25402 -5.51336,7.20361 -9.7453,9.53222 -29.95807,16.48474 -61.37799,28.98127 -95.85138,35.44129 -0.99951,-0.15039 -1.21704,-0.32843 -1.43463,-0.50641 14.48255,-14.37073 27.16205,-30.17963 38.15778,-47.37262 1.44934,-2.2663 3.60309,-4.38806 5.91729,-5.74945 36.80329,-21.65058 70.53382,-47.23474 100.74262,-78.01929 0.38037,-0.15649 0.65759,0.10217 0.65759,0.10217 z"
   id="path134" />
<path
   fill="#a0302a"
   opacity="1"
   stroke="none"
   d="m 259.6503,623.98561 c 49.89917,-17.99621 98.30807,-39.35004 145.93017,-65.4989 -7.52746,27.51129 -21.49719,49.00201 -44.39489,65.00897 -1.08786,0.2818 -1.59909,0.41944 -2.11036,0.55713 -7.6792,0.5177 -15.35842,1.03534 -23.82043,1.59998 -1.90787,0.18206 -3.03296,0.31726 -4.15805,0.45251 -17.66071,-0.0532 -35.32141,-0.10632 -53.79398,-0.20703 -2.2662,-0.0879 -3.72052,-0.12817 -5.17483,-0.16846 -3.78253,-0.27215 -7.56503,-0.54443 -11.79303,-1.02789 -0.52518,-0.37958 -0.60489,-0.54791 -0.6846,-0.71631 z"
   id="path136" />
<path
   fill="#a0302b"
   opacity="1"
   stroke="none"
   d="m 623.45023,571.65901 c 13.22412,-25.43475 25.29223,-51.40735 33.13165,-79.03778 3.06677,-10.80908 8.01452,-19.90967 14.95459,-28.70837 9.03393,-11.45319 16.51178,-24.13397 24.65515,-36.28919 0.71496,-1.0672 1.39984,-2.15454 3.28473,-3.00366 -0.84186,6.55823 -1.68378,13.11652 -2.64588,20.33099 -0.16864,1.18866 -0.21704,1.7212 -0.26544,2.25373 -3.60626,18.56756 -7.21258,37.13507 -10.95007,56.19464 -0.21979,0.92175 -0.30841,1.35156 -0.39697,1.78131 -2.69495,17.82123 -15.80634,28.74005 -27.59259,40.12622 -10.09601,9.75336 -21.59705,18.05231 -33.05591,26.89117 -0.75922,-0.24853 -0.93927,-0.39379 -1.11926,-0.53906 z"
   id="path138" />
<path
   fill="#a0312b"
   opacity="1"
   stroke="none"
   d="m 449.97012,631.82014 c -3.65246,0.258 -7.30493,0.51594 -11.65265,0.85828 -1.20764,0.18903 -1.71997,0.29352 -2.23233,0.39801 -27.29638,0.30371 -54.59277,0.60742 -82.4429,0.70111 -0.51083,-0.61114 -0.46789,-1.01233 -0.42493,-1.41351 12.03281,-1.43939 24.06562,-2.87879 36.77121,-4.43512 1.17575,-0.29047 1.67871,-0.46399 2.18167,-0.63751 18.82389,-4.44599 37.64777,-8.89191 57.0141,-13.56617 0.54242,-0.22833 0.95539,-0.48681 0.95539,-0.48681 18.49902,-7.25092 37.0484,-14.37744 55.46936,-21.82141 6.28894,-2.54132 12.25573,-5.87988 18.8789,-8.69611 0.61719,0.32294 0.72535,0.48786 0.83344,0.65283 -10.54669,15.6214 -23.30261,29.30921 -37.04871,42.10791 -1.10943,1.03296 -2.92541,1.30707 -5.03784,2.04047 -1.12805,0.26764 -1.63128,0.42859 -2.13458,0.58954 -3.70368,0.42822 -7.40729,0.85644 -11.80329,1.36743 -1.20397,0.24231 -1.71569,0.40186 -2.22735,0.5614 -4.68494,0.43927 -9.36994,0.87848 -14.76715,1.3656 -1.25232,0.16992 -1.7923,0.29199 -2.33234,0.41406 z"
   id="path140" />
<path
   fill="#a4392d"
   opacity="1"
   stroke="none"
   d="m 709.47708,456.20308 c -3.91931,11.57306 -7.83862,23.14612 -12.08093,34.81445 -0.32294,0.0953 -0.27698,0.12714 -0.27698,0.12714 2.43359,-13.89722 4.99036,-27.77429 7.26166,-41.698 1.7923,-10.98676 3.2334,-22.03088 5.04669,-33.42621 0.21619,-0.37671 0.65948,-0.27179 0.65948,-0.27179 -0.072,12.49817 -0.14398,24.9964 -0.35772,38.15485 -0.17853,1.20672 -0.2154,1.75317 -0.2522,2.29956 z"
   id="path142" />
<path
   fill="#e9e54e"
   opacity="1"
   stroke="none"
   d="m 658.80423,433.95186 c -0.2981,-4.44666 -0.33167,-9.14478 -0.27698,-14.30206 0.23926,4.37744 0.39038,9.21392 0.27698,14.30206 z"
   id="path144" />
<path
   fill="#e9e54e"
   opacity="1"
   stroke="none"
   d="m 352.9212,632.19441 c 0.25315,0.5708 0.21021,0.97199 0.26731,1.65949 -2.10386,0.28631 -4.30774,0.28631 -6.51163,0.28631 -0.0405,-0.56726 -0.0811,-1.13458 -0.12158,-1.70184 2.02325,-0.13788 4.04654,-0.2757 6.3659,-0.24396 z"
   id="path146" />
<path
   fill="#e9e54e"
   opacity="1"
   stroke="none"
   d="m 555.75784,499.00276 c -0.21838,-1.27655 -0.19171,-2.75384 -0.0164,-4.5686 0.18628,1.23096 0.22394,2.79944 0.0164,4.5686 z"
   id="path148" />
<path
   fill="#e9e54e"
   opacity="1"
   stroke="none"
   d="m 272.33704,625.95601 c 1.2452,-0.18591 2.69952,-0.14563 4.50271,-0.005 -1.19861,0.14392 -2.74609,0.18762 -4.50271,0.005 z"
   id="path150" />
<path
   fill="#e9e54e"
   opacity="1"
   stroke="none"
   d="m 555.93527,473.0193 c -0.3092,-0.88629 -0.41766,-1.95532 -0.47027,-3.42584 0.26092,0.81329 0.46594,2.02826 0.47027,3.42584 z"
   id="path152" />
<path
   fill="#e9e54e"
   opacity="1"
   stroke="none"
   d="m 331.34054,626.26772 c 0.88129,-0.29767 2.00638,-0.43287 3.46415,-0.48444 -0.85166,0.27136 -2.03602,0.45911 -3.46415,0.48444 z"
   id="path154" />
<path
   fill="#e9e54e"
   opacity="1"
   stroke="none"
   d="m 563.39895,469.33986 c 0.28773,0.60419 0.38294,1.35803 0.40503,2.48865 -0.24792,-0.52845 -0.42279,-1.43378 -0.40503,-2.48865 z"
   id="path156" />
<path
   fill="#e9e54e"
   opacity="1"
   stroke="none"
   d="m 502.53689,623.37691 c 0.37842,0.076 0.59595,0.25409 1.20142,0.59747 -0.25537,0.31567 -0.89874,0.46607 -1.54205,0.61646 0.0599,-0.37067 0.11987,-0.74134 0.34063,-1.21393 z"
   id="path158" />
<path
   fill="#e9e54e"
   opacity="1"
   stroke="none"
   d="m 382.29794,621.20534 c 0.58582,-0.37457 1.39514,-0.59784 2.52179,-0.78229 -0.55456,0.33698 -1.42642,0.63531 -2.52179,0.78229 z"
   id="path160" />
<path
   fill="#e9e54e"
   opacity="1"
   stroke="none"
   d="m 624.17392,573.36342 c -0.58496,0.42529 -1.16992,0.85059 -1.75488,1.27588 -0.0493,-0.38446 -0.0987,-0.76898 0.40069,-1.22235 0.81726,-0.0637 1.08576,-0.0586 1.35419,-0.0535 z"
   id="path162" />
<path
   fill="#e9e54e"
   opacity="1"
   stroke="none"
   d="m 642.05875,324.92964 c -0.35871,0.13501 -0.81366,0.0722 -1.59986,0.12952 0.28034,-0.0291 0.89197,-0.17822 1.59986,-0.12952 z"
   id="path164" />
<path
   fill="#e9e54e"
   opacity="1"
   stroke="none"
   d="m 436.24814,633.19557 c 0.34936,-0.22363 0.86169,-0.32812 1.63275,-0.36712 -0.31748,0.20587 -0.89359,0.34607 -1.63275,0.36712 z"
   id="path166" />
<path
   fill="#e9e54e"
   opacity="1"
   stroke="none"
   d="m 450.14304,631.96376 c 0.36712,-0.26569 0.9071,-0.38776 1.7221,-0.45026 -0.33307,0.23767 -0.94116,0.41578 -1.7221,0.45026 z"
   id="path168" />
<path
   fill="#e9e54e"
   opacity="1"
   stroke="none"
   d="m 657.13931,395.07216 c -0.2536,-0.3411 -0.3916,-0.85059 -0.47143,-1.62146 0.23443,0.31009 0.41076,0.88156 0.47143,1.62146 z"
   id="path170" />
<path
   fill="#e9e54e"
   opacity="1"
   stroke="none"
   d="m 467.24393,630.15932 c 0.33734,-0.27838 0.84906,-0.43793 1.62951,-0.55396 -0.30585,0.2533 -0.88055,0.46302 -1.62951,0.55396 z"
   id="path172" />
<path
   fill="#e9e54e"
   opacity="1"
   stroke="none"
   d="m 391.99338,627.18105 c -0.32615,0.28387 -0.82911,0.45739 -1.59986,0.60498 0.29584,-0.25574 0.85944,-0.48554 1.59986,-0.60498 z"
   id="path174" />
<path
   fill="#e9e54e"
   opacity="1"
   stroke="none"
   d="m 696.74014,447.08699 c -0.12671,-0.41479 -0.0783,-0.94733 0.11304,-1.71008 0.11597,0.37732 0.089,0.98486 -0.11304,1.71008 z"
   id="path176" />
<path
   fill="#e9e54e"
   opacity="1"
   stroke="none"
   d="m 699.10611,422.1208 c 0.30627,-0.33746 0.61261,-0.67486 0.91894,-1.01226 0.0817,0.26586 0.16327,0.53167 -0.0857,0.89379 -0.49817,0.10364 -0.66565,0.11109 -0.83319,0.11847 z"
   id="path178" />
<path
   fill="#e9e54e"
   opacity="1"
   stroke="none"
   d="m 562.14218,451.30977 c 0.23529,0.35156 0.35071,0.86645 0.38892,1.63757 -0.22107,-0.32062 -0.36493,-0.8974 -0.38892,-1.63757 z"
   id="path180" />
<path
   fill="#e9e54e"
   opacity="1"
   stroke="none"
   d="m 709.66006,456.08394 c -0.14618,-0.42725 -0.10931,-0.9737 0.0758,-1.75379 0.13464,0.3891 0.12091,1.01184 -0.0758,1.75379 z"
   id="path182" />
<path
   fill="#e9e54e"
   opacity="1"
   stroke="none"
   d="m 656.76199,457.08394 c -0.1347,-0.41242 -0.0962,-0.94501 0.0802,-1.711 0.12299,0.3747 0.10791,0.98279 -0.0802,1.711 z"
   id="path184" />
<path
   fill="#e9e54e"
   opacity="1"
   stroke="none"
   d="m 555.18936,459.0594 c -0.20166,-0.34692 -0.28906,-0.85333 -0.31482,-1.61401 0.18414,0.31537 0.30658,0.88501 0.31482,1.61401 z"
   id="path186" />
<path
   fill="#e9e54e"
   opacity="1"
   stroke="none"
   d="m 563.59122,495.29359 c 0.20922,0.34675 0.24755,0.79657 0.21484,1.57905 -0.17603,-0.27027 -0.28082,-0.87305 -0.21484,-1.57905 z"
   id="path188" />
<path
   fill="#e9e54e"
   opacity="1"
   stroke="none"
   d="m 553.74783,518.08614 c -0.1322,-0.41449 -0.0899,-0.94812 0.0948,-1.71302 0.1214,0.37708 0.10046,0.98554 -0.0948,1.71302 z"
   id="path190" />
<path
   fill="#e9e54e"
   opacity="1"
   stroke="none"
   d="m 560.57376,524.3033 c 0.10742,0.41669 0.035,0.94623 -0.18176,1.7055 -0.0957,-0.37774 -0.0469,-0.98522 0.18176,-1.7055 z"
   id="path192" />
<path
   fill="#e9e54e"
   opacity="1"
   stroke="none"
   d="m 413.65054,559.30098 c 0.10831,0.42999 0.0295,0.96863 -0.21808,1.72565 -0.10217,-0.39344 -0.0356,-1.00519 0.21808,-1.72565 z"
   id="path194" />
<path
   fill="#e9e54e"
   opacity="1"
   stroke="none"
   d="m 481.27408,628.22249 c 0.32947,-0.27179 0.8327,-0.43274 1.60248,-0.55994 -0.29859,0.2461 -0.86359,0.45844 -1.60248,0.55994 z"
   id="path196" />
<path
   fill="#e9e54e"
   opacity="1"
   stroke="none"
   d="m 359.24637,624.17152 c 0.34012,-0.2564 0.85135,-0.39404 1.62854,-0.49322 -0.30848,0.22961 -0.88294,0.42077 -1.62854,0.49322 z"
   id="path198" />
<path
   fill="#e9e54e"
   opacity="1"
   stroke="none"
   d="m 595.24203,600.96028 c 0.31617,-0.31879 0.65473,-0.53345 0.99323,-0.74811 -0.15131,0.25287 -0.30261,0.5058 -0.60828,0.82776 -0.15423,0.069 -0.36255,0.0245 -0.38495,-0.0797 z"
   id="path200" />
<path
   fill="#e9e54e"
   opacity="1"
   stroke="none"
   d="m 378.62558,620.28297 c 0.17953,0.10932 0.19864,0.3039 0.3417,0.76423 -0.25103,0.19403 -0.62606,0.12237 -1.00112,0.0507 0.16635,-0.24323 0.33267,-0.48645 0.65942,-0.81495 z"
   id="path202" />
<path
   fill="#a4392d"
   opacity="1"
   stroke="none"
   d="m 697.05227,491.09419 c -0.0651,0.0493 -0.10925,0.11719 -0.0432,0.1178 0.11011,-0.0673 0.0642,-0.0992 0.0432,-0.1178 z"
   id="path204" />
<path
   fill="#e9e54e"
   opacity="1"
   stroke="none"
   d="m 647.7969,491.81526 c 0.0376,-0.0121 0.16883,0.15222 0.33545,0.37586 0.0407,0.0447 -0.23657,-0.21399 -0.33545,-0.37586 z"
   id="path206" />
<path
   fill="#a0302b"
   opacity="1"
   stroke="none"
   d="m 699.19449,422.30757 c 0.0792,-0.19415 0.24664,-0.2016 0.65979,-0.15491 -0.0267,0.14985 -0.29908,0.24573 -0.65979,0.15491 z"
   id="path208" />
<path
   fill="#e9e54e"
   opacity="1"
   stroke="none"
   d="m 259.57794,624.13533 c 0.15207,0.0187 0.23178,0.18701 0.34943,0.63385 -0.31437,0.13153 -0.46759,-0.12268 -0.34943,-0.63385 z"
   id="path210" />
<path
   fill="#e9e54e"
   opacity="1"
   stroke="none"
   d="m 450.01248,613.21309 c 0.1272,0.0253 -0.28577,0.28381 -0.52747,0.31451 -0.0873,-0.20251 0.12659,-0.32598 0.52747,-0.31451 z"
   id="path212" />
<path
   fill="#e9e54e"
   opacity="1"
   stroke="none"
   d="m 709.99832,415.63875 c 0.0887,0.10992 -0.35461,0.005 -0.58264,-0.0101 -0.004,-0.24848 0.23694,-0.27674 0.58264,0.0101 z"
   id="path214" />
<path
   fill="#a0312b"
   opacity="1"
   stroke="none"
   d="m 526.58231,582.55843 c -0.26844,0.20007 -0.53681,0.40014 -1.03309,0.70776 -0.33593,-0.0574 -0.44409,-0.22235 -0.70495,-0.64166 0.27167,-0.28681 0.6961,-0.31922 1.38702,-0.20557 0.26654,0.14606 0.35095,0.13947 0.35102,0.13947 z"
   id="path216" />
<path
   fill="#e9e54e"
   opacity="1"
   stroke="none"
   d="m 685.37002,504.92348 c -0.0635,-0.17255 0.0252,-0.60236 0.42078,-1.16767 0.11505,0.21314 -0.0768,0.56177 -0.42078,1.16767 z"
   id="path218" />
<path
   fill="#a0312b"
   opacity="1"
   stroke="none"
   d="m 526.5032,582.60701 c 0.005,0.0419 -0.0301,-0.28925 -0.0301,-0.28925 0,0 -0.0948,0.2154 0.007,0.22803 0.10199,0.0126 0.0176,0.0192 0.023,0.0612 z"
   id="path220" />
<path
   fill="#a0302b"
   opacity="1"
   stroke="none"
   d="m 624.26736,573.16194 c -0.36187,0.19641 -0.63037,0.19129 -1.29748,0.12805 -0.22766,-0.4223 -0.0568,-0.78644 0.29718,-1.39074 0.36316,-0.095 0.54321,0.0503 0.9873,0.42065 0.2641,0.22522 0.10651,0.64056 0.013,0.84204 z"
   id="path222" />
<path
   fill="#a0302a"
   opacity="1"
   stroke="none"
   d="m 675.11844,540.19575 c 0.0928,0.0396 0.16632,0.0521 0.0906,-0.008 -0.14917,-0.0726 -0.10986,-0.0192 -0.0906,0.008 z"
   id="path224" />
</svg>
