<?xml version="1.0" encoding="UTF-8" standalone="no"?>
<!-- Created with Inkscape (http://www.inkscape.org/) -->

<svg
   width="105.34938mm"
   height="15.871179mm"
   viewBox="0 0 105.34938 15.871179"
   version="1.1"
   id="svg5"
   inkscape:version="1.1.2 (0a00cf5339, 2022-02-04)"
   sodipodi:docname="logo-web-nofont.svg"
   xmlns:inkscape="http://www.inkscape.org/namespaces/inkscape"
   xmlns:sodipodi="http://sodipodi.sourceforge.net/DTD/sodipodi-0.dtd"
   xmlns="http://www.w3.org/2000/svg"
   xmlns:svg="http://www.w3.org/2000/svg">
  <sodipodi:namedview
     id="namedview7"
     pagecolor="#ffffff"
     bordercolor="#666666"
     borderopacity="1.0"
     inkscape:pageshadow="2"
     inkscape:pageopacity="0.0"
     inkscape:pagecheckerboard="0"
     inkscape:document-units="mm"
     showgrid="false"
     inkscape:zoom="2.0686841"
     inkscape:cx="183.69165"
     inkscape:cy="37.463429"
     inkscape:window-width="1920"
     inkscape:window-height="1012"
     inkscape:window-x="1920"
     inkscape:window-y="0"
     inkscape:window-maximized="1"
     inkscape:current-layer="layer1"
     fit-margin-top="3"
     fit-margin-left="4"
     fit-margin-right="4"
     fit-margin-bottom="2" />
  <defs
     id="defs2" />
  <g
     inkscape:label="Livello 1"
     inkscape:groupmode="layer"
     id="layer1"
     transform="translate(66.21757,-107.06014)">
    <path
       id="text825"
       style="font-style:normal;font-weight:normal;font-size:16.9333px;line-height:1.25;font-family:sans-serif;fill:#c62a1b;fill-opacity:1;stroke:#000000;stroke-width:1.00157481;stroke-opacity:1;stroke-miterlimit:4;stroke-dasharray:none"
       d="M 31.693359 11.337891 C 30.968027 11.337891 29.987331 11.359677 28.75 11.402344 C 27.512669 11.44501 26.211034 11.59361 24.845703 11.849609 C 24.120371 11.977609 23.373467 12.149948 22.605469 12.363281 C 21.880137 12.576614 21.198592 12.85398 20.558594 13.195312 C 19.491929 13.749978 18.616259 14.409736 17.933594 15.177734 C 17.293595 15.945733 16.782437 16.73621 16.398438 17.546875 C 15.801105 18.741539 15.438547 19.872789 15.310547 20.939453 C 15.182547 22.006118 15.117188 22.687662 15.117188 22.986328 C 15.117187 23.284994 15.160761 23.540573 15.246094 23.753906 C 15.331427 23.924573 15.460193 24.009766 15.630859 24.009766 C 15.801526 24.009766 15.993698 23.882953 16.207031 23.626953 C 16.420364 23.370954 16.802756 22.879629 17.357422 22.154297 C 19.618751 19.12497 22.562794 17.268603 26.189453 16.585938 C 29.858779 15.903272 33.912285 15.5625 38.349609 15.5625 C 40.397605 15.5625 41.84784 15.7111 42.701172 16.009766 C 43.554504 16.265765 43.982422 16.820496 43.982422 17.673828 C 43.982422 19.252492 43.64165 21.364437 42.958984 24.009766 C 42.276319 26.655094 41.378862 29.406964 40.269531 32.265625 C 39.074867 35.294952 37.709825 38.197375 36.173828 40.970703 C 34.680498 43.701364 33.123283 45.835097 31.501953 47.371094 C 30.819288 48.053759 30.13579 48.586704 29.453125 48.970703 C 28.77046 49.312036 28.110702 49.482422 27.470703 49.482422 L 27.085938 49.482422 C 26.957938 49.439755 26.809338 49.417969 26.638672 49.417969 C 26.126673 49.332636 25.657135 49.098843 25.230469 48.714844 C 24.803803 48.288178 24.589844 47.626467 24.589844 46.730469 L 24.589844 45.898438 C 24.63251 45.599771 24.695917 45.300619 24.78125 45.001953 C 24.90925 44.276621 25.101422 43.57329 25.357422 42.890625 C 25.613421 42.20796 25.870954 41.568035 26.126953 40.970703 C 26.297619 40.62937 26.446219 40.308432 26.574219 40.009766 C 26.744885 39.7111 26.893485 39.433734 27.021484 39.177734 C 27.490817 39.7324 27.938569 40.201938 28.365234 40.585938 C 28.7919 40.92727 29.219819 41.097656 29.646484 41.097656 C 29.859817 41.097656 30.008417 41.056036 30.09375 40.970703 C 30.179083 40.88537 30.222656 40.77839 30.222656 40.650391 C 30.222656 40.479724 30.179083 40.331125 30.09375 40.203125 C 30.051083 40.032459 29.987677 39.840286 29.902344 39.626953 C 29.774344 39.456287 29.667364 39.264114 29.582031 39.050781 C 29.539365 38.837448 29.517578 38.601703 29.517578 38.345703 C 29.517578 37.748371 29.753324 37.066827 30.222656 36.298828 C 30.691989 35.488163 31.224933 34.656066 31.822266 33.802734 C 32.376931 32.992069 32.888089 32.181759 33.357422 31.371094 C 33.826754 30.560429 34.0625 29.855145 34.0625 29.257812 C 34.0625 28.532481 33.785134 27.936129 33.230469 27.466797 C 32.71847 26.954798 32.013186 26.699219 31.117188 26.699219 C 30.178523 26.699219 29.283019 27.18859 28.429688 28.169922 C 27.576356 29.108587 26.894811 30.132856 26.382812 31.242188 C 26.04148 31.967519 25.764114 32.672803 25.550781 33.355469 C 25.380115 33.995467 25.294922 34.528412 25.294922 34.955078 C 25.294922 35.467077 25.336542 35.893042 25.421875 36.234375 C 25.507208 36.575708 25.614188 36.853073 25.742188 37.066406 L 26.0625 37.707031 C 26.147833 37.835031 26.189453 37.961844 26.189453 38.089844 C 25.464121 39.455174 24.824197 40.693403 24.269531 41.802734 C 23.757532 42.912066 23.353354 43.999742 23.054688 45.066406 C 22.926688 45.535739 22.819708 46.027064 22.734375 46.539062 C 22.691708 47.008395 22.669922 47.477933 22.669922 47.947266 L 22.669922 48.009766 C 22.669922 49.33243 23.076054 50.334913 23.886719 51.017578 C 24.74005 51.74291 25.891133 52.107422 27.341797 52.107422 C 28.237795 52.107422 29.155085 51.786483 30.09375 51.146484 C 31.032415 50.506486 31.993278 49.632769 32.974609 48.523438 C 34.425273 46.816774 35.875508 44.683042 37.326172 42.123047 C 38.776836 39.563052 40.100258 36.918161 41.294922 34.1875 C 43.086918 30.219508 44.55894 26.506774 45.710938 23.050781 C 46.862935 19.594788 47.4375 17.419436 47.4375 16.523438 C 47.4375 14.688774 46.37161 13.365353 44.238281 12.554688 C 42.104952 11.744022 37.92268 11.337891 31.693359 11.337891 z M 93.837891 11.337891 C 92.173894 11.337891 90.40272 11.530063 88.525391 11.914062 C 86.648061 12.255395 84.750074 12.768507 82.830078 13.451172 C 77.624755 15.285835 72.846132 18.208091 68.494141 22.21875 C 64.142149 26.186742 61.966797 30.816766 61.966797 36.107422 L 61.966797 36.169922 C 61.966797 40.30858 63.757804 43.829141 67.341797 46.730469 C 70.968456 49.631796 75.747079 51.082031 81.677734 51.082031 C 89.22972 51.082031 95.672537 49.631796 101.00586 46.730469 C 106.38185 43.829141 109.07031 39.967808 109.07031 35.146484 C 109.07031 34.719819 109.00495 34.35726 108.87695 34.058594 C 108.79162 33.759928 108.57961 33.611328 108.23828 33.611328 C 108.06761 33.611328 107.89723 33.674735 107.72656 33.802734 C 107.59856 33.888068 107.5332 34.036667 107.5332 34.25 L 107.5332 34.761719 C 107.5332 37.833713 105.72041 40.565749 102.09375 42.955078 C 98.509757 45.344407 92.813844 46.539062 85.005859 46.539062 C 84.408527 46.539062 83.790389 46.517276 83.150391 46.474609 L 81.357422 46.345703 C 77.560096 45.876371 74.083108 44.661882 70.925781 42.699219 C 67.768454 40.736556 66.189453 37.834133 66.189453 33.994141 C 66.189453 30.068815 67.726834 26.591827 70.798828 23.5625 C 73.870822 20.533173 77.262617 18.100288 80.974609 16.265625 C 83.235938 15.19896 85.411291 14.368817 87.501953 13.771484 C 89.635282 13.174152 91.406456 12.875 92.814453 12.875 L 93.134766 12.875 L 93.517578 12.875 C 94.029577 12.917667 94.477329 13.04448 94.861328 13.257812 C 95.287994 13.471145 95.501953 13.813871 95.501953 14.283203 C 95.501953 14.496536 95.45838 14.708542 95.373047 14.921875 C 95.287714 15.135208 95.182687 15.349167 95.054688 15.5625 C 94.926688 15.861166 94.754349 16.138532 94.541016 16.394531 L 94.029297 17.035156 C 93.773297 17.291156 93.539505 17.503162 93.326172 17.673828 C 93.112839 17.844494 92.942453 17.951474 92.814453 17.994141 C 92.259788 18.164807 91.68327 18.420386 91.085938 18.761719 C 90.531272 19.103051 89.954754 19.487397 89.357422 19.914062 C 88.50409 20.554061 87.671993 21.279179 86.861328 22.089844 C 86.050663 22.857842 85.283926 23.670106 84.558594 24.523438 C 83.790595 25.376769 83.085311 26.206913 82.445312 27.017578 C 81.84798 27.828243 81.358609 28.555314 80.974609 29.195312 C 80.633277 29.749978 80.334124 30.219516 80.078125 30.603516 C 79.864792 30.987515 79.714239 31.350074 79.628906 31.691406 L 79.501953 32.074219 L 79.501953 32.458984 C 79.501953 32.88565 79.587146 33.204636 79.757812 33.417969 C 79.971145 33.631302 80.204938 33.823474 80.460938 33.994141 C 80.93027 34.207474 81.358188 34.37786 81.742188 34.505859 C 82.126187 34.633859 82.466959 34.699219 82.765625 34.699219 C 83.192291 34.699219 83.640043 34.48526 84.109375 34.058594 C 84.578707 33.631928 85.111652 33.077197 85.708984 32.394531 C 86.306317 31.583866 87.011601 30.710149 87.822266 29.771484 C 88.632931 28.790153 89.506648 27.785717 90.445312 26.761719 C 91.127978 26.036387 91.833262 25.333056 92.558594 24.650391 C 93.283926 23.925059 94.009043 23.243514 94.734375 22.603516 C 95.118374 22.262183 95.480933 21.941244 95.822266 21.642578 C 96.206265 21.343912 96.568824 21.066546 96.910156 20.810547 C 97.976821 20.085215 98.723725 19.574057 99.150391 19.275391 C 99.577056 18.934058 99.832636 18.634906 99.917969 18.378906 L 99.917969 18.314453 L 99.917969 18.1875 C 99.917969 17.846167 99.769369 17.588635 99.470703 17.417969 C 99.172037 17.204636 98.765905 17.097656 98.253906 17.097656 C 97.82724 17.097656 97.442895 17.141229 97.101562 17.226562 C 96.802896 17.269229 96.483911 17.332636 96.142578 17.417969 L 95.886719 17.546875 C 95.844052 17.546875 95.778693 17.525088 95.693359 17.482422 L 95.693359 17.417969 C 96.290692 16.948636 96.782016 16.415692 97.166016 15.818359 C 97.592681 15.221027 97.806641 14.624676 97.806641 14.027344 C 97.806641 13.174012 97.444082 12.512301 96.71875 12.042969 C 96.036085 11.573636 95.075222 11.337891 93.837891 11.337891 z M 148.75 11.337891 C 148.622 11.337891 148.49323 11.381464 148.36523 11.466797 C 148.23723 11.509463 148.13026 11.594657 148.04492 11.722656 L 147.78906 12.107422 C 147.70373 12.235422 147.61854 12.384021 147.5332 12.554688 C 146.8932 13.706685 146.18987 14.752741 145.42188 15.691406 C 144.65388 16.630071 143.88519 17.482002 143.11719 18.25 C 141.45319 19.87133 139.87419 21.087772 138.38086 21.898438 C 136.9302 22.666436 135.92771 23.050781 135.37305 23.050781 C 135.03171 23.050781 134.71273 23.007208 134.41406 22.921875 C 134.1154 22.836542 133.85982 22.731515 133.64648 22.603516 L 133.00586 22.345703 C 132.83519 22.26037 132.66481 22.21875 132.49414 22.21875 C 132.32347 22.21875 132.15309 22.26037 131.98242 22.345703 C 131.85442 22.431036 131.78906 22.581589 131.78906 22.794922 C 131.78906 23.008255 131.91783 23.370814 132.17383 23.882812 C 132.47249 24.394811 132.83505 24.949543 133.26172 25.546875 C 133.47505 25.802874 133.68901 26.08024 133.90234 26.378906 C 134.11568 26.634906 134.32768 26.868698 134.54102 27.082031 C 134.83968 27.295364 135.11705 27.509323 135.37305 27.722656 C 135.67171 27.935989 135.94908 28.106375 136.20508 28.234375 L 136.58984 28.363281 C 136.76051 28.405948 136.90911 28.425781 137.03711 28.425781 C 137.33578 28.425781 137.59331 28.405948 137.80664 28.363281 C 138.06264 28.277948 138.23303 28.170968 138.31836 28.042969 L 138.44531 28.169922 L 129.61328 40.779297 L 129.61328 40.841797 C 128.41862 42.761793 127.45971 44.340794 126.73438 45.578125 C 126.05171 46.815456 125.70898 47.861512 125.70898 48.714844 C 125.70898 49.312176 125.90116 49.759928 126.28516 50.058594 C 126.66916 50.314593 127.13869 50.443359 127.69336 50.443359 C 127.86403 50.443359 128.01458 50.421573 128.14258 50.378906 C 128.31324 50.378906 128.46184 50.35712 128.58984 50.314453 C 129.18718 50.143787 129.80531 49.824801 130.44531 49.355469 C 131.08531 48.84347 131.7906 48.245165 132.55859 47.5625 L 144.07812 36.363281 C 151.28878 29.195295 157.41066 23.988754 162.44531 20.746094 C 167.52264 17.460767 171.17001 15.733166 173.38867 15.5625 C 174.83934 15.5625 175.9488 15.968632 176.7168 16.779297 C 177.4848 17.589962 177.86914 18.655852 177.86914 19.978516 C 177.86914 20.191849 177.84735 20.425641 177.80469 20.681641 C 177.80469 20.894974 177.78485 21.130719 177.74219 21.386719 C 177.23019 23.861381 175.43723 26.121926 172.36523 28.169922 C 169.33591 30.217918 165.32597 31.200568 160.33398 31.115234 C 159.60865 31.115234 159.03213 31.071661 158.60547 30.986328 C 158.1788 30.858328 157.79446 30.709729 157.45312 30.539062 L 152.91016 33.673828 L 159.05273 41.802734 C 161.22873 44.277396 163.59821 46.474535 166.1582 48.394531 C 168.76086 50.271861 171.81189 51.167364 175.31055 51.082031 L 175.62891 51.082031 L 176.01367 51.082031 C 178.70167 50.911365 181.17617 49.972288 183.4375 48.265625 C 185.69883 46.516295 186.83008 44.041791 186.83008 40.841797 C 186.83008 39.689799 186.74489 38.901275 186.57422 38.474609 C 186.44622 38.005277 186.21047 37.771484 185.86914 37.771484 C 185.61314 37.771484 185.42097 37.856677 185.29297 38.027344 C 185.20764 38.19801 185.16602 38.410016 185.16602 38.666016 L 185.16602 38.794922 L 185.16602 38.921875 L 185.16602 39.371094 C 185.20868 39.54176 185.23047 39.69036 185.23047 39.818359 L 185.23047 40.523438 C 185.27314 40.779437 185.29297 41.056803 185.29297 41.355469 C 185.29297 43.147465 184.67483 44.5977 183.4375 45.707031 C 182.20017 46.773696 180.45078 47.306641 178.18945 47.306641 L 177.99805 47.306641 L 177.80469 47.306641 C 175.92736 47.306641 174.26512 47.007488 172.81445 46.410156 C 171.36379 45.770158 169.95517 44.852867 168.58984 43.658203 C 167.94985 43.103538 167.28813 42.4854 166.60547 41.802734 C 165.96547 41.120069 165.30376 40.351379 164.62109 39.498047 L 159.11719 33.035156 C 165.60251 32.907157 171.23501 31.199389 176.01367 27.914062 C 180.835 24.586069 183.24609 20.853502 183.24609 16.714844 C 183.24609 15.178847 182.79834 13.898998 181.90234 12.875 C 181.00635 11.851002 179.8751 11.337891 178.50977 11.337891 C 175.01111 11.508557 169.99674 13.792842 163.46875 18.1875 C 156.98343 22.582158 149.85907 27.679767 142.09375 33.482422 L 130.89453 41.867188 L 130.76562 41.929688 C 130.85096 41.759021 130.93615 41.610422 131.02148 41.482422 L 131.40625 40.970703 C 133.58225 37.600043 135.58721 34.656 137.42188 32.138672 C 139.2992 29.621343 140.43045 28.042342 140.81445 27.402344 L 141.39062 27.082031 L 141.90234 26.699219 C 142.11568 26.571219 142.30785 26.420666 142.47852 26.25 C 143.11851 25.780668 143.73665 25.291296 144.33398 24.779297 C 144.93132 24.224631 145.48605 23.6699 145.99805 23.115234 C 146.38205 22.731235 146.7446 22.34689 147.08594 21.962891 C 147.42727 21.578891 147.72642 21.216333 147.98242 20.875 C 148.23842 20.576334 148.45043 20.277182 148.62109 19.978516 C 148.79176 19.637183 148.94231 19.296411 149.07031 18.955078 C 149.24098 18.400413 149.34796 17.867468 149.39062 17.355469 C 149.43329 16.800803 149.45312 16.265905 149.45312 15.753906 L 149.45312 12.234375 C 149.45312 11.978376 149.38972 11.764416 149.26172 11.59375 C 149.17639 11.423084 149.006 11.337891 148.75 11.337891 z M 294.86133 14.21875 L 294.86133 14.283203 C 294.30666 14.283203 293.85891 14.368396 293.51758 14.539062 C 293.21891 14.709729 292.94155 14.943521 292.68555 15.242188 C 292.68555 15.284854 292.66376 15.328427 292.62109 15.371094 L 292.55664 15.435547 C 291.83131 16.587545 291.25479 17.590028 290.82812 18.443359 C 290.40146 19.296691 290.18945 19.893042 290.18945 20.234375 C 290.18945 20.447708 290.23107 20.618094 290.31641 20.746094 C 290.40174 20.831427 290.53051 20.875 290.70117 20.875 L 290.76562 20.875 C 290.93629 20.832333 291.10668 20.766974 291.27734 20.681641 C 291.44801 20.553641 291.66197 20.405041 291.91797 20.234375 C 292.21663 20.106375 292.55741 19.977609 292.94141 19.849609 C 293.36807 19.72161 293.87923 19.636417 294.47656 19.59375 L 298.44531 19.658203 C 300.19464 19.658203 301.28232 19.893949 301.70898 20.363281 C 302.17832 20.789947 302.41211 21.408085 302.41211 22.21875 C 302.41211 23.669414 301.79397 25.52578 300.55664 27.787109 C 299.36198 30.048438 297.95531 32.394177 296.33398 34.826172 C 296.03532 35.252838 295.73617 35.700589 295.4375 36.169922 C 295.13883 36.596588 294.83968 37.044339 294.54102 37.513672 C 292.53569 40.372333 290.70111 42.953817 289.03711 45.257812 C 287.41578 47.561808 286.60547 49.033829 286.60547 49.673828 C 286.60547 50.100494 286.79764 50.421433 287.18164 50.634766 C 287.60831 50.848099 288.05606 50.974912 288.52539 51.017578 C 288.69606 51.060245 288.84466 51.082031 288.97266 51.082031 L 289.42188 51.082031 C 289.93387 51.082031 290.35984 51.040411 290.70117 50.955078 C 291.08517 50.912412 291.44773 50.761859 291.78906 50.505859 C 292.25839 50.207193 292.74972 49.717822 293.26172 49.035156 C 293.77372 48.309824 294.43348 47.263768 295.24414 45.898438 C 300.70546 37.62112 305.71983 31.263496 310.28516 26.826172 C 314.89315 22.388847 318.41371 20.169922 320.8457 20.169922 C 322.6377 20.169922 323.89576 20.895039 324.62109 22.345703 C 325.38909 23.7537 326.02902 25.909219 326.54102 28.810547 L 326.54102 29.257812 C 326.58368 29.385812 326.62726 29.492792 326.66992 29.578125 L 329.22852 44.107422 C 329.27118 44.235422 329.29297 44.362235 329.29297 44.490234 C 329.33564 44.618234 329.35742 44.747 329.35742 44.875 C 329.74142 46.538997 330.18917 47.840632 330.70117 48.779297 C 331.25584 49.717962 332.25832 50.185547 333.70898 50.185547 C 334.09298 50.185547 334.49912 50.143927 334.92578 50.058594 C 335.35245 49.973261 335.77841 49.824661 336.20508 49.611328 C 336.97308 49.269995 337.71998 48.842077 338.44531 48.330078 C 339.21331 47.775413 339.93843 47.198895 340.62109 46.601562 C 341.55976 45.748231 342.32845 44.959707 342.92578 44.234375 C 343.52311 43.509043 343.82031 43.102911 343.82031 43.017578 C 343.82031 42.804245 343.75691 42.633859 343.62891 42.505859 C 343.54357 42.37786 343.39497 42.314453 343.18164 42.314453 C 343.01097 42.314453 342.66825 42.548246 342.15625 43.017578 C 341.64425 43.486911 341.06969 44.000022 340.42969 44.554688 L 340.04492 44.810547 L 339.78906 45.066406 C 339.2344 45.535739 338.70145 45.94187 338.18945 46.283203 C 337.72012 46.624536 337.31399 46.794922 336.97266 46.794922 C 336.46066 46.794922 336.05648 46.602749 335.75781 46.21875 C 335.50181 45.792084 335.26607 45.108587 335.05273 44.169922 C 334.9674 43.956589 334.90399 43.744583 334.86133 43.53125 C 334.81866 43.317917 334.77509 43.060385 334.73242 42.761719 L 331.72461 28.681641 C 330.91394 25.140314 329.74108 22.580617 328.20508 21.001953 C 326.71175 19.42329 324.7484 18.634766 322.31641 18.634766 L 322.125 18.634766 L 321.99609 18.634766 C 319.99076 18.677432 317.60145 19.446123 314.82812 20.939453 C 312.0548 22.432784 307.29796 26.357523 300.55664 32.714844 L 298.82812 34.378906 L 298.70117 34.25 L 302.66992 26.890625 C 303.30992 25.567961 303.79929 24.373305 304.14062 23.306641 C 304.52462 22.239976 304.7168 21.19392 304.7168 20.169922 C 304.7168 18.079259 304.12045 16.587404 302.92578 15.691406 C 301.77378 14.752741 300.2364 14.261417 298.31641 14.21875 L 294.86133 14.21875 z M 251.14844 14.410156 C 250.03911 14.410156 248.11933 15.30566 245.38867 17.097656 C 242.65801 18.846986 239.75754 20.873739 236.68555 23.177734 L 235.40625 24.203125 C 234.97958 24.501791 234.55167 24.820777 234.125 25.162109 C 232.333 26.570107 230.62719 27.935148 229.00586 29.257812 C 227.38453 30.580477 225.97591 31.733512 224.78125 32.714844 L 222.99023 31.818359 C 222.69157 31.647693 222.43404 31.518927 222.2207 31.433594 C 222.00737 31.305594 221.79536 31.242188 221.58203 31.242188 C 221.41136 31.242187 221.19741 31.327381 220.94141 31.498047 C 220.72807 31.626047 220.45071 31.796433 220.10938 32.009766 L 218.18945 33.673828 L 217.67773 34.1875 C 217.54973 34.358166 217.48633 34.548386 217.48633 34.761719 C 217.48633 34.975052 217.54973 35.189011 217.67773 35.402344 C 217.80573 35.57301 218.01774 35.67999 218.31641 35.722656 L 220.17383 36.363281 L 206.54102 48.009766 C 206.28502 48.223099 206.05122 48.437058 205.83789 48.650391 C 205.62456 48.863724 205.43239 49.077683 205.26172 49.291016 C 205.09105 49.547015 204.9405 49.802594 204.8125 50.058594 C 204.72717 50.271927 204.68555 50.527506 204.68555 50.826172 C 204.68555 51.295504 204.87772 51.67985 205.26172 51.978516 C 205.64572 52.277182 206.0499 52.425781 206.47656 52.425781 C 207.54323 52.425781 208.75967 51.999816 210.125 51.146484 C 211.533 50.293153 213.04859 48.991517 214.66992 47.242188 L 223.62891 37.833984 C 225.46357 38.13265 227.5339 38.368396 229.83789 38.539062 C 232.18455 38.667062 234.74425 38.730469 237.51758 38.730469 C 240.50424 38.730469 243.00053 38.47489 245.00586 37.962891 C 247.05386 37.450892 248.67448 36.89616 249.86914 36.298828 C 250.76514 35.829496 251.42685 35.401577 251.85352 35.017578 C 252.28018 34.590912 252.49414 34.271927 252.49414 34.058594 C 252.49414 33.887927 252.45057 33.759161 252.36523 33.673828 C 252.32257 33.545828 252.21559 33.482422 252.04492 33.482422 C 251.91692 33.482422 251.68313 33.545828 251.3418 33.673828 C 251.04313 33.759161 250.53002 33.866141 249.80469 33.994141 C 249.07936 34.12214 248.12045 34.250907 246.92578 34.378906 C 245.73112 34.464239 244.19374 34.505859 242.31641 34.505859 C 240.73774 34.505859 239.20231 34.486026 237.70898 34.443359 C 236.25832 34.400693 234.82987 34.335333 233.42188 34.25 L 230.60547 33.994141 C 229.70947 33.908807 228.77039 33.760208 227.78906 33.546875 L 235.85352 26.443359 C 236.23751 26.102027 236.60007 25.781088 236.94141 25.482422 L 238.09375 24.585938 C 239.67241 23.30594 241.22963 22.261837 242.76562 21.451172 C 244.34429 20.59784 245.79452 20.169922 247.11719 20.169922 C 248.61052 20.169922 249.78339 20.683033 250.63672 21.707031 C 251.53272 22.688363 252.30141 24.649756 252.94141 27.59375 L 256.7168 45.066406 C 257.05813 46.730403 257.46426 48.010252 257.93359 48.90625 C 258.44559 49.759582 259.12714 50.185547 259.98047 50.185547 C 260.36447 50.185547 260.70719 50.165713 261.00586 50.123047 C 261.34719 50.08038 261.68796 49.995187 262.0293 49.867188 C 262.4133 49.696521 262.79764 49.482562 263.18164 49.226562 C 263.60831 48.927896 264.05606 48.565338 264.52539 48.138672 C 266.18939 46.602675 267.55443 45.172273 268.62109 43.849609 C 269.68776 42.526945 270.2207 41.738421 270.2207 41.482422 C 270.2207 41.269089 270.17908 41.120489 270.09375 41.035156 C 270.00842 40.907157 269.85786 40.841797 269.64453 40.841797 C 269.51653 40.841797 269.38972 40.863583 269.26172 40.90625 C 269.17639 40.948917 269.09119 41.03411 269.00586 41.162109 C 268.96319 41.162109 268.91962 41.183896 268.87695 41.226562 C 268.87695 41.269229 268.85517 41.291016 268.8125 41.291016 L 266.38086 44.042969 C 265.86886 44.554968 265.3577 45.024506 264.8457 45.451172 C 264.37637 45.835171 263.94845 46.027344 263.56445 46.027344 C 263.09512 46.027344 262.69094 45.621212 262.34961 44.810547 C 262.00828 43.957215 261.70912 42.932946 261.45312 41.738281 L 257.99805 25.802734 C 257.91271 25.333402 257.80573 24.863864 257.67773 24.394531 L 257.29297 22.859375 C 256.7383 20.726046 255.97157 18.784486 254.99023 17.035156 C 254.0089 15.285826 252.7271 14.410156 251.14844 14.410156 z M 381.38867 24.585938 C 381.21801 24.585938 380.94064 24.651297 380.55664 24.779297 C 380.21531 24.86463 379.83096 25.035016 379.4043 25.291016 C 379.06296 25.461682 378.72219 25.695475 378.38086 25.994141 C 378.08219 26.25014 377.82661 26.549292 377.61328 26.890625 C 377.44261 27.231958 377.14346 27.786689 376.7168 28.554688 C 376.3328 29.280019 375.92667 30.068543 375.5 30.921875 C 374.988 31.903206 374.49863 32.842283 374.0293 33.738281 L 373.26172 35.275391 C 373.17639 35.275391 372.94064 35.253604 372.55664 35.210938 C 372.21531 35.125604 371.85275 35.040411 371.46875 34.955078 C 371.04208 34.869745 370.63595 34.784552 370.25195 34.699219 C 369.91062 34.613886 369.69861 34.570312 369.61328 34.570312 C 369.44261 34.570312 369.22866 34.613886 368.97266 34.699219 C 368.71666 34.784552 368.43929 34.911365 368.14062 35.082031 C 367.92729 35.167364 367.71333 35.274344 367.5 35.402344 C 367.32933 35.530343 367.18073 35.65911 367.05273 35.787109 C 366.8394 35.957776 366.66902 36.106375 366.54102 36.234375 C 366.45568 36.362375 366.41211 36.491141 366.41211 36.619141 C 366.41211 37.045806 366.64786 37.386579 367.11719 37.642578 C 367.62919 37.898578 369.05763 38.027344 371.4043 38.027344 C 370.72163 39.094008 370.14707 40.011298 369.67773 40.779297 C 369.2084 41.547295 368.82406 42.314033 368.52539 43.082031 C 368.35472 43.508697 368.22596 43.956449 368.14062 44.425781 C 368.05529 44.895114 368.01367 45.386439 368.01367 45.898438 C 368.01367 47.349101 368.37623 48.458564 369.10156 49.226562 C 369.82689 49.994561 370.61542 50.485886 371.46875 50.699219 C 371.63942 50.741885 371.8098 50.761719 371.98047 50.761719 C 372.15114 50.804385 372.32152 50.826172 372.49219 50.826172 C 373.08952 50.826172 373.77302 50.677572 374.54102 50.378906 C 375.30901 50.122907 376.09754 49.760348 376.9082 49.291016 C 377.37754 48.99235 377.82529 48.693197 378.25195 48.394531 C 378.72129 48.095865 379.17099 47.796713 379.59766 47.498047 C 380.57899 46.772715 381.3893 46.111004 382.0293 45.513672 C 382.71196 44.873673 383.05273 44.447708 383.05273 44.234375 C 383.05273 44.021042 382.98933 43.872443 382.86133 43.787109 C 382.77599 43.65911 382.64723 43.59375 382.47656 43.59375 C 382.34856 43.59375 382.04941 43.785923 381.58008 44.169922 C 381.15341 44.511255 380.64225 44.8956 380.04492 45.322266 C 379.61826 45.620932 379.1705 45.920084 378.70117 46.21875 C 378.23184 46.474749 377.7623 46.666922 377.29297 46.794922 C 377.03697 46.880255 376.80122 46.943662 376.58789 46.986328 C 376.37456 47.028995 376.16255 47.050781 375.94922 47.050781 C 374.92522 47.050781 373.98614 46.795202 373.13281 46.283203 C 372.27948 45.728538 371.85352 44.789461 371.85352 43.466797 C 371.85352 43.210797 371.93871 42.848239 372.10938 42.378906 C 372.28004 41.866907 372.49205 41.353796 372.74805 40.841797 C 372.79071 40.671131 372.85607 40.522531 372.94141 40.394531 C 373.02674 40.223865 373.09015 40.053479 373.13281 39.882812 C 373.34615 39.498813 373.53832 39.136255 373.70898 38.794922 C 373.92232 38.453589 374.0927 38.176224 374.2207 37.962891 L 375.4375 38.027344 C 375.73617 38.027344 376.03337 38.005557 376.33203 37.962891 C 376.67336 37.920224 377.01609 37.856818 377.35742 37.771484 C 377.82675 37.686151 378.29629 37.579172 378.76562 37.451172 C 379.23496 37.280506 379.66092 37.110119 380.04492 36.939453 C 380.47159 36.72612 380.81236 36.533948 381.06836 36.363281 C 381.32436 36.192615 381.45312 36.063849 381.45312 35.978516 C 381.45312 35.765183 381.43134 35.616583 381.38867 35.53125 C 381.34601 35.40325 381.21724 35.337891 381.00391 35.337891 C 380.70524 35.337891 380.38625 35.359677 380.04492 35.402344 C 379.74626 35.402344 379.34012 35.42413 378.82812 35.466797 C 378.48679 35.509463 378.1044 35.551083 377.67773 35.59375 L 376.14062 35.59375 C 378.18862 32.649756 379.61902 30.53781 380.42969 29.257812 C 381.24035 27.977815 381.6881 26.868352 381.77344 25.929688 L 381.77344 25.673828 L 381.77344 25.417969 C 381.77344 25.204636 381.75165 25.012463 381.70898 24.841797 C 381.66632 24.671131 381.55934 24.585938 381.38867 24.585938 z M 358.0293 35.210938 L 358.0293 35.275391 C 357.34663 35.275391 356.59973 35.402204 355.78906 35.658203 C 354.9784 35.914203 354.1463 36.276761 353.29297 36.746094 C 351.79964 37.514092 350.39102 38.516575 349.06836 39.753906 C 347.7457 40.991237 346.82841 42.271086 346.31641 43.59375 C 346.18841 43.892416 346.08143 44.213355 345.99609 44.554688 C 345.95343 44.853354 345.93359 45.152506 345.93359 45.451172 C 345.93359 46.901836 346.55173 48.159898 347.78906 49.226562 C 349.02639 50.293227 350.62718 50.826172 352.58984 50.826172 C 353.69917 50.826172 354.61646 50.719192 355.3418 50.505859 C 356.1098 50.292526 356.83491 50.015161 357.51758 49.673828 C 357.68824 49.588495 357.83684 49.503302 357.96484 49.417969 L 358.47656 49.162109 C 359.79923 48.436777 360.86707 47.796853 361.67773 47.242188 C 362.4884 46.644855 363.23335 46.111911 363.91602 45.642578 C 364.00135 45.599912 364.06671 45.556338 364.10938 45.513672 C 364.19471 45.471005 364.25811 45.429385 364.30078 45.386719 C 364.47145 45.301386 364.62005 45.194406 364.74805 45.066406 C 364.87605 44.938407 364.98303 44.80964 365.06836 44.681641 L 365.19727 44.425781 C 365.23993 44.340448 365.26172 44.255255 365.26172 44.169922 C 365.26172 44.041922 365.23993 43.934943 365.19727 43.849609 C 365.19727 43.72161 365.09029 43.658203 364.87695 43.658203 C 364.74895 43.658203 364.40818 43.850376 363.85352 44.234375 C 363.29885 44.575708 362.61535 44.938266 361.80469 45.322266 C 360.95136 45.748931 359.99245 46.155063 358.92578 46.539062 C 357.90178 46.880395 356.81215 47.050781 355.66016 47.050781 L 355.59766 47.050781 L 355.5332 47.050781 L 354.38086 47.050781 C 353.82619 47.008115 353.24968 46.901135 352.65234 46.730469 C 351.96968 46.517136 351.32975 46.19815 350.73242 45.771484 C 350.13509 45.344819 349.75074 44.724728 349.58008 43.914062 C 352.69474 43.530063 355.27622 42.848519 357.32422 41.867188 C 359.41488 40.885856 360.46094 39.477241 360.46094 37.642578 C 360.46094 36.959913 360.20536 36.405181 359.69336 35.978516 C 359.22403 35.509183 358.6693 35.253604 358.0293 35.210938 z M 355.59766 37.578125 C 355.85366 37.578125 356.04583 37.643485 356.17383 37.771484 C 356.30183 37.899484 356.40685 38.048084 356.49219 38.21875 C 356.53485 38.34675 356.55664 38.473563 356.55664 38.601562 L 356.62109 38.794922 L 356.62109 38.859375 C 356.62109 39.840706 356.21496 40.585657 355.4043 41.097656 C 354.59363 41.609655 353.71991 41.994001 352.78125 42.25 C 352.14125 42.420666 351.54295 42.549432 350.98828 42.634766 C 350.43362 42.677432 349.96408 42.719052 349.58008 42.761719 L 349.70898 42.378906 C 349.75165 42.250907 349.81506 42.12214 349.90039 41.994141 C 350.41239 40.884809 351.18108 39.882326 352.20508 38.986328 C 353.27174 38.047663 354.40299 37.578125 355.59766 37.578125 z M 50.638672 45.130859 C 50.468006 45.130859 50.254046 45.257672 49.998047 45.513672 C 49.742047 45.727005 49.486468 45.984537 49.230469 46.283203 L 49.230469 46.345703 L 49.166016 46.345703 C 49.123349 46.431036 49.059943 46.516229 48.974609 46.601562 L 48.845703 46.730469 C 48.675037 46.901135 48.526437 47.071521 48.398438 47.242188 C 48.270438 47.370187 48.163458 47.498953 48.078125 47.626953 C 47.992792 47.754953 47.929385 47.881766 47.886719 48.009766 L 47.886719 48.330078 L 47.886719 48.394531 C 47.886719 48.522531 47.906552 48.671131 47.949219 48.841797 C 48.034552 49.012463 48.141532 49.184802 48.269531 49.355469 C 48.525531 49.696801 48.84647 49.994001 49.230469 50.25 C 49.657135 50.505999 50.104886 50.676386 50.574219 50.761719 C 50.659552 50.804385 50.722958 50.826172 50.765625 50.826172 L 51.021484 50.826172 C 51.362817 50.826172 51.683756 50.719192 51.982422 50.505859 L 52.878906 49.994141 L 53.005859 49.867188 C 53.091193 49.824521 53.154599 49.780948 53.197266 49.738281 C 53.581265 49.396949 53.880417 49.097796 54.09375 48.841797 C 54.307083 48.543131 54.414062 48.287552 54.414062 48.074219 C 54.414063 47.818219 54.350656 47.647833 54.222656 47.5625 C 54.137323 47.477167 53.98677 47.433594 53.773438 47.433594 C 53.688104 47.433594 53.602911 47.45538 53.517578 47.498047 L 53.326172 47.498047 C 53.240839 47.498047 53.155646 47.519833 53.070312 47.5625 L 52.878906 47.5625 L 52.814453 47.5625 L 52.75 47.5625 C 52.622 47.519833 52.473401 47.391067 52.302734 47.177734 C 52.132068 46.964401 51.874536 46.601843 51.533203 46.089844 C 51.490537 46.004511 51.42713 45.919318 51.341797 45.833984 C 51.29913 45.705985 51.25751 45.599005 51.214844 45.513672 C 51.129511 45.385672 51.042364 45.300479 50.957031 45.257812 C 50.871698 45.172479 50.766672 45.130859 50.638672 45.130859 z M 115.85352 45.130859 C 115.68285 45.130859 115.46889 45.257672 115.21289 45.513672 C 114.95689 45.727005 114.70131 45.984537 114.44531 46.283203 L 114.44531 46.345703 L 114.38086 46.345703 C 114.33819 46.431036 114.27479 46.516229 114.18945 46.601562 L 114.0625 46.730469 C 113.89183 46.901135 113.74128 47.071521 113.61328 47.242188 C 113.48528 47.370187 113.3783 47.498953 113.29297 47.626953 C 113.20764 47.754953 113.14423 47.881766 113.10156 48.009766 L 113.10156 48.330078 L 113.10156 48.394531 C 113.10156 48.522531 113.12335 48.671131 113.16602 48.841797 C 113.25135 49.012463 113.35833 49.184802 113.48633 49.355469 C 113.74233 49.696801 114.06131 49.994001 114.44531 50.25 C 114.87198 50.505999 115.31973 50.676386 115.78906 50.761719 C 115.8744 50.804385 115.93976 50.826172 115.98242 50.826172 L 116.23828 50.826172 C 116.57961 50.826172 116.8986 50.719192 117.19727 50.505859 L 118.09375 49.994141 L 118.22266 49.867188 C 118.30799 49.824521 118.3714 49.780948 118.41406 49.738281 C 118.79806 49.396949 119.09721 49.097796 119.31055 48.841797 C 119.52388 48.543131 119.62891 48.287552 119.62891 48.074219 C 119.62891 47.818219 119.5655 47.647833 119.4375 47.5625 C 119.35217 47.477167 119.20357 47.433594 118.99023 47.433594 C 118.9049 47.433594 118.81971 47.45538 118.73438 47.498047 L 118.54102 47.498047 C 118.45568 47.498047 118.37049 47.519833 118.28516 47.5625 L 118.09375 47.5625 L 118.0293 47.5625 L 117.96484 47.5625 C 117.83684 47.519833 117.68824 47.391067 117.51758 47.177734 C 117.34691 46.964401 117.09133 46.601843 116.75 46.089844 C 116.70733 46.004511 116.64393 45.919318 116.55859 45.833984 C 116.51593 45.705985 116.47235 45.599005 116.42969 45.513672 C 116.34435 45.385672 116.25916 45.300479 116.17383 45.257812 C 116.08849 45.172479 115.98152 45.130859 115.85352 45.130859 z M 195.27734 45.130859 C 195.10668 45.130859 194.89272 45.257672 194.63672 45.513672 C 194.38072 45.727005 194.12514 45.984537 193.86914 46.283203 L 193.86914 46.345703 L 193.80469 46.345703 C 193.76202 46.431036 193.69861 46.516229 193.61328 46.601562 L 193.48633 46.730469 C 193.31566 46.901135 193.16511 47.071521 193.03711 47.242188 C 192.90911 47.370187 192.80213 47.498953 192.7168 47.626953 C 192.63146 47.754953 192.56806 47.881766 192.52539 48.009766 L 192.52539 48.330078 L 192.52539 48.394531 C 192.52539 48.522531 192.54718 48.671131 192.58984 48.841797 C 192.67518 49.012463 192.78216 49.184802 192.91016 49.355469 C 193.16616 49.696801 193.48514 49.994001 193.86914 50.25 C 194.29581 50.505999 194.74356 50.676386 195.21289 50.761719 C 195.29822 50.804385 195.36358 50.826172 195.40625 50.826172 L 195.66211 50.826172 C 196.00344 50.826172 196.32243 50.719192 196.62109 50.505859 L 197.51758 49.994141 L 197.64453 49.867188 C 197.72986 49.824521 197.79522 49.780948 197.83789 49.738281 C 198.22189 49.396949 198.52104 49.097796 198.73438 48.841797 C 198.94771 48.543131 199.05273 48.287552 199.05273 48.074219 C 199.05273 47.818219 198.98933 47.647833 198.86133 47.5625 C 198.77599 47.477167 198.6274 47.433594 198.41406 47.433594 C 198.32873 47.433594 198.24354 47.45538 198.1582 47.498047 L 197.96484 47.498047 C 197.87951 47.498047 197.79432 47.519833 197.70898 47.5625 L 197.51758 47.5625 L 197.45312 47.5625 L 197.38867 47.5625 C 197.26067 47.519833 197.11207 47.391067 196.94141 47.177734 C 196.77074 46.964401 196.51516 46.601843 196.17383 46.089844 C 196.13116 46.004511 196.06776 45.919318 195.98242 45.833984 C 195.93976 45.705985 195.89618 45.599005 195.85352 45.513672 C 195.76818 45.385672 195.68299 45.300479 195.59766 45.257812 C 195.51232 45.172479 195.40534 45.130859 195.27734 45.130859 z M 277.06836 45.130859 C 276.89769 45.130859 276.68569 45.257672 276.42969 45.513672 C 276.17369 45.727005 275.91811 45.984537 275.66211 46.283203 L 275.66211 46.345703 L 275.59766 46.345703 C 275.55499 46.431036 275.48963 46.516229 275.4043 46.601562 L 275.27734 46.730469 C 275.10668 46.901135 274.95808 47.071521 274.83008 47.242188 C 274.70208 47.370187 274.5951 47.498953 274.50977 47.626953 C 274.42443 47.754953 274.35907 47.881766 274.31641 48.009766 L 274.31641 48.330078 L 274.31641 48.394531 C 274.31641 48.522531 274.33819 48.671131 274.38086 48.841797 C 274.46619 49.012463 274.57317 49.184802 274.70117 49.355469 C 274.95717 49.696801 275.27811 49.994001 275.66211 50.25 C 276.08878 50.505999 276.53653 50.676386 277.00586 50.761719 C 277.09119 50.804385 277.1546 50.826172 277.19727 50.826172 L 277.45312 50.826172 C 277.79446 50.826172 278.1154 50.719192 278.41406 50.505859 L 279.30859 49.994141 L 279.4375 49.867188 C 279.52283 49.824521 279.58624 49.780948 279.62891 49.738281 C 280.01291 49.396949 280.31206 49.097796 280.52539 48.841797 C 280.73872 48.543131 280.8457 48.287552 280.8457 48.074219 C 280.8457 47.818219 280.78034 47.647833 280.65234 47.5625 C 280.56701 47.477167 280.41841 47.433594 280.20508 47.433594 C 280.11974 47.433594 280.03455 47.45538 279.94922 47.498047 L 279.75781 47.498047 C 279.67248 47.498047 279.58729 47.519833 279.50195 47.5625 L 279.30859 47.5625 L 279.24609 47.5625 L 279.18164 47.5625 C 279.05364 47.519833 278.90309 47.391067 278.73242 47.177734 C 278.56176 46.964401 278.30618 46.601843 277.96484 46.089844 C 277.92218 46.004511 277.85877 45.919318 277.77344 45.833984 C 277.73077 45.705985 277.6872 45.599005 277.64453 45.513672 C 277.5592 45.385672 277.47401 45.300479 277.38867 45.257812 C 277.30334 45.172479 277.19636 45.130859 277.06836 45.130859 z "
       transform="matrix(0.26458333,0,0,0.26458333,-66.21757,107.06014)" />
  </g>
</svg>
