<?xml version="1.0" encoding="UTF-8" standalone="no"?>
<!-- Created with Inkscape (http://www.inkscape.org/) -->

<svg
   width="600"
   height="600"
   version="1.1"
   viewBox="0 0 599.99997 600.00002"
   id="svg5455"
   sodipodi:docname="favicon.svg"
   inkscape:version="1.2.2 (b0a8486541, 2022-12-01)"
   inkscape:export-filename="favicon.png"
   inkscape:export-xdpi="10.24"
   inkscape:export-ydpi="10.24"
   xmlns:inkscape="http://www.inkscape.org/namespaces/inkscape"
   xmlns:sodipodi="http://sodipodi.sourceforge.net/DTD/sodipodi-0.dtd"
   xmlns="http://www.w3.org/2000/svg"
   xmlns:svg="http://www.w3.org/2000/svg"
   xmlns:rdf="http://www.w3.org/1999/02/22-rdf-syntax-ns#"
   xmlns:cc="http://creativecommons.org/ns#"
   xmlns:dc="http://purl.org/dc/elements/1.1/">
  <defs
     id="defs5459" />
  <sodipodi:namedview
     id="namedview5457"
     pagecolor="#505050"
     bordercolor="#eeeeee"
     borderopacity="1"
     inkscape:showpageshadow="0"
     inkscape:pageopacity="0"
     inkscape:pagecheckerboard="0"
     inkscape:deskcolor="#505050"
     showgrid="false"
     inkscape:zoom="0.9121852"
     inkscape:cx="-62.487311"
     inkscape:cy="346.42088"
     inkscape:window-width="1920"
     inkscape:window-height="1012"
     inkscape:window-x="0"
     inkscape:window-y="0"
     inkscape:window-maximized="1"
     inkscape:current-layer="svg5455" />
  <metadata
     id="metadata5451">
    <rdf:RDF>
      <cc:Work
         rdf:about="">
        <dc:format>image/svg+xml</dc:format>
        <dc:type
           rdf:resource="http://purl.org/dc/dcmitype/StillImage" />
      </cc:Work>
    </rdf:RDF>
  </metadata>
  <g
     inkscape:groupmode="layer"
     id="layer1"
     inkscape:label="Layer 1">
    <rect
       style="fill:#084887;stroke:#000000;stroke-width:0.7;fill-opacity:1"
       id="rect5574"
       width="600"
       height="600"
       x="0"
       y="0"
       rx="35"
       ry="35" />
  </g>
  <path
     d="m 297.99629,570.17555 -1.54964,-1.25022 -11.63542,-36.00632 -5.80402,-15.00263 -12.27465,-30.00527 -22.18889,-44.00772 -10.8154,-18.00316 -18.82831,-28.00491 -16.2541,-20.98368 -24.03672,-24.02422 -16.97047,-13.21982 -14.00246,-9.04734 -11.32511,-6.11782 -16.68043,-6.77369 -15.21392,-4.70045 25.21568,-16.91296 12.0021,-9.52918 12.16626,-12.71223 7.45293,-11.24972 5.84616,-14.36502 2.3174,-13.30734 -0.55733,-10.5646 -0.55733,-10.5646 -5.28792,-21.96261 -6.76944,-20.45609 -4.28375,-10.77589 -4.28375,-10.77589 -14.41628,-29.37515 -9.42316,-16.63292 -6.04831,-10.001755 -15.11015,-24.004212 -26.702185,-39.694458 0.765334,-0.765322 21.88384,16.47289 14.002461,10.844397 30.00526,25.081901 29.00509,25.898289 21.00368,19.16337 33.06706,33.01579 12.07274,13.00228 20.96118,25.00439 9.976,14.00246 3.71903,5.67049 3.7189,5.6705 v 1.45137 l -10.50184,-9.87173 -16.2216,-12.29765 -25.29694,-17.10801 -13.49237,-6.77344 -15.36144,-6.13157 -3.57138,-0.66998 -3.57138,-0.67001 v 1.16576 l 5.15941,11.55903 5.90316,16.0028 1.46988,8.38248 1.46989,8.38247 -0.007,16.24035 -2.99253,18.45073 -5.8169,14.64257 -10.06701,17.49557 -8.47211,10.42133 -10.89091,11.30336 1.12352,1.81794 17.62059,10.69388 16.00281,12.41668 15.1114,13.77741 19.58344,21.38501 10.8759,13.62114 14.75884,21.00368 13.80993,22.00386 11.78856,21.00369 7.64247,14.00245 3.31646,6.50115 h 16.41663 l 13.48986,-24.5043 18.04692,-30.00527 9.91624,-15.00263 12.18651,-17.00298 18.22695,-22.00386 19.86599,-20.16354 17.00298,-13.47112 23.00404,-15.35019 0.5334,-0.22404 -12.73223,-13.17856 -12.47844,-18.21945 -7.99153,-17.05299 -2.54682,-10.18066 -2.54682,-10.18066 -0.0775,-23.00404 2.63746,-10.00175 2.63746,-10.00176 9.05997,-21.83758 -0.92308,-0.92306 -9.5783,2.34853 -14.2125,5.84691 -14.79259,8.29595 -11.00193,7.15076 -26.00457,18.83705 -11.50201,11.22497 v -1.80219 l 14.96012,-22.27516 26.42464,-31.86934 50.13254,-49.81999 22.85276,-20.192295 28.15619,-24.766845 32.27817,-26.242098 11.7298,-9.098097 13.50237,-9.580681 v 0.957443 l -34.56481,51.72782 -10.33919,17.002983 -12.48794,22.00386 -7.79337,15.00263 -9.13348,20.00351 -5.78201,15.00264 -3.31321,10.00175 -3.3132,10.00176 -1.64429,5.5896 -1.64429,5.58961 -1.49414,9.91311 -1.49414,9.91312 -0.006,7.41942 -0.006,7.41943 2.28628,13.16606 6.71068,14.74259 4.39789,6.13132 4.3979,6.13133 16.71293,16.19534 29.67396,19.47592 -0.50639,0.5064 -0.50639,0.50639 -23.6604,7.89876 -17.72061,9.03683 -12.70223,7.71698 -15.58523,11.64568 -20.75614,20.03476 -16.41163,20.00351 -14.88012,20.0035 -11.30873,18.00316 -14.2275,25.00439 -19.6697,40.00702 -4.59218,11.00193 -4.59218,11.00193 -6.85945,18.00316 -7.9719,24.00421 -4.31001,14.50255 h -3.56075 l -1.54977,-1.25022 z m -49.09611,-226.87731 -3.75466,-0.88493 -9.71145,-4.92111 -16.31036,-15.34395 -12.06687,-16.01406 0.46768,-0.46765 0.46767,-0.46767 11.65717,2.52857 16.69668,8.70827 11.61754,7.88939 6.17658,7.49331 1.65379,5.03264 1.65379,5.0325 0.46143,1.25022 0.46141,1.25022 -5.715,-0.20103 z m 94.77288,-2.16476 0.66175,-3.25057 0.92025,-3.61588 0.92026,-3.61588 9.49717,-8.88269 12.826,-7.51632 13.17856,-6.06819 10.83003,-3.81204 0.33923,0.33925 0.33926,0.33923 -15.9353,21.06245 -11.00905,10.06164 -9.31001,5.20341 -10.12303,3.00628 h -3.79654 z"
     stroke-width="0.8"
     id="path5453"
     style="fill:#c96480;fill-opacity:1;stroke:#000000;stroke-width:6.2511;stroke-dasharray:none;stroke-opacity:1" />
</svg>
