<?xml version="1.0" encoding="UTF-8" standalone="no"?>
<!-- Created with Inkscape (http://www.inkscape.org/) -->

<svg
   width="600"
   height="600"
   version="1.1"
   viewBox="0 0 599.99997 600.00002"
   id="svg5455"
   sodipodi:docname="mobile.svg"
   inkscape:version="1.2.2 (b0a8486541, 2022-12-01)"
   xmlns:inkscape="http://www.inkscape.org/namespaces/inkscape"
   xmlns:sodipodi="http://sodipodi.sourceforge.net/DTD/sodipodi-0.dtd"
   xmlns="http://www.w3.org/2000/svg"
   xmlns:svg="http://www.w3.org/2000/svg"
   xmlns:rdf="http://www.w3.org/1999/02/22-rdf-syntax-ns#"
   xmlns:cc="http://creativecommons.org/ns#"
   xmlns:dc="http://purl.org/dc/elements/1.1/">
  <defs
     id="defs5459">
    <linearGradient
       id="linearGradient7594"
       inkscape:swatch="solid">
      <stop
         style="stop-color:#084887;stop-opacity:1;"
         offset="0"
         id="stop7592" />
    </linearGradient>
  </defs>
  <sodipodi:namedview
     id="namedview5457"
     pagecolor="#505050"
     bordercolor="#eeeeee"
     borderopacity="1"
     inkscape:showpageshadow="0"
     inkscape:pageopacity="0"
     inkscape:pagecheckerboard="0"
     inkscape:deskcolor="#505050"
     showgrid="false"
     inkscape:zoom="0.9121852"
     inkscape:cx="4.9332087"
     inkscape:cy="346.42088"
     inkscape:window-width="1920"
     inkscape:window-height="1012"
     inkscape:window-x="0"
     inkscape:window-y="0"
     inkscape:window-maximized="1"
     inkscape:current-layer="layer1" />
  <metadata
     id="metadata5451">
    <rdf:RDF>
      <cc:Work
         rdf:about="">
        <dc:format>image/svg+xml</dc:format>
        <dc:type
           rdf:resource="http://purl.org/dc/dcmitype/StillImage" />
      </cc:Work>
    </rdf:RDF>
  </metadata>
  <g
     inkscape:groupmode="layer"
     id="layer1"
     inkscape:label="Layer 1">
    <rect
       style="fill:none;fill-opacity:1;stroke:#084887;stroke-width:50;stroke-linejoin:miter;stroke-dasharray:none;stroke-opacity:1"
       id="rect5574"
       width="550"
       height="550"
       x="25"
       y="25" />
  </g>
  <path
     d="m 298.32495,515.86842 -1.2395,-1 -9.3067,-28.8 -4.6424,-12 -9.818,-24 -17.748,-35.2 -8.6508,-14.4 -15.06,-22.4 -13.001,-16.784 -19.226,-19.216 -13.574,-10.574 -11.2,-7.2366 -9.0585,-4.8934 -13.342,-5.418 -12.169,-3.7597 20.169,-13.528 9.6,-7.622 9.7313,-10.168 5.9613,-8.9982 4.6761,-11.49 1.8536,-10.644 -0.44579,-8.4502 -0.44578,-8.4502 -4.2296,-17.567 -5.4146,-16.362 -3.4264,-8.6192 -3.4264,-8.6192 -11.531,-23.496 -7.5372,-13.304 -4.8378,-8 -12.086,-19.2 -21.358,-31.749995 0.61216,-0.61215 17.504,13.176 11.2,8.673995 24,20.062 23.2,20.715 16.8,15.328 26.449,26.408 9.6565,10.4 16.766,20 7.9794,11.2 2.9747,4.5356 2.9746,4.5356 v 1.1609 l -8.4,-7.896 -12.975,-9.8364 -20.234,-13.684 -10.792,-5.4178 -12.287,-4.9044 -2.8566,-0.53589 -2.8566,-0.53591 v 0.93244 l 4.1268,9.2456 4.7217,12.8 1.1757,6.7048 1.1757,6.7048 -0.006,12.99 -2.3936,14.758 -4.6527,11.712 -8.0522,13.994 -6.7765,8.3356 -8.7112,9.0411 0.89866,1.4541 14.094,8.5536 12.8,9.9316 12.087,11.02 15.664,17.105 8.6992,10.895 11.805,16.8 11.046,17.6 9.4292,16.8 6.1129,11.2 2.6527,5.2 h 13.131 l 10.79,-19.6 14.435,-24 7.9316,-12 9.7475,-13.6 14.579,-17.6 15.89,-16.128 13.6,-10.775 18.4,-12.278 0.42665,-0.1792 -10.184,-10.541 -9.981,-14.573 -6.3921,-13.64 -2.0371,-8.1431 -2.0371,-8.1431 -0.062,-18.4 2.1096,-8 2.1096,-8 7.2467,-17.467 -0.73833,-0.73832 -7.6613,1.8785 -11.368,4.6767 -11.832,6.6356 -8.8,5.7196 -20.8,15.067 -9.2,8.9784 v -1.4415 l 11.966,-17.817 21.136,-25.491 40.099,-39.849 18.279,-16.151 22.521,-19.81 25.818,-20.989995 9.3822,-7.2772 10.8,-7.6632 v 0.76582 l -27.647,41.374995 -8.2699,13.6 -9.9886,17.6 -6.2336,12 -7.3055,16 -4.6248,12 -2.6501,8 -2.6501,8 -1.3152,4.4709 -1.3152,4.4709 -1.1951,7.9291 -1.1951,7.9291 -0.005,5.9345 -0.005,5.9345 1.8287,10.531 5.3676,11.792 3.5177,4.9042 3.5177,4.9042 13.368,12.954 23.735,15.578 -0.40504,0.40505 -0.40504,0.40504 -18.925,6.3179 -14.174,7.2282 -10.16,6.1725 -12.466,9.31491 -16.602,16.02499 -13.127,16 -11.902,16 -9.0454,14.4 -11.38,20 -15.733,32 -3.6731,8.8 -3.6731,8.8 -5.4866,14.4 -6.3764,19.2 -3.4474,11.6 h -2.8481 l -1.2396,-1 z m -39.27,-181.47 -3.0032,-0.70782 -7.7678,-3.9362 -13.046,-12.273 -9.6518,-12.809 0.37408,-0.37406 0.37407,-0.37407 9.3241,2.0225 13.355,6.9654 9.2924,6.3104 4.9404,5.9936 1.3228,4.0254 1.3228,4.0253 0.36908,1 0.36906,1 -4.5712,-0.1608 z m 75.805,-1.7315 0.52931,-2.6 0.73607,-2.8922 0.73608,-2.8922 7.5964,-7.1049 10.259,-6.012 10.541,-4.8537 8.6625,-3.0491 0.27134,0.27135 0.27136,0.27134 -12.746,16.847 -8.8057,8.0479 -7.4467,4.162 -8.097,2.4046 h -3.0367 z"
     stroke-width="0.8"
     id="path5453"
     style="fill:#c96480;fill-opacity:1;stroke:none;stroke-opacity:1;stroke-width:2;stroke-dasharray:none" />
</svg>
