<?xml version="1.0" encoding="UTF-8" standalone="no"?>
<svg
   version="1.1"
   id="Layer_1"
   x="0px"
   y="0px"
   width="865.7027"
   viewBox="0 0 865.7027 683.44964"
   enable-background="new 0 0 1000 1148"
   xml:space="preserve"
   sodipodi:docname="logo-minimal-mono.svg"
   inkscape:version="1.1.2 (0a00cf5339, 2022-02-04)"
   height="683.44965"
   inkscape:export-filename="/home/emanuele/Pubblici/loghi_icranet/logo-minimal-filled.png"
   inkscape:export-xdpi="96"
   inkscape:export-ydpi="96"
   xmlns:inkscape="http://www.inkscape.org/namespaces/inkscape"
   xmlns:sodipodi="http://sodipodi.sourceforge.net/DTD/sodipodi-0.dtd"
   xmlns="http://www.w3.org/2000/svg"
   xmlns:svg="http://www.w3.org/2000/svg"><defs
   id="defs229" /><sodipodi:namedview
   id="namedview227"
   pagecolor="#808080"
   bordercolor="#666666"
   borderopacity="1.0"
   inkscape:pageshadow="2"
   inkscape:pageopacity="0"
   inkscape:pagecheckerboard="false"
   showgrid="false"
   inkscape:zoom="1.0113844"
   inkscape:cx="413.29487"
   inkscape:cy="355.45337"
   inkscape:window-width="1920"
   inkscape:window-height="1012"
   inkscape:window-x="1920"
   inkscape:window-y="0"
   inkscape:window-maximized="1"
   inkscape:current-layer="Layer_1"
   fit-margin-top="0"
   fit-margin-left="0"
   fit-margin-right="0"
   fit-margin-bottom="0" />



<path
   fill="#a0302c"
   opacity="1"
   stroke="none"
   d="m -68.866668,346.66588 c 0.646001,-0.96759 1.8236,-1.43567 1.854636,-1.97028 0.269234,-4.6376 0.02107,-9.32187 0.533611,-13.92471 0.686559,-6.16559 1.917401,-12.27042 2.909538,-18.40219 1.344475,-8.30924 2.488724,-16.65717 4.088827,-24.91681 1.244295,-6.42304 2.916532,-12.77414 4.644524,-19.08994 2.685374,-9.81506 5.199126,-19.70239 8.472418,-29.3255 5.24667,-15.42465 10.166249,-31.05978 16.856919,-45.86822 7.910755,-17.50885 16.943268,-34.59137 26.6258123,-51.19609 9.208321,-15.79151 19.5609517,-30.95264 30.0355837,-45.954453 5.921161,-8.48032 12.925541,-16.23548 19.757041,-24.04157 9.67142,-11.05116 19.26174,-22.21632 29.58803,-32.63788 8.44882,-8.52678 18.11911,-15.82799 26.901028,-24.04332 16.65583,-15.58124049 35.11437,-28.763788 54.24976,-40.991846 24.21849,-15.476295 49.42322,-29.233688 76.35513,-39.409656 21.34592,-8.065354 42.78064,-16.068768 64.63221,-22.564848 15.80111,-4.697382 32.31237,-7.082342 48.57946,-10.108845 10.76618,-2.003054 21.65473,-3.357452 32.50083,-4.916412 3.82046,-0.54913 7.67758,-0.84314 11.46631,-1.67986 25.63589,-0.42623 51.32345,-0.42623 77.4797,-0.42623 1.67829,0.67011 2.84778,1.8211 4.10456,1.92592 5.05169,0.42132 10.16479,0.22262 15.19085,0.8065 7.30011,0.84806 14.58338,1.97079 21.80438,3.341838 12.66285,2.404283 25.40149,4.583815 37.87433,7.772749 17.2959,4.422047 34.68799,8.817953 51.46491,14.827331 18.77606,6.725466 37.03973,14.950747 55.29333,23.048579 24.45954,10.850967 47.09919,25.038139 68.91999,40.351516 14.22564,9.9832435 27.50592,21.3572435 40.85162,32.535684 9.04126,7.57298 17.81915,15.53794 26.06024,23.96759 8.7215,8.92111 16.53577,18.72133 24.98108,27.92209 15.1319,16.4854 27.7691,34.819223 39.89368,53.517183 14.1336,21.79624 26.76233,44.45217 36.34472,68.64046 7.11304,17.95502 14.45539,35.90146 20.05652,54.3494 5.34076,17.59036 8.99371,35.73922 12.56208,53.80581 2.48803,12.5968 3.57452,25.47003 5.33001,38.21387 0.054,0.39191 0.58624,0.71796 1.31593,1.02408 0.4204,29.30362 0.4204,58.65787 0.4204,88.48077 -0.6392,1.34406 -1.76617,2.17664 -1.84735,3.10114 -3.41711,38.8966 -12.11829,76.63513 -25.1272,113.37964 -9.75293,27.54754 -22.12585,53.89379 -36.55823,79.34784 -12.89282,22.73889 -27.80444,44.04742 -43.97534,64.4652 -8.60382,10.86329 -17.95398,21.23963 -27.81134,30.98157 -14.54339,14.37299 -29.33532,28.58112 -44.94366,41.76789 -19.21546,16.23419 -39.67646,31.01287 -61.88001,42.9505 -20.42846,10.98321 -41.1477,21.51758 -62.24377,31.14306 -24.76721,11.30048 -50.7785,19.39576 -77.37488,25.14508 -18.94128,4.09443 -38.09839,7.3927 -57.30005,10.01453 -14.21576,1.94104 -28.65826,2.22168 -43.93475,3.18817 -11.98093,-0.018 -23.0268,0.018 -34.07266,0.0538 -21.72727,0.2038 -43.15512,-2.60742 -64.58072,-5.91619 -31.03223,-4.79218 -61.44303,-12.16126 -90.69022,-23.40107 C 236.681,837.45189 214.98947,827.6671 193.72699,817.20293 170.81003,805.92436 149.41446,791.91203 128.98948,776.51463 110.76527,762.77635 92.962002,748.53594 77.307602,731.83153 64.659422,718.3351 51.362492,705.35188 39.733202,691.02132 27.660198,676.14387 16.752544,660.24281 6.2598463,644.18526 -2.3458977,631.01558 -10.477669,617.37972 -17.2318,603.19447 c -9.350369,-19.638 -18.418694,-39.57654 -25.37661,-60.14129 -7.164354,-21.17493 -12.195975,-43.13324 -17.10843,-64.98542 -3.06167,-13.61926 -4.140698,-27.68176 -6.178208,-41.53527 -0.616957,-4.19483 -1.463685,-8.3559 -2.588393,-12.43384 -0.383224,-25.58899 -0.383224,-51.27655 -0.383227,-77.43277 m 81.187053,284.80911 c 19.352207,31.52033 41.672367,60.81317 68.135567,86.63178 C 197.85507,832.64632 338.5878,879.60097 500.77902,858.56313 612.64731,844.05269 708.74509,794.92415 786.44412,713.01497 889.30917,604.57619 932.97103,474.95052 915.54873,326.3604 903.05258,219.78417 857.62381,127.62527 781.35226,52.385877 663.01828,-64.346633 519.78262,-110.22912 355.66662,-87.131772 245.77951,-71.666487 151.86313,-22.146346 75.105632,58.106337 -5.6307557,142.51913 -50.027573,243.56331 -56.477713,360.34132 c -5.360533,97.05103 17.972012,187.33222 68.798098,271.13367 z"
   id="path8"
   style="display:none" />







<path
   fill="#ebd4d4"
   opacity="1"
   stroke="none"
   d="m 414.27304,875.65395 c 10.83691,-0.42279 21.88278,-0.45874 33.39508,-0.44239 -0.20691,0.37195 -0.88043,0.96991 -1.55377,0.96985 -10.54413,-10e-4 -21.08826,-0.0798 -31.84131,-0.52746 z"
   id="path24" />



<path
   fill="#dcb5b3"
   opacity="1"
   stroke="none"
   d="m 108.96344,904.80122 c -9.037748,0.363 -18.292708,0.344 -27.892578,0.04 8.99518,-0.3306 18.3353,-0.3765 27.892578,-0.04 z"
   id="path32" />
<path
   fill="#eaea4e"
   opacity="1"
   stroke="none"
   d="M 12.138676,631.16109 C -38.505701,547.67354 -61.838246,457.39235 -56.477713,360.34132 -50.027573,243.56331 -5.6307557,142.51913 75.105632,58.106337 151.86313,-22.146346 245.77951,-71.666487 355.66662,-87.131772 519.78262,-110.22912 663.01828,-64.346633 781.35226,52.385877 857.62381,127.62527 903.05258,219.78417 915.54873,326.3604 932.97103,474.95052 889.30917,604.57619 786.44412,713.01497 708.74509,794.92415 612.64731,844.05269 500.77902,858.56313 338.5878,879.60097 197.85507,832.64632 80.455952,718.10677 53.992752,692.28816 31.672592,662.99532 12.138676,631.16109 m 541.299284,36.84479 c 30.7359,-7.14277 59.90924,-18.16773 86.5719,-35.26295 31.19995,-20.00433 55.75433,-45.85632 69.76428,-80.70928 9.95782,-24.77228 12.60089,-50.56055 10.42303,-77.0412 -0.34491,-4.19342 0.97681,-8.52381 1.52796,-12.7909 0.60016,-0.0856 1.20038,-0.17126 1.80053,-0.25695 36.36335,36.77319 67.18726,77.45001 87.37366,126.12487 1.10278,-1.22192 1.89655,-2.02441 2.6037,-2.89703 6.98761,-8.62225 10.94165,-18.83698 13.40124,-29.3363 6.64216,-28.35364 13.49976,-56.71656 18.4502,-85.39032 5.26636,-30.50379 10.36499,-61.25928 12.11566,-92.09906 3.26844,-57.57651 -4.31177,-114.13331 -24.25134,-168.53998 C 800.587,120.76845 742.87155,53.921827 657.29813,11.660327 c -12.85462,-6.3483705 -23.77161,-6.2176005 -35.33381,2.19753 -17.10247,12.44751 -34.57769,24.3863 -52.02874,36.34542 -1.53302,1.05061 -4.43402,1.50558 -6.06745,0.79133 -15.31433,-6.69659 -31.18731,-8.03897 -47.48913,-5.41427 -3.401,0.54757 -6.88001,1.5874 -9.91993,3.17323 -4.60748,2.40355 -4.71606,6.966 -0.46063,9.96463 3.12622,2.20294 6.47284,4.09897 9.76288,6.06204 6.21674,3.70937 12.46338,7.36859 19.08008,11.27442 -1.39539,1.19996 -2.21875,1.98335 -3.11664,2.6692 -32.57239,24.882073 -65.15588,49.749563 -97.72534,74.635443 -4.71591,3.60333 -9.07178,7.7735 -14.09992,10.85678 -30.39114,18.63605 -60.90472,37.07297 -91.42575,55.49634 -26.3815,15.92459 -52.41952,32.47656 -79.34054,47.43536 -40.17908,22.32575 -81.17577,43.17676 -121.457,65.32379 -14.82338,8.15009 -29.437038,17.14475 -42.672318,27.61713 -22.76872,18.01572 -41.05639,40.34985 -56.273511,65.11517 -10.057015,16.36737 -17.077362,33.87702 -19.7095107,53.00836 -3.718735,27.02912 -0.226456,53.5365 6.2672647,79.72486 9.480538,38.23376 26.499287,71.94433 57.711057,97.57776 14.97012,12.29449 30.769548,16.25122 48.726708,9.11163 12.51365,-4.97534 24.56742,-11.09595 36.99291,-16.30847 7.48437,-3.13989 15.0918,-6.5188 22.98204,-8.0647 30.60432,-5.99646 61.36571,-5.26819 91.89525,0.55597 49.07754,9.36285 98.0563,19.24329 147.07745,28.90186 44.08844,8.68664 88.07392,8.46014 132.76441,-1.70526 z"
   id="path34"
   style="display:none" />



<path
   fill="#a0302a"
   opacity="1"
   stroke="none"
   d="m 553.02835,668.09035 c -44.28088,10.08093 -88.26636,10.30743 -132.3548,1.62079 -49.02115,-9.65857 -97.99991,-19.53901 -147.07745,-28.90186 -30.52954,-5.82416 -61.29093,-6.55243 -91.89525,-0.55597 -7.89024,1.5459 -15.49767,4.92481 -22.98204,8.0647 -12.42549,5.21252 -24.47926,11.33313 -36.99291,16.30847 -17.95716,7.13959 -33.756588,3.18286 -48.726708,-9.11163 C 41.787422,629.88142 24.768673,596.17085 15.288135,557.93709 8.7944143,531.74873 5.3021353,505.24135 9.0208703,478.21223 11.653019,459.08089 18.673366,441.57124 28.730381,425.20387 43.947502,400.43855 62.235172,378.10442 85.003892,360.0887 c 13.23528,-10.47238 27.848938,-19.46704 42.672318,-27.61713 40.28123,-22.14703 81.27792,-42.99804 121.457,-65.32379 26.92102,-14.9588 52.95904,-31.51077 79.34054,-47.43536 30.52103,-18.42337 61.03461,-36.86029 91.42575,-55.49634 5.02814,-3.08328 9.38401,-7.25345 14.09992,-10.85678 32.56946,-24.88588 65.15295,-49.75337 97.72534,-74.635443 0.89789,-0.68585 1.72125,-1.46924 3.11664,-2.6692 -6.6167,-3.90583 -12.86334,-7.56505 -19.08008,-11.27442 -3.29004,-1.96307 -6.63666,-3.8591 -9.76288,-6.06204 -4.25543,-2.99863 -4.14685,-7.56108 0.46063,-9.96463 3.03992,-1.58583 6.51893,-2.62566 9.91993,-3.17323 16.30182,-2.6247 32.1748,-1.28232 47.48913,5.41427 1.63343,0.71425 4.53443,0.25928 6.06745,-0.79133 17.45105,-11.95912 34.92627,-23.89791 52.02874,-36.34542 11.5622,-8.4151305 22.47919,-8.5459005 35.33381,-2.19753 85.57342,42.2615 143.28887,109.108123 175.92065,198.146453 19.93957,54.40667 27.51978,110.96347 24.25134,168.53998 -1.75067,30.83978 -6.8493,61.59527 -12.11566,92.09906 -4.95044,28.67376 -11.80804,57.03668 -18.4502,85.39032 -2.45959,10.49932 -6.41363,20.71405 -13.40124,29.3363 -0.70715,0.87262 -1.50092,1.67511 -2.6037,2.89703 -20.1864,-48.67486 -51.01031,-89.35168 -87.37366,-126.12487 -0.60015,0.0857 -1.20037,0.17132 -1.80053,0.25695 -0.55115,4.26709 -1.87287,8.59748 -1.52796,12.7909 2.17786,26.48065 -0.46521,52.26892 -10.42303,77.0412 -14.00995,34.85296 -38.56433,60.70495 -69.76428,80.70928 -26.66266,17.09522 -55.836,28.12018 -86.98151,35.34742 M 470.06216,137.34039 c 33.02814,-14.15446 66.05622,-28.30893 100.17761,-42.931913 -8.9682,-4.69876 -17.00469,-9.02451 -25.18499,-13.05863 -1.09992,-0.54242 -3.2945,-0.10281 -4.35968,0.70401 -24.01068,18.188423 -47.93433,36.491843 -72.3208,54.965323 -0.21283,0.23633 -0.42572,0.47264 -0.63855,0.70897 0.53247,-0.1019 1.06494,-0.20378 2.32641,-0.38776 m 367.96649,119.68703 c 0.10932,-0.34686 0.21857,-0.69372 0.3241,-1.84412 -4.39276,-14.83935 -8.06451,-29.93887 -13.30823,-44.47122 -18.68542,-51.78479 -47.82678,-96.88161 -87.88519,-134.822513 -2.90436,-2.75082 -5.83179,-3.88429 -9.78912,-3.60998 -12.13092,0.84092 -24.28845,1.29663 -36.4198,2.13307 -8.21784,0.56659 -16.40888,1.52222 -25.92499,2.42898 3.94482,3.42963 6.79401,5.932 9.66992,8.40317 40.33942,34.661783 72.07007,75.264213 87.22821,127.155503 1.7334,5.93406 4.93897,9.06965 10.5459,11.75791 21.91974,10.50961 43.47797,21.77313 65.5592,32.8692 m -175.78991,8.4386 c 1.67224,-9.07294 3.34442,-18.14585 5.31262,-27.79181 -0.46301,-1.51804 -0.92603,-3.03607 -1.87549,-5.14603 -4.60058,-1.55237 -5.71832,1.15201 -6.54706,4.93189 -3.13037,14.27713 -6.22424,28.57092 -9.83197,42.73102 -1.73321,6.80273 -4.58319,13.32095 -7.24066,20.85626 -1.36163,-2.33951 -2.13818,-3.59729 -2.8421,-4.8945 -13.08411,-24.1124 -30.82648,-44.50824 -50.59882,-63.26087 -4.16742,-3.95245 -7.02539,-3.03506 -8.22601,2.90039 0.59558,0.75675 1.1911,1.51349 2.1518,2.83612 0.96118,0.92237 1.93322,1.83374 2.88201,2.76865 19.31482,19.03174 36.84632,39.4046 49.06873,63.91629 2.29016,4.59299 2.30163,8.29691 0.0514,13.009 -18.4657,38.66809 -42.94592,73.18387 -71.50757,104.94937 -0.98724,1.09797 -1.59686,2.53547 -2.53766,4.06733 -1.1997,-1.58899 -1.57983,-1.92749 -1.75714,-2.35095 -9.75836,-23.30152 -24.81494,-43.2624 -39.85498,-63.2327 -1.77466,-2.35639 -3.81592,-4.8198 -6.97577,-2.48056 -3.36181,2.4888 -1.51916,5.14123 0.36518,7.73572 7.24273,9.97186 14.94793,19.66543 21.43597,30.11166 6.55884,10.56039 11.90167,21.8779 17.72974,32.88882 1.54193,2.91321 0.6228,5.18982 -1.67389,7.52112 -39.96692,40.56964 -84.42377,75.41248 -133.14957,104.86115 -2.58618,1.56298 -4.16132,1.48645 -6.38794,-0.62983 -10.62591,-10.09893 -21.43219,-20.00805 -32.1672,-29.99236 -2.26502,-2.10657 -4.75855,-4.53596 -7.68036,-1.56983 -3.25174,3.30109 -0.31595,5.67853 2.02664,7.86151 8.89685,8.29083 17.81763,16.55591 26.72339,24.83722 1.99423,1.85437 3.9638,3.73535 6.20758,5.85205 -2.10102,1.21796 -3.51761,2.07343 -4.96503,2.87323 -50.72424,28.02979 -103.75006,50.82459 -158.50879,69.67725 -1.73123,0.59607 -3.69263,0.90564 -5.09595,1.95282 -1.1531,0.86041 -2.45083,2.79223 -2.2084,3.93646 0.30112,1.42084 1.98059,3.40131 3.30963,3.61462 8.70221,1.39704 17.47058,2.3819 26.77667,3.79151 0.82956,0.0716 1.65915,0.14325 3.32477,0.46362 4.36624,0.42993 8.73249,0.85986 13.57248,1.54785 0.5307,0.017 1.06137,0.034 2.44763,0.32923 9.99906,0.86346 19.99814,1.72686 30.49463,2.84606 0.55057,-10e-4 1.10117,-0.003 2.53827,0.19495 3.01801,0.11731 6.03604,0.23456 9.52905,0.5968 0.52637,-0.0272 1.05274,-0.0543 2.47181,0.21704 5.32171,0.2392 10.6434,0.47834 16.64828,1.00977 1.4874,0.007 2.97479,0.0143 5.38614,0.19086 16.35696,0.13989 32.71396,0.27972 49.74448,0.56048 2.1203,-0.0955 4.2406,-0.19092 7.28396,-0.17407 4.67944,-0.18298 9.35889,-0.36603 14.77433,-0.40979 1.4634,-0.17792 2.92678,-0.35583 5.29821,-0.39007 4.3219,-0.34784 8.6438,-0.69568 13.48566,-0.91901 0.51208,-0.11719 1.02417,-0.23431 2.4292,-0.24536 5.68268,-0.56952 11.36536,-1.13898 17.58325,-1.61975 0.51367,-0.15039 1.02734,-0.30079 2.38294,-0.37232 2.9931,-0.26373 5.98614,-0.52746 10.49871,-0.92505 -2.87402,2.20301 -4.44507,3.65418 -6.23736,4.74024 -10.01618,6.06909 -20.08594,12.04998 -30.69471,18.28912 -0.37747,0.89099 -0.75494,1.78204 -1.2023,3.41321 1.4907,4.67511 4.63568,3.87689 7.97751,2.40662 15.85389,-6.97504 29.49689,-17.26056 42.72309,-28.23548 2.28784,-1.89825 5.32068,-3.45245 8.22253,-3.9693 23.14935,-4.12298 45.87683,-9.71551 67.58862,-18.88586 10.85755,-4.586 21.53943,-9.58789 32.34552,-14.19336 0,0 0.20832,0.0445 0.0902,0.76758 -12.833,19.51574 -26.67297,38.18499 -44.83282,53.20984 -2.31592,1.91619 -3.72168,4.18023 -1.47882,6.7987 2.25738,2.63538 4.77508,1.5213 6.98236,-0.42181 3.2442,-2.85584 6.5918,-5.61102 9.66028,-8.64667 17.02319,-16.84058 30.57275,-36.34814 43.44903,-56.40692 2.23279,-3.47833 5.55567,-6.44409 8.86866,-9.0091 12.87109,-9.96533 26.15386,-19.40838 38.84967,-29.58679 6.56457,-5.263 12.21905,-11.66119 18.24615,-17.60052 0,0 -0.0393,-0.0534 0.24237,0.73273 -0.52484,2.08734 -0.88,4.23528 -1.60083,6.25262 -7.08838,19.83893 -14.22644,39.66016 -21.38153,59.47522 -1.08264,2.99823 -2.8089,6.04162 2.17523,8.15271 1.21417,-0.52295 2.42835,-1.0459 4.20258,-1.9906 11.28509,-25.12647 19.97687,-51.17719 27.16803,-77.71851 2.33001,-8.59961 5.53027,-16.50097 10.40405,-24.03937 4.85315,-7.50671 8.92255,-15.64544 12.37909,-23.90722 12.24097,-29.25812 14.62427,-59.30005 5.42743,-89.86392 -1.27008,-4.22071 -1.25458,-7.83442 0.036,-11.89966 1.07959,-3.40033 1.37457,-7.04975 2.62433,-10.86002 0.0859,-0.42648 0.17181,-0.853 0.54181,-2.04605 0.70648,-5.37503 1.41296,-10.75009 2.40027,-16.7059 0.0136,-0.85172 0.0273,-1.70343 0.35894,-2.93479 0.27368,-0.0339 0.68824,-0.19195 0.79108,-0.0753 0.19971,0.22647 0.2511,0.60184 0.31744,0.92505 6.01191,29.25302 8.51459,58.75784 4.26795,88.41427 -1.08765,7.59552 0.47003,12.01593 6.07745,17.21643 19.24585,17.84931 35.34595,38.50568 50.47901,59.90577 0.98474,1.39257 1.99322,2.76843 3.62915,5.03766 0.29644,-2.30854 0.46844,-3.26166 0.53485,-4.22205 1.19494,-17.28375 2.44104,-34.56427 3.54791,-51.8537 1.99548,-31.16547 1.16284,-62.28311 -1.94489,-93.34155 -0.20025,-2.00086 -0.80816,-4.61164 -2.19903,-5.74482 -20.3407,-16.57171 -41.48779,-31.90185 -66.43335,-41.03329 -1.14667,-0.41974 -2.39722,-0.55582 -4.13226,-0.94284 1.8731,7.81058 3.59918,15.00821 5.41943,22.59872 -6.65637,-2.76074 -8.44257,-1.55316 -9.11999,5.16346 -0.48414,4.79965 -0.94202,9.62716 -1.8678,14.35287 -6.4679,33.01496 -22.67981,61.29773 -42.85639,87.62207 -0.2315,0.30206 -0.80468,0.34216 -1.2948,0.53442 0,-2.14868 0,-4.12982 0.27118,-6.58172 0.0169,-0.5329 0.0339,-1.06574 0.3031,-2.4986 -0.0851,-15.36279 -0.17022,-30.72564 -0.1286,-46.70706 -0.15826,-0.81653 -0.31647,-1.63303 -0.39129,-3.32385 -2.47486,-15.03403 -4.94971,-30.06809 -7.42212,-45.73187 -0.25263,-0.30481 -0.50525,-0.60962 -0.55549,-1.64985 -3.02978,-11.02316 -5.87579,-22.10202 -9.18835,-33.03952 -1.16962,-3.86206 -1.08881,-7.07629 0.29059,-10.93133 4.57147,-12.77591 8.58734,-25.75058 13.17322,-39.07996 0.0933,-0.54474 0.18664,-1.08944 0.59381,-2.36346 M 466.40188,410.9587 c 17.93213,-20.69684 34.73401,-42.24347 50.22736,-65.40571 -4.3612,-0.91525 -7.75598,-1.70285 -11.17944,-2.33502 -71.57444,-13.21741 -143.84949,-19.98816 -216.48667,-23.29834 -2.20352,-0.10037 -5.23114,1.20417 -6.64532,2.88678 -41.93326,49.89432 -82.8927,100.59808 -120.00832,154.19538 -17.61094,25.43127 -33.05411,52.36627 -49.32905,78.71295 -0.88532,1.4331 -1.25428,4.63421 -0.38364,5.46917 5.89323,5.65131 8.82269,12.7818 11.46201,20.22712 3.07338,8.66974 6.44726,17.46081 13.60669,23.56274 13.00862,11.08697 27.44918,19.59113 45.16499,20.27478 3.13124,0.12085 6.77516,-0.37195 9.40523,-1.91009 24.4407,-14.29395 48.99017,-28.43354 72.97927,-43.4621 74.6988,-46.79669 142.53382,-101.86322 201.18689,-168.91766 m 15.78211,-270.23113 c -14.69537,6.68846 -29.39075,13.37691 -44.97727,20.47096 1.89167,0.89649 2.47358,1.2168 3.08692,1.45654 26.85257,10.49695 53.3154,21.79169 77.67325,37.47556 1.27484,0.82092 3.12298,1.06946 4.69958,1.05557 20.30927,-0.17883 40.61737,-0.54303 60.92658,-0.61142 3.16076,-0.0106 4.42944,-1.0877 5.17901,-3.92813 1.86804,-7.07849 4.20172,-14.04077 5.89337,-21.1579 4.39917,-18.50842 8.13251,-37.12237 5.45624,-56.32203 -0.93249,-6.68933 -2.89215,-12.98262 -7.59772,-18.13315 -2.73223,-2.990633 -5.41223,-3.979283 -9.61529,-2.211113 -33.28662,14.003313 -66.68146,27.749363 -100.72467,41.905113 m 152.53033,-13.61699 c 0.78528,1.07573 1.58954,2.13812 2.35297,3.22916 13.88086,19.83816 25.20728,40.89926 28.6203,65.21148 0.81555,5.80939 3.03436,6.95224 8.16864,7.78199 25.77942,4.16617 51.47833,8.8305 77.20728,13.30951 1.21752,0.21194 2.4522,0.32556 3.67889,0.48495 0.47028,-0.35883 0.94055,-0.71768 1.41083,-1.07651 -7.64276,-16.94452 -14.15863,-34.51574 -23.1615,-50.70382 -19.07135,-34.29227 -47.09619,-60.93775 -77.22766,-85.441273 -1.47718,-1.20124 -4.44965,-1.56542 -6.38349,-1.04573 -16.21386,4.35719 -32.34912,9.00761 -48.49707,13.60788 -0.3764,0.1072 -0.62567,0.66046 -0.86352,0.92653 14.30621,8.175263 24.40197,20.536683 34.69433,33.715833 m 94.22882,92.78879 c -20.46814,-3.3443 -40.93634,-6.68857 -61.6939,-10.08017 -0.74628,4.77222 -1.43885,8.50879 -1.84357,12.2763 -0.10083,0.93903 0.54242,2.11411 1.15808,2.94883 4.23023,5.73526 9.05548,11.09805 12.73798,17.15872 12.76257,21.00442 22.23938,43.55502 29.80261,66.88351 1.84076,5.67768 4.21814,8.97922 10.50958,10.95249 22.52692,7.0654 41.81091,20.24597 60.45978,34.36297 1.67889,1.27094 3.38275,2.50901 5.98968,4.43985 -0.73455,-5.83841 -1.27868,-10.55658 -1.92779,-15.26025 -5.24121,-37.98322 -13.11182,-75.39676 -24.18317,-112.12738 -0.96234,-3.19284 -2.41443,-5.10797 -5.85907,-5.81891 -8.1427,-1.6806 -16.21619,-3.69684 -25.15021,-5.73596 m 118.14563,183.6897 c 0.96479,-8.43448 2.48658,-16.84849 2.79737,-25.30701 1.3125,-35.72327 -0.92224,-71.22916 -7.9306,-106.33792 -0.41535,-2.08087 -2.18848,-4.60846 -4.03742,-5.57578 -21.53082,-11.26391 -43.19421,-22.2745 -64.83667,-33.32446 -1.36023,-0.69449 -2.83801,-1.15878 -4.44214,-1.80283 0,0.96701 -0.0755,1.30713 0.0106,1.59964 12.5426,42.59119 20.96466,85.9986 25.94855,130.10129 0.20038,1.77271 1.33777,3.73294 2.61456,5.04566 14.49481,14.90289 29.10565,29.69299 43.67255,44.52584 1.24157,1.26429 2.39093,2.61908 4.37182,4.80024 0.67975,-5.03638 1.20594,-8.93439 1.83136,-13.72467 M 505.60599,210.12028 c -2.15418,0.19639 -4.34137,0.2175 -6.45765,0.61533 -33.66711,6.32892 -67.3356,12.65155 -100.97656,19.11722 -6.93558,1.33304 -13.76071,3.24072 -21.78204,5.15716 2.02911,1.11042 2.82614,1.63901 3.69159,2.00657 19.68158,8.35937 38.12036,18.94201 55.83642,30.87207 1.88773,1.27121 4.56357,1.80188 6.90686,1.90213 34.07697,1.4577 68.16645,2.63617 102.23725,4.2178 12.44409,0.57767 12.42712,0.98123 17.60419,-10.4664 1.02844,-2.27402 1.87615,-4.64819 3.09893,-6.81125 1.55524,-2.75095 1.21887,-4.69888 -1.25866,-6.84115 -12.96424,-11.20969 -25.96192,-22.39106 -38.60523,-33.95685 -5.72113,-5.23358 -11.74029,-7.78351 -20.2951,-5.81263 m -129.92661,70.12351 c -19.27499,1.34717 -38.55548,2.62466 -57.81619,4.15179 -1.8757,0.14872 -4.07315,1.43949 -5.36447,2.879 -6.33942,7.06699 -12.43674,14.35181 -18.57645,21.59619 -0.65491,0.77277 -1.02911,1.78342 -1.80106,3.16129 70.02665,3.45645 139.09907,9.73376 208.55704,22.34744 -1.39465,-1.77859 -1.99475,-2.72732 -2.76807,-3.50339 -18.13812,-18.20037 -37.23046,-35.31466 -58.16165,-50.2651 -2.22772,-1.59116 -5.4617,-2.59958 -8.19272,-2.52649 -18.31338,0.49011 -36.617,1.34634 -55.87643,2.15927 m 459.92679,201.91968 c 2.58893,-16.78388 5.25079,-33.55731 7.66388,-50.36646 0.26709,-1.86017 -0.26972,-4.48627 -1.47479,-5.80774 -13.68415,-15.00665 -27.5608,-29.83795 -41.42597,-44.67874 -1.00207,-1.0726 -2.31647,-1.85339 -3.99511,-3.16922 0,2.01959 -0.0848,3.02005 0.0122,4.00257 4.30725,43.62951 2.28577,87.23834 -1.88006,130.68389 -1.42395,14.85041 -0.96381,27.89655 8.34985,40.16004 4.03595,5.31415 6.38006,11.91321 9.96906,18.84918 11.66094,-29.26288 17.14648,-59.04218 22.78094,-89.67352 M 192.83252,331.38796 c 19.9162,-16.44401 39.83227,-32.88816 59.74899,-49.33149 0.89941,-0.74258 2.26785,-1.30896 2.61124,-2.25131 0.70733,-1.9411 0.86865,-4.08118 1.25464,-6.13937 -2.20804,-0.0787 -4.41837,-0.23951 -6.62241,-0.17694 -0.5347,0.0151 -1.06024,0.75213 -1.57025,1.18081 -29.33576,24.65662 -58.66809,49.31729 -88.00914,73.96769 -0.92899,0.78042 -1.9449,1.45745 -3.99336,2.98068 1.15034,-7.65546 1.99678,-14.05924 3.11604,-20.41495 0.56737,-3.22183 0.97346,-6.35196 -3.14056,-7.01791 -3.7605,-0.60877 -4.7123,2.29739 -5.11246,5.33877 -1.19454,9.07861 -2.21974,18.18454 -3.68239,27.2197 -0.41507,2.56393 -1.53294,5.46734 -3.28732,7.29446 -36.71468,38.23694 -69.889758,79.1662 -96.196788,125.38086 -0.21034,0.36951 -0.72698,0.5647 -1.80623,1.36359 -3.85823,-15.07074 -7.60875,-29.69782 -11.34361,-44.32886 -0.75923,-2.97412 -1.38706,-6.36511 -5.547031,-5.51343 -4.233887,0.86676 -3.547921,4.28192 -2.75499,7.23187 4.495084,16.72327 9.183811,33.39527 13.535911,50.15503 0.64502,2.48395 0.59631,5.65705 -0.39085,7.97492 -7.5993,17.84308 -13.833629,36.07031 -16.975925,55.27063 -0.496803,3.03558 -0.552826,6.03351 3.191429,6.6784 3.763527,0.64832 4.403019,-2.27227 5.230369,-5.22436 4.305307,-15.36194 8.796717,-30.67206 13.289147,-45.9809 0.39099,-1.33239 1.25978,-2.52459 1.59366,-3.17358 7.97546,8.05548 15.36729,16.453 23.74073,23.7193 8.52864,7.401 18.01628,13.6983 27.10408,20.45178 1.06504,0.7915 2.26464,1.99561 3.388778,1.98132 1.90294,-0.0242 4.40854,-0.33105 5.48035,-1.55371 0.73398,-0.83734 -0.12363,-3.68213 -1.03172,-5.16174 -0.79099,-1.28876 -2.65783,-1.90985 -4.03473,-2.84735 C 83.765462,538.9872 67.553952,526.8196 55.129612,510.28865 c -3.556,-4.73132 -5.08755,-9.04993 -1.10607,-14.30737 1.88741,-2.49225 2.94976,-5.59198 4.56832,-8.3078 23.65237,-39.68781 52.146508,-75.67304 83.650948,-109.35953 2.01607,-2.1557 3.72194,-4.6015 5.51424,-6.84009 4.33471,7.10187 7.1747,13.72843 11.73767,18.80689 8.65979,9.63803 18.28734,18.40884 27.55762,27.49429 2.13815,2.09552 4.72967,3.8938 7.31457,0.97766 2.75723,-3.1106 0.4357,-5.3631 -1.92633,-7.5274 -6.63229,-6.07718 -13.31593,-12.10865 -19.72319,-18.41825 -6.70221,-6.6 -12.16173,-14.09158 -15.41028,-23.08941 -1.28554,-3.56067 -1.02568,-6.05326 2.05757,-8.70987 11.10561,-9.56885 21.97116,-19.41629 33.46784,-29.61981 m -70.83698,265.40753 c -5.69311,-9.1709 -5.94928,-21.1637 -14.7991,-29.32337 -0.76592,1.14655 -1.33417,1.74994 -1.62332,2.46607 -7.531158,18.65246 -15.241978,37.2373 -22.384778,56.03784 -1.65854,4.36548 -1.98879,9.49145 -1.84824,14.23547 0.38474,12.98505 9.40691,22.2605 22.323758,21.92078 7.11274,-0.18707 14.59717,-1.83844 21.14118,-4.6369 11.75593,-5.02729 22.93394,-11.40766 34.34439,-17.2403 4.69833,-2.40167 9.37332,-4.84906 14.79768,-7.6582 -2.33871,-0.60108 -3.80521,-0.86737 -5.19563,-1.35199 -18.87869,-6.57923 -36.30181,-15.17328 -46.75594,-34.4494 M 456.90439,177.92043 c -7.88697,-3.141 -15.81827,-6.17688 -23.63834,-9.47641 -2.98965,-1.26142 -4.99686,-0.99155 -7.44095,1.41238 -17.45245,17.16541 -35.08896,34.14355 -52.63464,51.21442 -2.41568,2.35031 -4.65344,4.88348 -6.97354,7.332 45.96902,-10.12885 91.35458,-21.16831 139.29049,-26.4682 -16.06817,-9.74955 -31.91455,-16.87223 -48.60302,-24.01419 M 651.68368,66.328667 c 2.72992,2.97965 6.02387,3.37261 9.95362,2.96628 13.90985,-1.43831 27.85077,-2.59129 41.79095,-3.71545 6.41889,-0.51763 12.86328,-0.71782 20.84619,-1.14485 -4.11609,-3.30556 -7.03027,-5.69815 -9.99884,-8.02138 -19.888,-15.56459 -41.31708,-28.61325 -64.25482,-39.16784 -4.37414,-2.01274 -9.07257,-4.66323 -13.8017,-1.95313 -10.18603,5.83742 -20.08282,12.17978 -30.22119,18.39096 15.61347,11.15062 30.3501,21.675 45.68579,32.64541 M 494.99478,316.83556 c 5.75891,5.78372 11.53717,11.5484 17.27112,17.35681 5.1228,5.18933 8.94037,5.04571 12.47589,-1.0072 9.06811,-15.52512 17.9469,-31.16092 26.86413,-46.77375 0.61475,-1.07626 0.92188,-2.32818 1.52839,-3.905 -34.15509,-2.81945 -67.79499,-4.94393 -101.86359,-4.57647 14.85657,13.20144 29.03979,25.80453 43.72406,38.90561 M 418.2359,270.32869 c 1.57248,-0.10367 3.14493,-0.20734 5.44275,-0.35883 -1.00434,-0.95224 -1.38825,-1.45047 -1.88681,-1.76944 -17.84796,-11.41806 -36.56253,-21.13684 -56.44885,-28.50583 -4.99332,-1.85028 -9.56275,-0.57586 -13.12189,3.25779 -9.16739,9.87439 -18.18646,19.88665 -27.23233,29.87326 -0.67746,0.74789 -1.09732,1.72912 -1.60959,2.55768 31.55749,-1.67667 62.7728,-3.33515 94.85672,-5.05463 M 635.03073,63.789947 c -10.89441,-7.36066 -21.7569,-14.76967 -32.72443,-22.01972 -1.34485,-0.88899 -3.86859,-1.84317 -4.8023,-1.21525 -7.94629,5.34393 -15.651,11.04718 -22.7334,16.14291 6.54089,8.80446 12.89184,16.91251 18.69202,25.39711 2.06036,3.01396 3.6596,3.19722 6.86572,2.2078 13.82446,-4.26635 27.75757,-8.18064 41.64276,-12.25138 0.68597,-0.20109 1.29382,-0.66855 2.3927,-1.2543 -3.19916,-2.41005 -5.97455,-4.50084 -9.33307,-7.00717 M 544.72055,208.38759 c -4.39679,0.21057 -8.79358,0.42111 -14.07465,0.67401 13.78479,12.13248 26.8097,23.59622 40.46308,35.6131 4.61267,-11.99207 9.09698,-23.65021 13.95923,-36.29117 -13.89643,0 -26.63288,0 -40.34766,0.004 M 574.46853,69.372527 c -1.75146,-1.7726 -3.35009,-3.74944 -5.32318,-5.22595 -0.89801,-0.67203 -2.94226,-0.95206 -3.77215,-0.38808 -4.9195,3.34344 -9.63532,6.98656 -14.65509,10.70329 8.49579,4.9327 16.73321,9.23656 24.42706,14.35706 4.8299,3.21446 8.4386,2.02814 13.04974,-1.17482 -4.53485,-6.0734 -8.89337,-11.91062 -13.72638,-18.2715 m -35.38427,-16.71079 c -8.08203,-0.73738 -16.10718,-0.76112 -25.29395,1.79892 9.54285,5.51522 17.99219,10.44892 26.51807,15.24677 0.83819,0.47168 2.46411,0.56518 3.1842,0.0617 5.25629,-3.67561 10.37439,-7.5489 15.53614,-11.35975 -0.0779,-0.52085 -0.15589,-1.0417 -0.23383,-1.56255 -6.27338,-1.34651 -12.54669,-2.69304 -19.71063,-4.18506 M 305.73971,255.09599 c -2.50787,-2.43149 -4.7499,-5.27405 -7.62695,-7.13461 -1.63113,-1.05487 -4.30341,-0.49979 -6.5068,-0.6698 0.13842,2.07404 -0.55552,4.98743 0.55123,6.08496 6.84116,6.78406 14.03873,13.21399 21.22843,19.63791 2.20959,1.97427 5.26837,2.72769 6.77383,-0.28696 0.73661,-1.475 -0.30371,-4.76358 -1.64849,-6.17502 -3.7703,-3.95727 -8.11729,-7.36511 -12.77125,-11.45648 z"
   id="path42"
   style="stroke:#ffffff;stroke-width:8;stroke-miterlimit:4;stroke-dasharray:none;stroke-opacity:1;fill:#ffffff;fill-opacity:1" />










<path
   fill="#e9e54d"
   opacity="1"
   stroke="none"
   d="m 192.56228,331.61861 c -11.22644,9.97287 -22.09199,19.82031 -33.1976,29.38916 -3.08325,2.65661 -3.34311,5.1492 -2.05757,8.70987 3.24855,8.99783 8.70807,16.48941 15.41028,23.08941 6.40726,6.3096 13.0909,12.34107 19.72319,18.41825 2.36203,2.1643 4.68356,4.4168 1.92633,7.5274 -2.5849,2.91614 -5.17642,1.11786 -7.31457,-0.97766 -9.27028,-9.08545 -18.89783,-17.85626 -27.55762,-27.49429 -4.56297,-5.07846 -7.40296,-11.70502 -11.73767,-18.80689 -1.7923,2.23859 -3.49817,4.68439 -5.51424,6.84009 -31.50444,33.68649 -59.998578,69.67172 -83.650948,109.35953 -1.61856,2.71582 -2.68091,5.81555 -4.56832,8.3078 -3.98148,5.25744 -2.44993,9.57605 1.10607,14.30737 12.42434,16.53095 28.63585,28.69855 45.488508,40.17322 1.3769,0.9375 3.24374,1.55859 4.03473,2.84735 0.90809,1.47961 1.7657,4.3244 1.03172,5.16174 -1.07181,1.22266 -3.57741,1.52954 -5.48035,1.55371 -1.124138,0.0143 -2.323738,-1.18982 -3.388778,-1.98132 -9.0878,-6.75348 -18.57544,-13.05078 -27.10408,-20.45178 -8.37344,-7.2663 -15.76527,-15.66382 -23.74073,-23.7193 -0.33388,0.64899 -1.20267,1.84119 -1.59366,3.17358 -4.49243,15.30884 -8.98384,30.61896 -13.289147,45.9809 -0.82735,2.95209 -1.466842,5.87268 -5.230369,5.22436 -3.744255,-0.64489 -3.688232,-3.64282 -3.191429,-6.6784 3.142296,-19.20032 9.376625,-37.42755 16.975925,-55.27063 0.98716,-2.31787 1.03587,-5.49097 0.39085,-7.97492 -4.3521,-16.75976 -9.040827,-33.43176 -13.535911,-50.15503 -0.792931,-2.94995 -1.478897,-6.36511 2.75499,-7.23187 4.159971,-0.85168 4.787801,2.53931 5.547031,5.51343 3.73486,14.63104 7.48538,29.25812 11.34361,44.32886 1.07925,-0.79889 1.59589,-0.99408 1.80623,-1.36359 26.30703,-46.21466 59.482108,-87.14392 96.196788,-125.38086 1.75438,-1.82712 2.87225,-4.73053 3.28732,-7.29446 1.46265,-9.03516 2.48785,-18.14109 3.68239,-27.2197 0.40016,-3.04138 1.35196,-5.94754 5.11246,-5.33877 4.11402,0.66595 3.70793,3.79608 3.14056,7.01791 -1.11926,6.35571 -1.9657,12.75949 -3.11604,20.41495 2.04846,-1.52323 3.06437,-2.20026 3.99336,-2.98068 29.34105,-24.6504 58.67338,-49.31107 88.00914,-73.96769 0.51001,-0.42868 1.03555,-1.16568 1.57025,-1.18081 2.20404,-0.0626 4.41437,0.0982 6.62241,0.17694 -0.38599,2.05819 -0.54731,4.19827 -1.25464,6.13937 -0.34339,0.94235 -1.71183,1.50873 -2.61124,2.25131 -19.91672,16.44333 -39.83279,32.88748 -60.01923,49.56214 z"
   id="path64"
   style="fill:#ffffff;fill-opacity:1;stroke-width:0.99501002;stroke-miterlimit:4;stroke-dasharray:none;stroke:#ffffff;stroke-opacity:1" />










<path
   fill="#e9e54d"
   opacity="1"
   stroke="none"
   d="m 306.00693,255.32936 c 4.38674,3.858 8.73373,7.26584 12.50403,11.22311 1.34478,1.41144 2.3851,4.70002 1.64849,6.17502 -1.50546,3.01465 -4.56424,2.26123 -6.77383,0.28696 -7.1897,-6.42392 -14.38727,-12.85385 -21.22843,-19.63791 -1.10675,-1.09753 -0.41281,-4.01092 -0.5512,-6.08496 2.20336,0.17001 4.87564,-0.38507 6.50677,0.6698 2.87705,1.86056 5.11908,4.70312 7.89417,7.36798 z"
   id="path86"
   style="fill:#ffffff;fill-opacity:1;stroke-width:0.99501002;stroke-miterlimit:4;stroke-dasharray:none;stroke:#ffffff;stroke-opacity:1" />
<path
   fill="#e9e54e"
   opacity="1"
   stroke="none"
   d="m 400.46847,642.48421 c 1.80091,-0.23682 3.93857,-0.40314 6.38697,-0.39264 -1.80957,0.27221 -3.92987,0.36767 -6.38697,0.39264 z"
   id="path88"
   style="stroke-width:0.99501002;stroke-miterlimit:4;stroke-dasharray:none;fill:#ffffff;fill-opacity:1;stroke:#ffffff;stroke-opacity:1" />
<path
   fill="#e9e54e"
   opacity="1"
   stroke="none"
   d="m 422.49557,641.9012 c 1.15552,-0.32892 2.67902,-0.58826 4.48035,-0.65588 -1.18558,0.36969 -2.64896,0.5476 -4.48035,0.65588 z"
   id="path90"
   style="stroke-width:0.99501002;stroke-miterlimit:4;stroke-dasharray:none;fill:#ffffff;fill-opacity:1;stroke:#ffffff;stroke-opacity:1" />
<path
   fill="#e9e54e"
   opacity="1"
   stroke="none"
   d="m 345.33307,641.65718 c 1.23871,-0.20618 2.81897,-0.26617 4.60153,-0.0792 -1.28516,0.23974 -2.77255,0.2326 -4.60153,0.0792 z"
   id="path92"
   style="stroke-width:0.99501002;stroke-miterlimit:4;stroke-dasharray:none;fill:#ffffff;fill-opacity:1;stroke:#ffffff;stroke-opacity:1" />
<path
   fill="#e9e54e"
   opacity="1"
   stroke="none"
   d="m 667.40335,237.96071 c -0.51178,-1.16492 -0.87561,-2.61636 -1.2403,-4.45423 0.46228,1.13166 0.9253,2.64969 1.2403,4.45423 z"
   id="path94"
   style="stroke-width:0.99501002;stroke-miterlimit:4;stroke-dasharray:none;fill:#ffffff;fill-opacity:1;stroke:#ffffff;stroke-opacity:1" />
<path
   fill="#e9e54e"
   opacity="1"
   stroke="none"
   d="m 654.2825,614.60951 c 0.88385,-0.56933 2.01959,-0.96606 3.5249,-1.37957 -0.84466,0.50622 -2.05884,1.02917 -3.5249,1.37957 z"
   id="path96"
   style="stroke-width:0.99501002;stroke-miterlimit:4;stroke-dasharray:none;fill:#ffffff;fill-opacity:1;stroke:#ffffff;stroke-opacity:1" />
<path
   fill="#e9e54e"
   opacity="1"
   stroke="none"
   d="m 264.36807,634.45296 c 0.63666,-0.11957 1.55298,-0.0939 2.61884,0.14581 -0.68003,0.14252 -1.50962,0.0709 -2.61884,-0.14581 z"
   id="path98"
   style="stroke-width:0.99501002;stroke-miterlimit:4;stroke-dasharray:none;fill:#ffffff;fill-opacity:1;stroke:#ffffff;stroke-opacity:1" />
<path
   fill="#e9e54e"
   opacity="1"
   stroke="none"
   d="m 665.67496,401.89516 c -0.28028,-0.57068 -0.4972,-1.45072 -0.56275,-2.5448 0.30969,0.60247 0.4679,1.41897 0.56275,2.5448 z"
   id="path100"
   style="stroke-width:0.99501002;stroke-miterlimit:4;stroke-dasharray:none;fill:#ffffff;fill-opacity:1;stroke:#ffffff;stroke-opacity:1" />
<path
   fill="#e9e54e"
   opacity="1"
   stroke="none"
   d="m 719.57754,356.04121 c -0.17767,-0.64913 -0.2149,-1.58862 -0.0354,-2.68682 0.20313,0.69299 0.18946,1.5447 0.0354,2.68682 z"
   id="path102"
   style="stroke-width:0.99501002;stroke-miterlimit:4;stroke-dasharray:none;fill:#ffffff;fill-opacity:1;stroke:#ffffff;stroke-opacity:1" />
<path
   fill="#e9e54e"
   opacity="1"
   stroke="none"
   d="m 580.38895,235.49293 c 0.56188,0.46088 1.12402,1.22126 1.73657,2.27564 -0.54517,-0.46271 -1.14069,-1.21945 -1.73657,-2.27564 z"
   id="path104"
   style="stroke-width:0.99501002;stroke-miterlimit:4;stroke-dasharray:none;fill:#ffffff;fill-opacity:1;stroke:#ffffff;stroke-opacity:1" />
<path
   fill="#e9e54e"
   opacity="1"
   stroke="none"
   d="m 437.88809,660.41457 c -0.12433,0.74347 -0.52731,1.60107 -1.17065,2.62286 0.13708,-0.72675 0.51455,-1.6178 1.17065,-2.62286 z"
   id="path106"
   style="stroke-width:0.99501002;stroke-miterlimit:4;stroke-dasharray:none;fill:#ffffff;fill-opacity:1;stroke:#ffffff;stroke-opacity:1" />
<path
   fill="#e9e54e"
   opacity="1"
   stroke="none"
   d="m 461.39224,638.75227 c 0.30902,-0.2445 0.88562,-0.4447 1.63544,-0.52588 -0.34046,0.26947 -0.85413,0.41987 -1.63544,0.52588 z"
   id="path108"
   style="stroke-width:0.99501002;stroke-miterlimit:4;stroke-dasharray:none;fill:#ffffff;fill-opacity:1;stroke:#ffffff;stroke-opacity:1" />
<path
   fill="#e9e54e"
   opacity="1"
   stroke="none"
   d="m 281.3081,636.48054 c 0.36783,-0.13568 0.97254,-0.14233 1.7031,0.0155 -0.40485,0.14746 -0.93552,0.13043 -1.7031,-0.0155 z"
   id="path110"
   style="stroke-width:0.99501002;stroke-miterlimit:4;stroke-dasharray:none;fill:#ffffff;fill-opacity:1;stroke:#ffffff;stroke-opacity:1" />
<path
   fill="#e9e54e"
   opacity="1"
   stroke="none"
   d="m 314.23852,639.65694 c 0.38126,-0.16156 1.01123,-0.19526 1.77085,-0.0525 -0.42096,0.17767 -0.97156,0.17901 -1.77085,0.0525 z"
   id="path112"
   style="stroke-width:0.99501002;stroke-miterlimit:4;stroke-dasharray:none;fill:#ffffff;fill-opacity:1;stroke:#ffffff;stroke-opacity:1" />
<path
   fill="#e9e54e"
   opacity="1"
   stroke="none"
   d="m 326.31705,640.45406 c 0.35629,-0.16565 0.95007,-0.20887 1.68023,-0.10559 -0.38998,0.17376 -0.91635,0.20092 -1.68023,0.10559 z"
   id="path114"
   style="stroke-width:0.99501002;stroke-miterlimit:4;stroke-dasharray:none;fill:#ffffff;fill-opacity:1;stroke:#ffffff;stroke-opacity:1" />
<path
   fill="#e9e54e"
   opacity="1"
   stroke="none"
   d="m 661.46652,268.04494 c -0.0956,-0.40265 -0.0128,-1.02082 0.2641,-1.7443 0.10095,0.4394 0.008,0.9841 -0.2641,1.7443 z"
   id="path116"
   style="stroke-width:0.99501002;stroke-miterlimit:4;stroke-dasharray:none;fill:#ffffff;fill-opacity:1;stroke:#ffffff;stroke-opacity:1" />
<path
   fill="#e9e54e"
   opacity="1"
   stroke="none"
   d="m 441.38745,640.5995 c 0.31515,-0.21649 0.89029,-0.37072 1.63083,-0.4071 -0.34668,0.23505 -0.85877,0.35217 -1.63083,0.4071 z"
   id="path118"
   style="stroke-width:0.99501002;stroke-miterlimit:4;stroke-dasharray:none;fill:#ffffff;fill-opacity:1;stroke:#ffffff;stroke-opacity:1" />
<path
   fill="#e9e54e"
   opacity="1"
   stroke="none"
   d="m 665.42825,451.02693 c -0.13922,-0.37103 -0.14282,-0.97748 0.02,-1.70898 0.14948,0.40783 0.13251,0.94067 -0.02,1.70898 z"
   id="path120"
   style="stroke-width:0.99501002;stroke-miterlimit:4;stroke-dasharray:none;fill:#ffffff;fill-opacity:1;stroke:#ffffff;stroke-opacity:1" />
<path
   fill="#e9e64d"
   opacity="1"
   stroke="none"
   d="m 469.20498,137.27376 c -0.40429,0.25061 -0.93676,0.35249 -1.46923,0.45439 0.21283,-0.23633 0.42572,-0.47264 0.86181,-0.80483 0.22321,-0.0959 0.47925,0.20173 0.60742,0.35044 z"
   id="path122"
   style="stroke-width:0.99501002;stroke-miterlimit:4;stroke-dasharray:none;fill:#ffffff;fill-opacity:1;stroke:#ffffff;stroke-opacity:1" />
<path
   fill="#e9e54e"
   opacity="1"
   stroke="none"
   d="m 657.92373,352.84502 c -0.17547,-0.0257 -0.3496,-0.36631 -0.64025,-0.96811 0.13623,0.0436 0.38885,0.34842 0.64025,0.96811 z"
   id="path124"
   style="stroke-width:0.99501002;stroke-miterlimit:4;stroke-dasharray:none;fill:#ffffff;fill-opacity:1;stroke:#ffffff;stroke-opacity:1" />
<path
   fill="#e9e54e"
   opacity="1"
   stroke="none"
   d="m 716.4722,374.63832 c -0.11499,-0.21085 0.0737,-0.55725 0.41192,-1.15936 0.0636,0.1708 -0.0223,0.59732 -0.41192,1.15936 z"
   id="path126"
   style="stroke-width:0.99501002;stroke-miterlimit:4;stroke-dasharray:none;fill:#ffffff;fill-opacity:1;stroke:#ffffff;stroke-opacity:1" />
<path
   fill="#eae94e"
   opacity="1"
   stroke="none"
   d="m 838.17386,256.21608 c 0.0734,0.11762 -0.0359,0.46448 -0.33948,0.75494 -0.0773,-0.21279 0.0398,-0.36923 0.33948,-0.75494 z"
   id="path128"
   style="stroke-width:0.99501002;stroke-miterlimit:4;stroke-dasharray:none;fill:#ffffff;fill-opacity:1;stroke:#ffffff;stroke-opacity:1" />
<path
   fill="#9f2f2a"
   opacity="1"
   stroke="none"
   d="m 560.75369,524.19038 c 1.02655,-8.716 2.05304,-17.43206 3.1015,-26.89917 -0.0164,-1.20105 -0.0548,-1.65087 -0.0931,-2.10076 0.051,-7.35486 0.10193,-14.70978 0.13391,-22.90168 -0.11413,-1.59088 -0.20934,-2.34472 -0.30456,-3.09851 -0.27814,-5.03528 -0.55621,-10.07062 -0.90875,-15.80249 -0.18982,-1.21155 -0.30524,-1.72644 -0.4206,-2.24139 0.0164,-0.16547 0.0843,-0.3457 0.0419,-0.49439 -2.8767,-10.06903 2.13264,-16.75519 8.64417,-23.88623 26.23499,-28.7308 48.61591,-60.26532 66.29443,-95.02112 0.97864,-1.9241 1.86042,-3.89746 3.16742,-6.32672 0.83503,-0.41604 1.28998,-0.35327 1.74494,-0.29046 4.13446,17.96313 8.34143,35.91009 12.35107,53.90103 0.97333,4.36737 1.29682,8.87958 2.01141,14.00436 0.23023,1.18872 0.36823,1.69821 0.50623,2.20773 0.45795,7.68015 0.91589,15.36027 1.39453,23.95438 0.0543,5.61212 0.0879,10.31024 0.1214,15.00842 -0.54163,6.68341 -1.08319,13.36683 -1.73016,20.72663 -0.14374,1.20892 -0.18219,1.74151 -0.22058,2.27405 -0.21961,12.65753 -7.52112,21.24627 -15.93793,29.75457 -25.79932,26.07972 -54.32019,48.64289 -85.34967,68.11359 -0.82208,0.51587 -1.75482,0.85553 -2.79584,1.35394 2.63489,-9.96002 5.20368,-19.67035 7.90161,-30.01385 0.20166,-1.16278 0.27411,-1.69232 0.34662,-2.22193 z"
   id="path130"
   style="stroke-width:0.99501002;stroke-miterlimit:4;stroke-dasharray:none;fill:#ffffff;fill-opacity:1;stroke:#ffffff;stroke-opacity:1" />
<path
   fill="#9f2f2a"
   opacity="1"
   stroke="none"
   d="m 555.0751,459.21889 c 0.0913,3.02667 0.18262,6.05334 0.30396,9.92804 0.13855,1.91705 0.24701,2.98608 0.35553,4.05505 -0.003,6.66083 -0.006,13.32166 -0.0757,20.77606 -0.0927,2.27088 -0.11938,3.74817 -0.14611,5.22547 -0.5301,5.35412 -1.06013,10.70831 -1.7013,16.73169 -0.1535,1.20282 -0.1958,1.73645 -0.23804,2.27002 -2.65521,14.62323 -6.03747,29.06689 -13.52063,42.07049 -1.94311,3.37659 -5.08429,6.64185 -8.47229,8.52149 -45.63897,25.32013 -93.97259,43.13006 -146.36242,51.49932 -1.52497,0.31098 -2.33429,0.53425 -3.14362,0.75751 -0.74811,0.0394 -1.49622,0.0789 -2.73773,-0.0771 -0.51248,-0.39001 -0.53159,-0.58459 -0.55069,-0.77917 17.37045,-15.90344 28.50201,-35.50257 34.63595,-58.77887 0.25806,-1.14923 0.33689,-1.68787 0.41568,-2.2265 0.51813,-4.87934 3.42878,-7.5943 7.58283,-10.07526 46.75131,-27.92187 89.42477,-61.13483 128.10757,-99.46905 1.04297,-1.03363 2.15912,-1.99347 3.9408,-3.63056 0.43897,3.92981 0.79602,7.12628 1.24853,11.0025 0.18293,1.1861 0.27033,1.69251 0.35773,2.19892 z"
   id="path132"
   style="stroke-width:0.99501002;stroke-miterlimit:4;stroke-dasharray:none;fill:#ffffff;fill-opacity:1;stroke:#ffffff;stroke-opacity:1" />
<path
   fill="#a02f2a"
   opacity="1"
   stroke="none"
   d="m 648.173,492.23579 c -9.73791,30.22394 -22.81085,58.9549 -38.44397,86.57209 -2.40808,4.25402 -5.51336,7.20361 -9.7453,9.53222 -29.95807,16.48474 -61.37799,28.98127 -95.85138,35.44129 -0.99951,-0.15039 -1.21704,-0.32843 -1.43463,-0.50641 14.48255,-14.37073 27.16205,-30.17963 38.15778,-47.37262 1.44934,-2.2663 3.60309,-4.38806 5.91729,-5.74945 36.80329,-21.65058 70.53382,-47.23474 100.74262,-78.01929 0.38037,-0.15649 0.65759,0.10217 0.65759,0.10217 z"
   id="path134"
   style="stroke-width:0.99501002;stroke-miterlimit:4;stroke-dasharray:none;fill:#ffffff;fill-opacity:1;stroke:#ffffff;stroke-opacity:1" />
<path
   fill="#a0302a"
   opacity="1"
   stroke="none"
   d="m 259.6503,623.98561 c 49.89917,-17.99621 98.30807,-39.35004 145.93017,-65.4989 -7.52746,27.51129 -21.49719,49.00201 -44.39489,65.00897 -1.08786,0.2818 -1.59909,0.41944 -2.11036,0.55713 -7.6792,0.5177 -15.35842,1.03534 -23.82043,1.59998 -1.90787,0.18206 -3.03296,0.31726 -4.15805,0.45251 -17.66071,-0.0532 -35.32141,-0.10632 -53.79398,-0.20703 -2.2662,-0.0879 -3.72052,-0.12817 -5.17483,-0.16846 -3.78253,-0.27215 -7.56503,-0.54443 -11.79303,-1.02789 -0.52518,-0.37958 -0.60489,-0.54791 -0.6846,-0.71631 z"
   id="path136"
   style="stroke-width:0.99501002;stroke-miterlimit:4;stroke-dasharray:none;fill:#ffffff;fill-opacity:1;stroke:#ffffff;stroke-opacity:1" />
<path
   fill="#a0302b"
   opacity="1"
   stroke="none"
   d="m 623.45023,571.65901 c 13.22412,-25.43475 25.29223,-51.40735 33.13165,-79.03778 3.06677,-10.80908 8.01452,-19.90967 14.95459,-28.70837 9.03393,-11.45319 16.51178,-24.13397 24.65515,-36.28919 0.71496,-1.0672 1.39984,-2.15454 3.28473,-3.00366 -0.84186,6.55823 -1.68378,13.11652 -2.64588,20.33099 -0.16864,1.18866 -0.21704,1.7212 -0.26544,2.25373 -3.60626,18.56756 -7.21258,37.13507 -10.95007,56.19464 -0.21979,0.92175 -0.30841,1.35156 -0.39697,1.78131 -2.69495,17.82123 -15.80634,28.74005 -27.59259,40.12622 -10.09601,9.75336 -21.59705,18.05231 -33.05591,26.89117 -0.75922,-0.24853 -0.93927,-0.39379 -1.11926,-0.53906 z"
   id="path138"
   style="stroke-width:0.99501002;stroke-miterlimit:4;stroke-dasharray:none;fill:#ffffff;fill-opacity:1;stroke:#ffffff;stroke-opacity:1" />
<path
   fill="#a0312b"
   opacity="1"
   stroke="none"
   d="m 449.97012,631.82014 c -3.65246,0.258 -7.30493,0.51594 -11.65265,0.85828 -1.20764,0.18903 -1.71997,0.29352 -2.23233,0.39801 -27.29638,0.30371 -54.59277,0.60742 -82.4429,0.70111 -0.51083,-0.61114 -0.46789,-1.01233 -0.42493,-1.41351 12.03281,-1.43939 24.06562,-2.87879 36.77121,-4.43512 1.17575,-0.29047 1.67871,-0.46399 2.18167,-0.63751 18.82389,-4.44599 37.64777,-8.89191 57.0141,-13.56617 0.54242,-0.22833 0.95539,-0.48681 0.95539,-0.48681 18.49902,-7.25092 37.0484,-14.37744 55.46936,-21.82141 6.28894,-2.54132 12.25573,-5.87988 18.8789,-8.69611 0.61719,0.32294 0.72535,0.48786 0.83344,0.65283 -10.54669,15.6214 -23.30261,29.30921 -37.04871,42.10791 -1.10943,1.03296 -2.92541,1.30707 -5.03784,2.04047 -1.12805,0.26764 -1.63128,0.42859 -2.13458,0.58954 -3.70368,0.42822 -7.40729,0.85644 -11.80329,1.36743 -1.20397,0.24231 -1.71569,0.40186 -2.22735,0.5614 -4.68494,0.43927 -9.36994,0.87848 -14.76715,1.3656 -1.25232,0.16992 -1.7923,0.29199 -2.33234,0.41406 z"
   id="path140"
   style="stroke-width:0.99501002;stroke-miterlimit:4;stroke-dasharray:none;fill:#ffffff;fill-opacity:1;stroke:#ffffff;stroke-opacity:1" />
<path
   fill="#a4392d"
   opacity="1"
   stroke="none"
   d="m 709.47708,456.20308 c -3.91931,11.57306 -7.83862,23.14612 -12.08093,34.81445 -0.32294,0.0953 -0.27698,0.12714 -0.27698,0.12714 2.43359,-13.89722 4.99036,-27.77429 7.26166,-41.698 1.7923,-10.98676 3.2334,-22.03088 5.04669,-33.42621 0.21619,-0.37671 0.65948,-0.27179 0.65948,-0.27179 -0.072,12.49817 -0.14398,24.9964 -0.35772,38.15485 -0.17853,1.20672 -0.2154,1.75317 -0.2522,2.29956 z"
   id="path142"
   style="stroke-width:0.99501002;stroke-miterlimit:4;stroke-dasharray:none;fill:#ffffff;fill-opacity:1;stroke:#ffffff;stroke-opacity:1" />
<path
   fill="#e9e54e"
   opacity="1"
   stroke="none"
   d="m 658.80423,433.95186 c -0.2981,-4.44666 -0.33167,-9.14478 -0.27698,-14.30206 0.23926,4.37744 0.39038,9.21392 0.27698,14.30206 z"
   id="path144"
   style="stroke-width:0.99501002;stroke-miterlimit:4;stroke-dasharray:none;fill:#ffffff;fill-opacity:1;stroke:#ffffff;stroke-opacity:1" />

<path
   fill="#e9e54e"
   opacity="1"
   stroke="none"
   d="m 555.75784,499.00276 c -0.21838,-1.27655 -0.19171,-2.75384 -0.0164,-4.5686 0.18628,1.23096 0.22394,2.79944 0.0164,4.5686 z"
   id="path148"
   style="stroke-width:0.99501002;stroke-miterlimit:4;stroke-dasharray:none;fill:#ffffff;fill-opacity:1;stroke:#ffffff;stroke-opacity:1" />
<path
   fill="#e9e54e"
   opacity="1"
   stroke="none"
   d="m 272.33704,625.95601 c 1.2452,-0.18591 2.69952,-0.14563 4.50271,-0.005 -1.19861,0.14392 -2.74609,0.18762 -4.50271,0.005 z"
   id="path150"
   style="stroke-width:0.99501002;stroke-miterlimit:4;stroke-dasharray:none;fill:#ffffff;fill-opacity:1;stroke:#ffffff;stroke-opacity:1" />
<path
   fill="#e9e54e"
   opacity="1"
   stroke="none"
   d="m 555.93527,473.0193 c -0.3092,-0.88629 -0.41766,-1.95532 -0.47027,-3.42584 0.26092,0.81329 0.46594,2.02826 0.47027,3.42584 z"
   id="path152"
   style="stroke-width:0.99501002;stroke-miterlimit:4;stroke-dasharray:none;fill:#ffffff;fill-opacity:1;stroke:#ffffff;stroke-opacity:1" />
<path
   fill="#e9e54e"
   opacity="1"
   stroke="none"
   d="m 331.34054,626.26772 c 0.88129,-0.29767 2.00638,-0.43287 3.46415,-0.48444 -0.85166,0.27136 -2.03602,0.45911 -3.46415,0.48444 z"
   id="path154"
   style="stroke-width:0.99501002;stroke-miterlimit:4;stroke-dasharray:none;fill:#ffffff;fill-opacity:1;stroke:#ffffff;stroke-opacity:1" />
<path
   fill="#e9e54e"
   opacity="1"
   stroke="none"
   d="m 563.39895,469.33986 c 0.28773,0.60419 0.38294,1.35803 0.40503,2.48865 -0.24792,-0.52845 -0.42279,-1.43378 -0.40503,-2.48865 z"
   id="path156"
   style="stroke-width:0.99501002;stroke-miterlimit:4;stroke-dasharray:none;fill:#ffffff;fill-opacity:1;stroke:#ffffff;stroke-opacity:1" />
<path
   fill="#e9e54e"
   opacity="1"
   stroke="none"
   d="m 502.53689,623.37691 c 0.37842,0.076 0.59595,0.25409 1.20142,0.59747 -0.25537,0.31567 -0.89874,0.46607 -1.54205,0.61646 0.0599,-0.37067 0.11987,-0.74134 0.34063,-1.21393 z"
   id="path158"
   style="stroke-width:0.99501002;stroke-miterlimit:4;stroke-dasharray:none;fill:#ffffff;fill-opacity:1;stroke:#ffffff;stroke-opacity:1" />
<path
   fill="#e9e54e"
   opacity="1"
   stroke="none"
   d="m 382.29794,621.20534 c 0.58582,-0.37457 1.39514,-0.59784 2.52179,-0.78229 -0.55456,0.33698 -1.42642,0.63531 -2.52179,0.78229 z"
   id="path160"
   style="stroke-width:0.99501002;stroke-miterlimit:4;stroke-dasharray:none;fill:#ffffff;fill-opacity:1;stroke:#ffffff;stroke-opacity:1" />
<path
   fill="#e9e54e"
   opacity="1"
   stroke="none"
   d="m 624.17392,573.36342 c -0.58496,0.42529 -1.16992,0.85059 -1.75488,1.27588 -0.0493,-0.38446 -0.0987,-0.76898 0.40069,-1.22235 0.81726,-0.0637 1.08576,-0.0586 1.35419,-0.0535 z"
   id="path162"
   style="stroke-width:0.99501002;stroke-miterlimit:4;stroke-dasharray:none;fill:#ffffff;fill-opacity:1;stroke:#ffffff;stroke-opacity:1" />
<path
   fill="#e9e54e"
   opacity="1"
   stroke="none"
   d="m 642.05875,324.92964 c -0.35871,0.13501 -0.81366,0.0722 -1.59986,0.12952 0.28034,-0.0291 0.89197,-0.17822 1.59986,-0.12952 z"
   id="path164"
   style="stroke-width:0.99501002;stroke-miterlimit:4;stroke-dasharray:none;fill:#ffffff;fill-opacity:1;stroke:#ffffff;stroke-opacity:1" />
<path
   fill="#e9e54e"
   opacity="1"
   stroke="none"
   d="m 436.24814,633.19557 c 0.34936,-0.22363 0.86169,-0.32812 1.63275,-0.36712 -0.31748,0.20587 -0.89359,0.34607 -1.63275,0.36712 z"
   id="path166"
   style="stroke-width:0.99501002;stroke-miterlimit:4;stroke-dasharray:none;fill:#ffffff;fill-opacity:1;stroke:#ffffff;stroke-opacity:1" />
<path
   fill="#e9e54e"
   opacity="1"
   stroke="none"
   d="m 450.14304,631.96376 c 0.36712,-0.26569 0.9071,-0.38776 1.7221,-0.45026 -0.33307,0.23767 -0.94116,0.41578 -1.7221,0.45026 z"
   id="path168"
   style="stroke-width:0.99501002;stroke-miterlimit:4;stroke-dasharray:none;fill:#ffffff;fill-opacity:1;stroke:#ffffff;stroke-opacity:1" />
<path
   fill="#e9e54e"
   opacity="1"
   stroke="none"
   d="m 657.13931,395.07216 c -0.2536,-0.3411 -0.3916,-0.85059 -0.47143,-1.62146 0.23443,0.31009 0.41076,0.88156 0.47143,1.62146 z"
   id="path170"
   style="stroke-width:0.99501002;stroke-miterlimit:4;stroke-dasharray:none;fill:#ffffff;fill-opacity:1;stroke:#ffffff;stroke-opacity:1" />
<path
   fill="#e9e54e"
   opacity="1"
   stroke="none"
   d="m 467.24393,630.15932 c 0.33734,-0.27838 0.84906,-0.43793 1.62951,-0.55396 -0.30585,0.2533 -0.88055,0.46302 -1.62951,0.55396 z"
   id="path172"
   style="stroke-width:0.99501002;stroke-miterlimit:4;stroke-dasharray:none;fill:#ffffff;fill-opacity:1;stroke:#ffffff;stroke-opacity:1" />
<path
   fill="#e9e54e"
   opacity="1"
   stroke="none"
   d="m 391.99338,627.18105 c -0.32615,0.28387 -0.82911,0.45739 -1.59986,0.60498 0.29584,-0.25574 0.85944,-0.48554 1.59986,-0.60498 z"
   id="path174"
   style="stroke-width:0.99501002;stroke-miterlimit:4;stroke-dasharray:none;fill:#ffffff;fill-opacity:1;stroke:#ffffff;stroke-opacity:1" />
<path
   fill="#e9e54e"
   opacity="1"
   stroke="none"
   d="m 696.74014,447.08699 c -0.12671,-0.41479 -0.0783,-0.94733 0.11304,-1.71008 0.11597,0.37732 0.089,0.98486 -0.11304,1.71008 z"
   id="path176"
   style="stroke-width:0.99501002;stroke-miterlimit:4;stroke-dasharray:none;fill:#ffffff;fill-opacity:1;stroke:#ffffff;stroke-opacity:1" />
<path
   fill="#e9e54e"
   opacity="1"
   stroke="none"
   d="m 699.10611,422.1208 c 0.30627,-0.33746 0.61261,-0.67486 0.91894,-1.01226 0.0817,0.26586 0.16327,0.53167 -0.0857,0.89379 -0.49817,0.10364 -0.66565,0.11109 -0.83319,0.11847 z"
   id="path178"
   style="stroke-width:0.99501002;stroke-miterlimit:4;stroke-dasharray:none;fill:#ffffff;fill-opacity:1;stroke:#ffffff;stroke-opacity:1" />
<path
   fill="#e9e54e"
   opacity="1"
   stroke="none"
   d="m 562.14218,451.30977 c 0.23529,0.35156 0.35071,0.86645 0.38892,1.63757 -0.22107,-0.32062 -0.36493,-0.8974 -0.38892,-1.63757 z"
   id="path180"
   style="stroke-width:0.99501002;stroke-miterlimit:4;stroke-dasharray:none;fill:#ffffff;fill-opacity:1;stroke:#ffffff;stroke-opacity:1" />
<path
   fill="#e9e54e"
   opacity="1"
   stroke="none"
   d="m 709.66006,456.08394 c -0.14618,-0.42725 -0.10931,-0.9737 0.0758,-1.75379 0.13464,0.3891 0.12091,1.01184 -0.0758,1.75379 z"
   id="path182"
   style="stroke-width:0.99501002;stroke-miterlimit:4;stroke-dasharray:none;fill:#ffffff;fill-opacity:1;stroke:#ffffff;stroke-opacity:1" />
<path
   fill="#e9e54e"
   opacity="1"
   stroke="none"
   d="m 656.76199,457.08394 c -0.1347,-0.41242 -0.0962,-0.94501 0.0802,-1.711 0.12299,0.3747 0.10791,0.98279 -0.0802,1.711 z"
   id="path184"
   style="stroke-width:0.99501002;stroke-miterlimit:4;stroke-dasharray:none;fill:#ffffff;fill-opacity:1;stroke:#ffffff;stroke-opacity:1" />
<path
   fill="#e9e54e"
   opacity="1"
   stroke="none"
   d="m 555.18936,459.0594 c -0.20166,-0.34692 -0.28906,-0.85333 -0.31482,-1.61401 0.18414,0.31537 0.30658,0.88501 0.31482,1.61401 z"
   id="path186"
   style="stroke-width:0.99501002;stroke-miterlimit:4;stroke-dasharray:none;fill:#ffffff;fill-opacity:1;stroke:#ffffff;stroke-opacity:1" />
<path
   fill="#e9e54e"
   opacity="1"
   stroke="none"
   d="m 563.59122,495.29359 c 0.20922,0.34675 0.24755,0.79657 0.21484,1.57905 -0.17603,-0.27027 -0.28082,-0.87305 -0.21484,-1.57905 z"
   id="path188"
   style="stroke-width:0.99501002;stroke-miterlimit:4;stroke-dasharray:none;fill:#ffffff;fill-opacity:1;stroke:#ffffff;stroke-opacity:1" />
<path
   fill="#e9e54e"
   opacity="1"
   stroke="none"
   d="m 553.74783,518.08614 c -0.1322,-0.41449 -0.0899,-0.94812 0.0948,-1.71302 0.1214,0.37708 0.10046,0.98554 -0.0948,1.71302 z"
   id="path190"
   style="stroke-width:0.99501002;stroke-miterlimit:4;stroke-dasharray:none;fill:#ffffff;fill-opacity:1;stroke:#ffffff;stroke-opacity:1" />
<path
   fill="#e9e54e"
   opacity="1"
   stroke="none"
   d="m 560.57376,524.3033 c 0.10742,0.41669 0.035,0.94623 -0.18176,1.7055 -0.0957,-0.37774 -0.0469,-0.98522 0.18176,-1.7055 z"
   id="path192"
   style="stroke-width:0.99501002;stroke-miterlimit:4;stroke-dasharray:none;fill:#ffffff;fill-opacity:1;stroke:#ffffff;stroke-opacity:1" />
<path
   fill="#e9e54e"
   opacity="1"
   stroke="none"
   d="m 413.65054,559.30098 c 0.10831,0.42999 0.0295,0.96863 -0.21808,1.72565 -0.10217,-0.39344 -0.0356,-1.00519 0.21808,-1.72565 z"
   id="path194"
   style="stroke-width:0.99501002;stroke-miterlimit:4;stroke-dasharray:none;fill:#ffffff;fill-opacity:1;stroke:#ffffff;stroke-opacity:1" />
<path
   fill="#e9e54e"
   opacity="1"
   stroke="none"
   d="m 481.27408,628.22249 c 0.32947,-0.27179 0.8327,-0.43274 1.60248,-0.55994 -0.29859,0.2461 -0.86359,0.45844 -1.60248,0.55994 z"
   id="path196"
   style="stroke-width:0.99501002;stroke-miterlimit:4;stroke-dasharray:none;fill:#ffffff;fill-opacity:1;stroke:#ffffff;stroke-opacity:1" />
<path
   fill="#e9e54e"
   opacity="1"
   stroke="none"
   d="m 359.24637,624.17152 c 0.34012,-0.2564 0.85135,-0.39404 1.62854,-0.49322 -0.30848,0.22961 -0.88294,0.42077 -1.62854,0.49322 z"
   id="path198"
   style="stroke-width:0.99501002;stroke-miterlimit:4;stroke-dasharray:none;fill:#ffffff;fill-opacity:1;stroke:#ffffff;stroke-opacity:1" />
<path
   fill="#e9e54e"
   opacity="1"
   stroke="none"
   d="m 595.24203,600.96028 c 0.31617,-0.31879 0.65473,-0.53345 0.99323,-0.74811 -0.15131,0.25287 -0.30261,0.5058 -0.60828,0.82776 -0.15423,0.069 -0.36255,0.0245 -0.38495,-0.0797 z"
   id="path200"
   style="stroke-width:0.99501002;stroke-miterlimit:4;stroke-dasharray:none;fill:#ffffff;fill-opacity:1;stroke:#ffffff;stroke-opacity:1" />
<path
   fill="#e9e54e"
   opacity="1"
   stroke="none"
   d="m 378.62558,620.28297 c 0.17953,0.10932 0.19864,0.3039 0.3417,0.76423 -0.25103,0.19403 -0.62606,0.12237 -1.00112,0.0507 0.16635,-0.24323 0.33267,-0.48645 0.65942,-0.81495 z"
   id="path202"
   style="stroke-width:0.99501002;stroke-miterlimit:4;stroke-dasharray:none;fill:#ffffff;fill-opacity:1;stroke:#ffffff;stroke-opacity:1" />
<path
   fill="#a4392d"
   opacity="1"
   stroke="none"
   d="m 697.05227,491.09419 c -0.0651,0.0493 -0.10925,0.11719 -0.0432,0.1178 0.11011,-0.0673 0.0642,-0.0992 0.0432,-0.1178 z"
   id="path204"
   style="stroke-width:0.99501002;stroke-miterlimit:4;stroke-dasharray:none;fill:#ffffff;fill-opacity:1;stroke:#ffffff;stroke-opacity:1" />
<path
   fill="#e9e54e"
   opacity="1"
   stroke="none"
   d="m 647.7969,491.81526 c 0.0376,-0.0121 0.16883,0.15222 0.33545,0.37586 0.0407,0.0447 -0.23657,-0.21399 -0.33545,-0.37586 z"
   id="path206"
   style="stroke-width:0.99501002;stroke-miterlimit:4;stroke-dasharray:none;fill:#ffffff;fill-opacity:1;stroke:#ffffff;stroke-opacity:1" />
<path
   fill="#a0302b"
   opacity="1"
   stroke="none"
   d="m 699.19449,422.30757 c 0.0792,-0.19415 0.24664,-0.2016 0.65979,-0.15491 -0.0267,0.14985 -0.29908,0.24573 -0.65979,0.15491 z"
   id="path208"
   style="stroke-width:0.99501002;stroke-miterlimit:4;stroke-dasharray:none;fill:#ffffff;fill-opacity:1;stroke:#ffffff;stroke-opacity:1" />
<path
   fill="#e9e54e"
   opacity="1"
   stroke="none"
   d="m 259.57794,624.13533 c 0.15207,0.0187 0.23178,0.18701 0.34943,0.63385 -0.31437,0.13153 -0.46759,-0.12268 -0.34943,-0.63385 z"
   id="path210"
   style="stroke-width:0.99501002;stroke-miterlimit:4;stroke-dasharray:none;fill:#ffffff;fill-opacity:1;stroke:#ffffff;stroke-opacity:1" />
<path
   fill="#e9e54e"
   opacity="1"
   stroke="none"
   d="m 450.01248,613.21309 c 0.1272,0.0253 -0.28577,0.28381 -0.52747,0.31451 -0.0873,-0.20251 0.12659,-0.32598 0.52747,-0.31451 z"
   id="path212"
   style="stroke-width:0.99501002;stroke-miterlimit:4;stroke-dasharray:none;fill:#ffffff;fill-opacity:1;stroke:#ffffff;stroke-opacity:1" />
<path
   fill="#e9e54e"
   opacity="1"
   stroke="none"
   d="m 709.99832,415.63875 c 0.0887,0.10992 -0.35461,0.005 -0.58264,-0.0101 -0.004,-0.24848 0.23694,-0.27674 0.58264,0.0101 z"
   id="path214"
   style="stroke-width:0.99501002;stroke-miterlimit:4;stroke-dasharray:none;fill:#ffffff;fill-opacity:1;stroke:#ffffff;stroke-opacity:1" />
<path
   fill="#a0312b"
   opacity="1"
   stroke="none"
   d="m 526.58231,582.55843 c -0.26844,0.20007 -0.53681,0.40014 -1.03309,0.70776 -0.33593,-0.0574 -0.44409,-0.22235 -0.70495,-0.64166 0.27167,-0.28681 0.6961,-0.31922 1.38702,-0.20557 0.26654,0.14606 0.35095,0.13947 0.35102,0.13947 z"
   id="path216"
   style="stroke-width:0.99501002;stroke-miterlimit:4;stroke-dasharray:none;fill:#ffffff;fill-opacity:1;stroke:#ffffff;stroke-opacity:1" />
<path
   fill="#e9e54e"
   opacity="1"
   stroke="none"
   d="m 685.37002,504.92348 c -0.0635,-0.17255 0.0252,-0.60236 0.42078,-1.16767 0.11505,0.21314 -0.0768,0.56177 -0.42078,1.16767 z"
   id="path218"
   style="stroke-width:0.99501002;stroke-miterlimit:4;stroke-dasharray:none;fill:#ffffff;fill-opacity:1;stroke:#ffffff;stroke-opacity:1" />
<path
   fill="#a0312b"
   opacity="1"
   stroke="none"
   d="m 526.5032,582.60701 c 0.005,0.0419 -0.0301,-0.28925 -0.0301,-0.28925 0,0 -0.0948,0.2154 0.007,0.22803 0.10199,0.0126 0.0176,0.0192 0.023,0.0612 z"
   id="path220"
   style="stroke-width:0.99501002;stroke-miterlimit:4;stroke-dasharray:none;fill:#ffffff;fill-opacity:1;stroke:#ffffff;stroke-opacity:1" />
<path
   fill="#a0302b"
   opacity="1"
   stroke="none"
   d="m 624.26736,573.16194 c -0.36187,0.19641 -0.63037,0.19129 -1.29748,0.12805 -0.22766,-0.4223 -0.0568,-0.78644 0.29718,-1.39074 0.36316,-0.095 0.54321,0.0503 0.9873,0.42065 0.2641,0.22522 0.10651,0.64056 0.013,0.84204 z"
   id="path222"
   style="stroke-width:0.99501002;stroke-miterlimit:4;stroke-dasharray:none;fill:#ffffff;fill-opacity:1;stroke:#ffffff;stroke-opacity:1" />
<path
   fill="#a0302a"
   opacity="1"
   stroke="none"
   d="m 675.11844,540.19575 c 0.0928,0.0396 0.16632,0.0521 0.0906,-0.008 -0.14917,-0.0726 -0.10986,-0.0192 -0.0906,0.008 z"
   id="path224"
   style="stroke-width:0.99501002;stroke-miterlimit:4;stroke-dasharray:none;fill:#ffffff;fill-opacity:1;stroke:#ffffff;stroke-opacity:1" />
<g
   inkscape:groupmode="layer"
   id="layer1"
   inkscape:label="Layer 1" /><path
   style="fill:#ffffff;fill-opacity:1;stroke:#ffffff;stroke-width:0.99501;stroke-linecap:butt;stroke-linejoin:miter;stroke-miterlimit:4;stroke-dasharray:none;stroke-opacity:1"
   d="m 224.17651,630.77765 c 1.28081,-12.85417 53.88044,-64.57605 115.84931,-90.87528 61.96887,-26.29924 203.58691,-220.2899 254.61417,-333.22293 51.02726,-112.933027 124.93755,149.36177 124.93755,149.36177 0,0 22.80855,89.42662 -39.37119,222.82261 -62.17973,133.39599 -243.79918,85.07803 -243.79918,85.07803 z"
   id="path8603"
   sodipodi:nodetypes="csscscc" /></svg>
